M48
; DRILL file {KiCad (5.1.6)-1} date 11/29/20 15:27:41
; FORMAT={-:-/ absolute / inch / decimal}
; #@! TF.CreationDate,2020-11-29T15:27:41+00:00
; #@! TF.GenerationSoftware,Kicad,Pcbnew,(5.1.6)-1
FMAT,2
INCH
T1C0.0118
T2C0.0157
T3C0.0315
T4C0.0787
%
G90
G05
T1
X4.2518Y-1.739
X4.2518Y-2.1799
X4.2518Y-2.6209
X4.2518Y-3.0618
X4.2518Y-3.5028
X4.2518Y-3.9437
X4.2518Y-4.3846
X4.2518Y-4.8256
X4.2518Y-5.2665
X4.3148Y-5.6445
X4.4723Y-1.9594
X4.4723Y-2.4004
X4.4723Y-2.8413
X4.4723Y-3.2823
X4.4723Y-3.7232
X4.4723Y-4.1642
X4.4723Y-4.6051
X4.4723Y-5.0461
X4.5353Y-5.424
X4.575Y-4.32
X4.6612Y-1.7075
X4.6927Y-2.1799
X4.6927Y-2.6209
X4.6927Y-3.0618
X4.6927Y-3.5028
X4.6927Y-3.9437
X4.7557Y-5.6445
X4.7872Y-5.172
X4.87Y-4.32
X4.9132Y-2.4004
X4.9132Y-3.2823
X4.9132Y-3.7232
X4.9447Y-1.928
X4.9762Y-2.9043
X5.025Y-4.32
X5.0392Y-5.487
X5.075Y-2.9043
X5.1Y-4.32
X5.1337Y-2.1799
X5.1652Y-1.7075
X5.19Y-3.06
X5.19Y-4.32
X5.1967Y-2.5579
X5.1967Y-3.4398
X5.275Y-5.475
X5.2912Y-4.1327
X5.3Y-2.64
X5.305Y-3.285
X5.3227Y-5.6445
X5.3542Y-1.9594
X5.3775Y-5.475
X5.3856Y-3.1878
X5.3856Y-3.7547
X5.4171Y-4.8886
X5.5Y-4.32
X5.5116Y-2.2429
X5.5116Y-2.6839
X5.5746Y-1.739
X5.5746Y-4.2902
X5.6Y-2.64
X5.6061Y-3.5028
X5.6691Y-4.6996
X5.67Y-4.84
X5.67Y-5.095
X5.67Y-5.21
X5.7006Y-2.9358
X5.7006Y-5.5815
X5.7321Y-2.0224
X5.7321Y-2.4634
X5.765Y-4.99
X5.8266Y-3.2823
X5.9211Y-5.361
X5.9526Y-2.2429
X5.9841Y-1.7075
X6.0471Y-2.5894
X6.0471Y-3.6602
X6.0471Y-4.1012
X6.0471Y-4.5421
X6.0471Y-4.9831
X6.0786Y-3.0618
X6.2Y-2.64
X6.2Y-2.94
X6.2675Y-2.3689
X6.299Y-2.8413
X6.3Y-2.64
X6.325Y-1.91
X6.4Y-2.64
X6.4Y-2.9
X6.425Y-1.7075
X6.4565Y-2.1169
X6.488Y-2.5894
X6.51Y-2.88
X6.551Y-3.1563
X6.6Y-2.825
X6.61Y-2.64
X6.7085Y-1.928
X6.74Y-2.3374
X6.7715Y-2.9358
X6.785Y-2.525
X6.8Y-2.64
X6.85Y-1.91
X6.8975Y-2.6209
X6.929Y-1.7075
X6.9605Y-2.1169
X6.9919Y-3.1563
X7.1179Y-2.4004
X7.2124Y-1.928
X7.2754Y-2.6839
X7.3699Y-2.2114
X7.4329Y-1.7075
X7.4329Y-3.1563
X7.5274Y-2.4949
X7.5904Y-1.9909
X7.7479Y-2.2744
X7.8108Y-1.7705
X7.8108Y-2.6524
X7.8738Y-3.1563
X7.95Y-2.0
X8.0628Y-2.8413
X8.15Y-2.475
T2
X4.6493Y-3.7082
X5.0963Y-4.2038
X5.2975Y-3.825
X5.5Y-3.28
X5.7592Y-5.0742
X4.3063Y-1.8398
X4.3236Y-1.798
X4.3236Y-1.8815
X4.3654Y-1.7807
X4.3654Y-1.8988
X4.4071Y-1.798
X4.4071Y-1.8815
X4.4244Y-1.8398
X7.9874Y-1.8398
X8.0047Y-1.798
X8.0047Y-1.8815
X8.0465Y-1.7807
X8.0465Y-1.8988
X8.0882Y-1.798
X8.0882Y-1.8815
X8.1055Y-1.8398
X4.3063Y-4.7531
X4.3236Y-4.7114
X4.3236Y-4.7949
X4.3654Y-4.6941
X4.3654Y-4.8122
X4.4071Y-4.7114
X4.4071Y-4.7949
X4.4244Y-4.7531
T3
X4.6Y-4.5
X4.6Y-4.6
X4.6Y-4.7
X4.6Y-4.8
X4.6Y-4.9
X4.6Y-5.0
X4.6Y-5.1
X4.6Y-5.2
X4.6Y-5.3
X4.7Y-4.4
X4.7Y-4.5
X4.7Y-4.6
X4.7Y-4.7
X4.7Y-4.8
X4.7Y-4.9
X4.7Y-5.0
X4.7Y-5.1
X4.7Y-5.2
X4.7Y-5.3
X4.7Y-5.4
X4.8Y-4.4
X4.8Y-4.5
X4.8Y-5.3
X4.8Y-5.4
X4.9Y-4.4
X4.9Y-4.5
X4.9Y-5.3
X4.9Y-5.4
X5.0Y-4.4
X5.0Y-4.5
X5.0Y-5.3
X5.0Y-5.4
X5.1Y-4.4
X5.1Y-4.5
X5.1Y-5.3
X5.1Y-5.4
X5.2Y-4.4
X5.2Y-4.5
X5.2Y-5.3
X5.2Y-5.4
X5.3Y-4.4
X5.3Y-4.5
X5.3Y-5.3
X5.3Y-5.4
X5.4Y-4.4
X5.4Y-4.5
X5.4Y-5.3
X5.4Y-5.4
X5.5Y-4.4
X5.5Y-4.5
X5.5Y-4.6
X5.5Y-4.7
X5.5Y-4.8
X5.5Y-4.9
X5.5Y-5.0
X5.5Y-5.1
X5.5Y-5.2
X5.5Y-5.3
X5.5Y-5.4
X5.6Y-4.5
X5.6Y-4.6
X5.6Y-4.7
X5.6Y-4.8
X5.6Y-4.9
X5.6Y-5.0
X5.6Y-5.1
X5.6Y-5.2
X5.6Y-5.3
X4.7Y-1.85
X4.7Y-2.75
X4.8Y-1.85
X4.8Y-2.75
X4.9Y-1.85
X4.9Y-2.75
X5.0Y-1.85
X5.0Y-2.75
X5.1Y-1.85
X5.1Y-2.75
X5.2Y-1.85
X5.2Y-2.75
X5.3Y-1.85
X5.3Y-2.75
X5.4Y-1.85
X5.4Y-2.75
X5.5Y-1.85
X5.5Y-2.75
X5.6Y-1.85
X5.6Y-2.75
X5.7Y-1.85
X5.7Y-2.75
X5.8Y-1.85
X5.8Y-2.75
X5.9Y-1.85
X5.9Y-2.75
X6.0Y-1.85
X6.0Y-2.75
X6.1Y-1.85
X6.1Y-2.75
X6.2Y-1.85
X6.2Y-2.75
X6.3Y-1.85
X6.3Y-2.75
X6.4Y-1.85
X6.4Y-2.75
X6.5Y-1.85
X6.5Y-2.75
X6.6Y-1.85
X6.6Y-2.75
X6.7Y-1.85
X6.7Y-2.75
X6.8Y-1.85
X6.8Y-2.75
X6.9Y-1.85
X6.9Y-2.75
X7.0Y-1.85
X7.0Y-2.75
X7.1Y-1.85
X7.1Y-2.75
X7.2Y-1.85
X7.2Y-2.75
X7.3Y-1.85
X7.3Y-2.75
X7.4Y-1.85
X7.4Y-2.75
X7.5Y-1.85
X7.5Y-2.75
X7.6Y-1.85
X7.6Y-2.75
X7.7Y-1.85
X7.7Y-2.75
X7.8Y-1.85
X7.8Y-2.75
T4
X4.3654Y-1.8398
X8.0465Y-1.8398
X4.3654Y-4.7531
T0
M30
