M48
; DRILL file {KiCad (5.1.12)-1} date 01/03/22 17:18:49
; FORMAT={-:-/ absolute / metric / decimal}
; #@! TF.CreationDate,2022-01-03T17:18:49+00:00
; #@! TF.GenerationSoftware,Kicad,Pcbnew,(5.1.12)-1
; #@! TF.FileFunction,Plated,1,4,PTH
FMAT,2
METRIC
T1C0.400
T2C0.800
T3C0.900
T4C2.000
%
G90
G05
T1
X109.38Y-46.73
X109.38Y-120.73
X109.819Y-45.669
X109.819Y-47.791
X109.819Y-119.669
X109.819Y-121.791
X110.88Y-45.23
X110.88Y-48.23
X110.88Y-119.23
X110.88Y-122.23
X111.941Y-45.669
X111.941Y-47.791
X111.941Y-119.669
X111.941Y-121.791
X112.38Y-46.73
X112.38Y-120.73
X121.666Y-124.206
X121.666Y-129.286
X127.0Y-116.586
X129.286Y-132.334
X137.414Y-122.174
X167.64Y-67.31
X168.123Y-75.286
X187.325Y-74.355
X202.88Y-46.73
X203.319Y-45.669
X203.319Y-47.791
X204.38Y-45.23
X204.38Y-48.23
X205.441Y-45.669
X205.441Y-47.791
X205.88Y-46.73
T2
X116.84Y-114.3
X116.84Y-116.84
X116.84Y-119.38
X116.84Y-121.92
X116.84Y-124.46
X116.84Y-127.0
X116.84Y-129.54
X116.84Y-132.08
X116.84Y-134.62
X119.38Y-46.99
X119.38Y-69.85
X119.38Y-111.76
X119.38Y-114.3
X119.38Y-116.84
X119.38Y-119.38
X119.38Y-121.92
X119.38Y-124.46
X119.38Y-127.0
X119.38Y-129.54
X119.38Y-132.08
X119.38Y-134.62
X119.38Y-137.16
X121.92Y-46.99
X121.92Y-69.85
X121.92Y-111.76
X121.92Y-114.3
X121.92Y-134.62
X121.92Y-137.16
X124.46Y-46.99
X124.46Y-69.85
X124.46Y-111.76
X124.46Y-114.3
X124.46Y-134.62
X124.46Y-137.16
X127.0Y-46.99
X127.0Y-69.85
X127.0Y-111.76
X127.0Y-114.3
X127.0Y-134.62
X127.0Y-137.16
X129.54Y-46.99
X129.54Y-69.85
X129.54Y-111.76
X129.54Y-114.3
X129.54Y-134.62
X129.54Y-137.16
X132.08Y-46.99
X132.08Y-69.85
X132.08Y-111.76
X132.08Y-114.3
X132.08Y-134.62
X132.08Y-137.16
X134.62Y-46.99
X134.62Y-69.85
X134.62Y-111.76
X134.62Y-114.3
X134.62Y-134.62
X134.62Y-137.16
X137.16Y-46.99
X137.16Y-69.85
X137.16Y-111.76
X137.16Y-114.3
X137.16Y-134.62
X137.16Y-137.16
X139.7Y-46.99
X139.7Y-69.85
X139.7Y-111.76
X139.7Y-114.3
X139.7Y-116.84
X139.7Y-119.38
X139.7Y-121.92
X139.7Y-124.46
X139.7Y-127.0
X139.7Y-129.54
X139.7Y-132.08
X139.7Y-134.62
X139.7Y-137.16
X142.24Y-46.99
X142.24Y-69.85
X142.24Y-114.3
X142.24Y-116.84
X142.24Y-119.38
X142.24Y-121.92
X142.24Y-124.46
X142.24Y-127.0
X142.24Y-129.54
X142.24Y-132.08
X142.24Y-134.62
X144.78Y-46.99
X144.78Y-69.85
X147.32Y-46.99
X147.32Y-69.85
X149.86Y-46.99
X149.86Y-69.85
X152.4Y-46.99
X152.4Y-69.85
X154.94Y-46.99
X154.94Y-69.85
X157.48Y-46.99
X157.48Y-69.85
X160.02Y-46.99
X160.02Y-69.85
X162.56Y-46.99
X162.56Y-69.85
X165.1Y-46.99
X165.1Y-69.85
X167.64Y-46.99
X167.64Y-69.85
X170.18Y-46.99
X170.18Y-69.85
X172.72Y-46.99
X172.72Y-69.85
X175.26Y-46.99
X175.26Y-69.85
X177.8Y-46.99
X177.8Y-69.85
X180.34Y-46.99
X180.34Y-69.85
X182.88Y-46.99
X182.88Y-69.85
X185.42Y-46.99
X185.42Y-69.85
X187.96Y-46.99
X187.96Y-69.85
X190.5Y-46.99
X190.5Y-69.85
X193.04Y-46.99
X193.04Y-69.85
X195.58Y-46.99
X195.58Y-69.85
X198.12Y-46.99
X198.12Y-69.85
T3
X194.84Y-74.355
X194.84Y-76.855
X194.84Y-79.355
X194.84Y-81.855
T4
X110.88Y-46.73
X110.88Y-120.73
X204.38Y-46.73
T0
M30
