G04 #@! TF.GenerationSoftware,KiCad,Pcbnew,(5.1.12)-1*
G04 #@! TF.CreationDate,2022-01-03T18:36:30+00:00*
G04 #@! TF.ProjectId,A600_68k_PLCC_to_DIP64 _v1,41363030-5f36-4386-9b5f-504c43435f74,B*
G04 #@! TF.SameCoordinates,Original*
G04 #@! TF.FileFunction,Paste,Top*
G04 #@! TF.FilePolarity,Positive*
%FSLAX46Y46*%
G04 Gerber Fmt 4.6, Leading zero omitted, Abs format (unit mm)*
G04 Created by KiCad (PCBNEW (5.1.12)-1) date 2022-01-03 18:36:30*
%MOMM*%
%LPD*%
G01*
G04 APERTURE LIST*
G04 APERTURE END LIST*
G36*
G01*
X121191000Y-120041000D02*
X122141000Y-120041000D01*
G75*
G02*
X122391000Y-120291000I0J-250000D01*
G01*
X122391000Y-120966000D01*
G75*
G02*
X122141000Y-121216000I-250000J0D01*
G01*
X121191000Y-121216000D01*
G75*
G02*
X120941000Y-120966000I0J250000D01*
G01*
X120941000Y-120291000D01*
G75*
G02*
X121191000Y-120041000I250000J0D01*
G01*
G37*
G36*
G01*
X121191000Y-122116000D02*
X122141000Y-122116000D01*
G75*
G02*
X122391000Y-122366000I0J-250000D01*
G01*
X122391000Y-123041000D01*
G75*
G02*
X122141000Y-123291000I-250000J0D01*
G01*
X121191000Y-123291000D01*
G75*
G02*
X120941000Y-123041000I0J250000D01*
G01*
X120941000Y-122366000D01*
G75*
G02*
X121191000Y-122116000I250000J0D01*
G01*
G37*
G36*
G01*
X121191000Y-127196000D02*
X122141000Y-127196000D01*
G75*
G02*
X122391000Y-127446000I0J-250000D01*
G01*
X122391000Y-128121000D01*
G75*
G02*
X122141000Y-128371000I-250000J0D01*
G01*
X121191000Y-128371000D01*
G75*
G02*
X120941000Y-128121000I0J250000D01*
G01*
X120941000Y-127446000D01*
G75*
G02*
X121191000Y-127196000I250000J0D01*
G01*
G37*
G36*
G01*
X121191000Y-125121000D02*
X122141000Y-125121000D01*
G75*
G02*
X122391000Y-125371000I0J-250000D01*
G01*
X122391000Y-126046000D01*
G75*
G02*
X122141000Y-126296000I-250000J0D01*
G01*
X121191000Y-126296000D01*
G75*
G02*
X120941000Y-126046000I0J250000D01*
G01*
X120941000Y-125371000D01*
G75*
G02*
X121191000Y-125121000I250000J0D01*
G01*
G37*
G36*
G01*
X125121000Y-132809000D02*
X125121000Y-131859000D01*
G75*
G02*
X125371000Y-131609000I250000J0D01*
G01*
X126046000Y-131609000D01*
G75*
G02*
X126296000Y-131859000I0J-250000D01*
G01*
X126296000Y-132809000D01*
G75*
G02*
X126046000Y-133059000I-250000J0D01*
G01*
X125371000Y-133059000D01*
G75*
G02*
X125121000Y-132809000I0J250000D01*
G01*
G37*
G36*
G01*
X127196000Y-132809000D02*
X127196000Y-131859000D01*
G75*
G02*
X127446000Y-131609000I250000J0D01*
G01*
X128121000Y-131609000D01*
G75*
G02*
X128371000Y-131859000I0J-250000D01*
G01*
X128371000Y-132809000D01*
G75*
G02*
X128121000Y-133059000I-250000J0D01*
G01*
X127446000Y-133059000D01*
G75*
G02*
X127196000Y-132809000I0J250000D01*
G01*
G37*
G36*
G01*
X137889000Y-124264000D02*
X136939000Y-124264000D01*
G75*
G02*
X136689000Y-124014000I0J250000D01*
G01*
X136689000Y-123339000D01*
G75*
G02*
X136939000Y-123089000I250000J0D01*
G01*
X137889000Y-123089000D01*
G75*
G02*
X138139000Y-123339000I0J-250000D01*
G01*
X138139000Y-124014000D01*
G75*
G02*
X137889000Y-124264000I-250000J0D01*
G01*
G37*
G36*
G01*
X137889000Y-126339000D02*
X136939000Y-126339000D01*
G75*
G02*
X136689000Y-126089000I0J250000D01*
G01*
X136689000Y-125414000D01*
G75*
G02*
X136939000Y-125164000I250000J0D01*
G01*
X137889000Y-125164000D01*
G75*
G02*
X138139000Y-125414000I0J-250000D01*
G01*
X138139000Y-126089000D01*
G75*
G02*
X137889000Y-126339000I-250000J0D01*
G01*
G37*
G36*
G01*
X122860000Y-117036001D02*
X122860000Y-116135999D01*
G75*
G02*
X123109999Y-115886000I249999J0D01*
G01*
X123810001Y-115886000D01*
G75*
G02*
X124060000Y-116135999I0J-249999D01*
G01*
X124060000Y-117036001D01*
G75*
G02*
X123810001Y-117286000I-249999J0D01*
G01*
X123109999Y-117286000D01*
G75*
G02*
X122860000Y-117036001I0J249999D01*
G01*
G37*
G36*
G01*
X124860000Y-117036001D02*
X124860000Y-116135999D01*
G75*
G02*
X125109999Y-115886000I249999J0D01*
G01*
X125810001Y-115886000D01*
G75*
G02*
X126060000Y-116135999I0J-249999D01*
G01*
X126060000Y-117036001D01*
G75*
G02*
X125810001Y-117286000I-249999J0D01*
G01*
X125109999Y-117286000D01*
G75*
G02*
X124860000Y-117036001I0J249999D01*
G01*
G37*
G36*
G01*
X169555000Y-74110001D02*
X169555000Y-73209999D01*
G75*
G02*
X169804999Y-72960000I249999J0D01*
G01*
X170505001Y-72960000D01*
G75*
G02*
X170755000Y-73209999I0J-249999D01*
G01*
X170755000Y-74110001D01*
G75*
G02*
X170505001Y-74360000I-249999J0D01*
G01*
X169804999Y-74360000D01*
G75*
G02*
X169555000Y-74110001I0J249999D01*
G01*
G37*
G36*
G01*
X167555000Y-74110001D02*
X167555000Y-73209999D01*
G75*
G02*
X167804999Y-72960000I249999J0D01*
G01*
X168505001Y-72960000D01*
G75*
G02*
X168755000Y-73209999I0J-249999D01*
G01*
X168755000Y-74110001D01*
G75*
G02*
X168505001Y-74360000I-249999J0D01*
G01*
X167804999Y-74360000D01*
G75*
G02*
X167555000Y-74110001I0J249999D01*
G01*
G37*
G36*
G01*
X191490000Y-73880000D02*
X191490000Y-74830000D01*
G75*
G02*
X191240000Y-75080000I-250000J0D01*
G01*
X190565000Y-75080000D01*
G75*
G02*
X190315000Y-74830000I0J250000D01*
G01*
X190315000Y-73880000D01*
G75*
G02*
X190565000Y-73630000I250000J0D01*
G01*
X191240000Y-73630000D01*
G75*
G02*
X191490000Y-73880000I0J-250000D01*
G01*
G37*
G36*
G01*
X189415000Y-73880000D02*
X189415000Y-74830000D01*
G75*
G02*
X189165000Y-75080000I-250000J0D01*
G01*
X188490000Y-75080000D01*
G75*
G02*
X188240000Y-74830000I0J250000D01*
G01*
X188240000Y-73880000D01*
G75*
G02*
X188490000Y-73630000I250000J0D01*
G01*
X189165000Y-73630000D01*
G75*
G02*
X189415000Y-73880000I0J-250000D01*
G01*
G37*
M02*
