G04 #@! TF.GenerationSoftware,KiCad,Pcbnew,(5.1.12)-1*
G04 #@! TF.CreationDate,2022-01-03T18:36:30+00:00*
G04 #@! TF.ProjectId,A600_68k_PLCC_to_DIP64 _v1,41363030-5f36-4386-9b5f-504c43435f74,B*
G04 #@! TF.SameCoordinates,Original*
G04 #@! TF.FileFunction,Soldermask,Top*
G04 #@! TF.FilePolarity,Negative*
%FSLAX46Y46*%
G04 Gerber Fmt 4.6, Leading zero omitted, Abs format (unit mm)*
G04 Created by KiCad (PCBNEW (5.1.12)-1) date 2022-01-03 18:36:30*
%MOMM*%
%LPD*%
G01*
G04 APERTURE LIST*
%ADD10C,1.422400*%
%ADD11R,1.422400X1.422400*%
%ADD12C,0.700000*%
%ADD13C,4.000000*%
%ADD14C,1.408000*%
%ADD15R,1.408000X1.408000*%
G04 APERTURE END LIST*
D10*
X119380000Y-46990000D03*
X198120000Y-69850000D03*
X121920000Y-46990000D03*
X195580000Y-69850000D03*
X124460000Y-46990000D03*
X193040000Y-69850000D03*
X127000000Y-46990000D03*
X190500000Y-69850000D03*
X129540000Y-46990000D03*
X187960000Y-69850000D03*
X132080000Y-46990000D03*
X185420000Y-69850000D03*
X134620000Y-46990000D03*
X182880000Y-69850000D03*
X137160000Y-46990000D03*
X180340000Y-69850000D03*
X139700000Y-46990000D03*
X177800000Y-69850000D03*
X142240000Y-46990000D03*
X175260000Y-69850000D03*
X144780000Y-46990000D03*
X172720000Y-69850000D03*
X147320000Y-46990000D03*
X170180000Y-69850000D03*
X149860000Y-46990000D03*
X167640000Y-69850000D03*
X152400000Y-46990000D03*
X165100000Y-69850000D03*
X154940000Y-46990000D03*
X162560000Y-69850000D03*
X157480000Y-46990000D03*
X160020000Y-69850000D03*
X160020000Y-46990000D03*
X157480000Y-69850000D03*
X162560000Y-46990000D03*
X154940000Y-69850000D03*
X165100000Y-46990000D03*
X152400000Y-69850000D03*
X167640000Y-46990000D03*
X149860000Y-69850000D03*
X170180000Y-46990000D03*
X147320000Y-69850000D03*
X172720000Y-46990000D03*
X144780000Y-69850000D03*
X175260000Y-46990000D03*
X142240000Y-69850000D03*
X177800000Y-46990000D03*
X139700000Y-69850000D03*
X180340000Y-46990000D03*
X137160000Y-69850000D03*
X182880000Y-46990000D03*
X134620000Y-69850000D03*
X185420000Y-46990000D03*
X132080000Y-69850000D03*
X187960000Y-46990000D03*
X129540000Y-69850000D03*
X190500000Y-46990000D03*
X127000000Y-69850000D03*
X193040000Y-46990000D03*
X124460000Y-69850000D03*
X195580000Y-46990000D03*
X121920000Y-69850000D03*
X198120000Y-46990000D03*
D11*
X119380000Y-69850000D03*
D12*
X203319000Y-45669000D03*
X202880000Y-46730000D03*
X203319000Y-47791000D03*
X204380000Y-48230000D03*
X205441000Y-47791000D03*
X205880000Y-46730000D03*
X205441000Y-45669000D03*
X204380000Y-45230000D03*
D13*
X204380000Y-46730000D03*
X110880000Y-46730000D03*
D12*
X112380000Y-46730000D03*
X111941000Y-47791000D03*
X110880000Y-48230000D03*
X109819000Y-47791000D03*
X109380000Y-46730000D03*
X109819000Y-45669000D03*
X110880000Y-45230000D03*
X111941000Y-45669000D03*
D13*
X110880000Y-120730000D03*
D12*
X112380000Y-120730000D03*
X111941000Y-121791000D03*
X110880000Y-122230000D03*
X109819000Y-121791000D03*
X109380000Y-120730000D03*
X109819000Y-119669000D03*
X110880000Y-119230000D03*
X111941000Y-119669000D03*
D10*
X142240000Y-114300000D03*
X142240000Y-116840000D03*
X142240000Y-119380000D03*
X142240000Y-121920000D03*
X142240000Y-124460000D03*
X142240000Y-127000000D03*
X142240000Y-129540000D03*
X142240000Y-132080000D03*
X139700000Y-111760000D03*
X139700000Y-114300000D03*
X139700000Y-116840000D03*
X139700000Y-119380000D03*
X139700000Y-121920000D03*
X139700000Y-124460000D03*
X139700000Y-127000000D03*
X139700000Y-129540000D03*
X139700000Y-132080000D03*
X139700000Y-137160000D03*
X137160000Y-137160000D03*
X134620000Y-137160000D03*
X132080000Y-137160000D03*
X129540000Y-137160000D03*
X127000000Y-137160000D03*
X124460000Y-137160000D03*
X121920000Y-137160000D03*
X119380000Y-137160000D03*
X142240000Y-134620000D03*
X139700000Y-134620000D03*
X137160000Y-134620000D03*
X134620000Y-134620000D03*
X132080000Y-134620000D03*
X129540000Y-134620000D03*
X127000000Y-134620000D03*
X124460000Y-134620000D03*
X121920000Y-134620000D03*
X116840000Y-134620000D03*
X116840000Y-132080000D03*
X116840000Y-129540000D03*
X116840000Y-127000000D03*
X116840000Y-124460000D03*
X116840000Y-121920000D03*
X116840000Y-119380000D03*
X116840000Y-116840000D03*
X116840000Y-114300000D03*
X119380000Y-134620000D03*
X119380000Y-132080000D03*
X119380000Y-129540000D03*
X119380000Y-127000000D03*
X119380000Y-124460000D03*
X119380000Y-121920000D03*
X119380000Y-119380000D03*
X119380000Y-116840000D03*
X137160000Y-111760000D03*
X134620000Y-111760000D03*
X132080000Y-111760000D03*
X119380000Y-111760000D03*
X121920000Y-111760000D03*
X124460000Y-111760000D03*
X127000000Y-111760000D03*
D11*
X129540000Y-111760000D03*
D10*
X137160000Y-114300000D03*
X134620000Y-114300000D03*
X132080000Y-114300000D03*
X129540000Y-114300000D03*
X119380000Y-114300000D03*
X121920000Y-114300000D03*
X124460000Y-114300000D03*
X127000000Y-114300000D03*
G36*
G01*
X121191000Y-120041000D02*
X122141000Y-120041000D01*
G75*
G02*
X122391000Y-120291000I0J-250000D01*
G01*
X122391000Y-120966000D01*
G75*
G02*
X122141000Y-121216000I-250000J0D01*
G01*
X121191000Y-121216000D01*
G75*
G02*
X120941000Y-120966000I0J250000D01*
G01*
X120941000Y-120291000D01*
G75*
G02*
X121191000Y-120041000I250000J0D01*
G01*
G37*
G36*
G01*
X121191000Y-122116000D02*
X122141000Y-122116000D01*
G75*
G02*
X122391000Y-122366000I0J-250000D01*
G01*
X122391000Y-123041000D01*
G75*
G02*
X122141000Y-123291000I-250000J0D01*
G01*
X121191000Y-123291000D01*
G75*
G02*
X120941000Y-123041000I0J250000D01*
G01*
X120941000Y-122366000D01*
G75*
G02*
X121191000Y-122116000I250000J0D01*
G01*
G37*
G36*
G01*
X121191000Y-127196000D02*
X122141000Y-127196000D01*
G75*
G02*
X122391000Y-127446000I0J-250000D01*
G01*
X122391000Y-128121000D01*
G75*
G02*
X122141000Y-128371000I-250000J0D01*
G01*
X121191000Y-128371000D01*
G75*
G02*
X120941000Y-128121000I0J250000D01*
G01*
X120941000Y-127446000D01*
G75*
G02*
X121191000Y-127196000I250000J0D01*
G01*
G37*
G36*
G01*
X121191000Y-125121000D02*
X122141000Y-125121000D01*
G75*
G02*
X122391000Y-125371000I0J-250000D01*
G01*
X122391000Y-126046000D01*
G75*
G02*
X122141000Y-126296000I-250000J0D01*
G01*
X121191000Y-126296000D01*
G75*
G02*
X120941000Y-126046000I0J250000D01*
G01*
X120941000Y-125371000D01*
G75*
G02*
X121191000Y-125121000I250000J0D01*
G01*
G37*
G36*
G01*
X125121000Y-132809000D02*
X125121000Y-131859000D01*
G75*
G02*
X125371000Y-131609000I250000J0D01*
G01*
X126046000Y-131609000D01*
G75*
G02*
X126296000Y-131859000I0J-250000D01*
G01*
X126296000Y-132809000D01*
G75*
G02*
X126046000Y-133059000I-250000J0D01*
G01*
X125371000Y-133059000D01*
G75*
G02*
X125121000Y-132809000I0J250000D01*
G01*
G37*
G36*
G01*
X127196000Y-132809000D02*
X127196000Y-131859000D01*
G75*
G02*
X127446000Y-131609000I250000J0D01*
G01*
X128121000Y-131609000D01*
G75*
G02*
X128371000Y-131859000I0J-250000D01*
G01*
X128371000Y-132809000D01*
G75*
G02*
X128121000Y-133059000I-250000J0D01*
G01*
X127446000Y-133059000D01*
G75*
G02*
X127196000Y-132809000I0J250000D01*
G01*
G37*
G36*
G01*
X137889000Y-124264000D02*
X136939000Y-124264000D01*
G75*
G02*
X136689000Y-124014000I0J250000D01*
G01*
X136689000Y-123339000D01*
G75*
G02*
X136939000Y-123089000I250000J0D01*
G01*
X137889000Y-123089000D01*
G75*
G02*
X138139000Y-123339000I0J-250000D01*
G01*
X138139000Y-124014000D01*
G75*
G02*
X137889000Y-124264000I-250000J0D01*
G01*
G37*
G36*
G01*
X137889000Y-126339000D02*
X136939000Y-126339000D01*
G75*
G02*
X136689000Y-126089000I0J250000D01*
G01*
X136689000Y-125414000D01*
G75*
G02*
X136939000Y-125164000I250000J0D01*
G01*
X137889000Y-125164000D01*
G75*
G02*
X138139000Y-125414000I0J-250000D01*
G01*
X138139000Y-126089000D01*
G75*
G02*
X137889000Y-126339000I-250000J0D01*
G01*
G37*
G36*
G01*
X122860000Y-117036001D02*
X122860000Y-116135999D01*
G75*
G02*
X123109999Y-115886000I249999J0D01*
G01*
X123810001Y-115886000D01*
G75*
G02*
X124060000Y-116135999I0J-249999D01*
G01*
X124060000Y-117036001D01*
G75*
G02*
X123810001Y-117286000I-249999J0D01*
G01*
X123109999Y-117286000D01*
G75*
G02*
X122860000Y-117036001I0J249999D01*
G01*
G37*
G36*
G01*
X124860000Y-117036001D02*
X124860000Y-116135999D01*
G75*
G02*
X125109999Y-115886000I249999J0D01*
G01*
X125810001Y-115886000D01*
G75*
G02*
X126060000Y-116135999I0J-249999D01*
G01*
X126060000Y-117036001D01*
G75*
G02*
X125810001Y-117286000I-249999J0D01*
G01*
X125109999Y-117286000D01*
G75*
G02*
X124860000Y-117036001I0J249999D01*
G01*
G37*
G36*
G01*
X169555000Y-74110001D02*
X169555000Y-73209999D01*
G75*
G02*
X169804999Y-72960000I249999J0D01*
G01*
X170505001Y-72960000D01*
G75*
G02*
X170755000Y-73209999I0J-249999D01*
G01*
X170755000Y-74110001D01*
G75*
G02*
X170505001Y-74360000I-249999J0D01*
G01*
X169804999Y-74360000D01*
G75*
G02*
X169555000Y-74110001I0J249999D01*
G01*
G37*
G36*
G01*
X167555000Y-74110001D02*
X167555000Y-73209999D01*
G75*
G02*
X167804999Y-72960000I249999J0D01*
G01*
X168505001Y-72960000D01*
G75*
G02*
X168755000Y-73209999I0J-249999D01*
G01*
X168755000Y-74110001D01*
G75*
G02*
X168505001Y-74360000I-249999J0D01*
G01*
X167804999Y-74360000D01*
G75*
G02*
X167555000Y-74110001I0J249999D01*
G01*
G37*
D14*
X194840000Y-81855000D03*
X194840000Y-79355000D03*
X194840000Y-76855000D03*
D15*
X194840000Y-74355000D03*
G36*
G01*
X191490000Y-73880000D02*
X191490000Y-74830000D01*
G75*
G02*
X191240000Y-75080000I-250000J0D01*
G01*
X190565000Y-75080000D01*
G75*
G02*
X190315000Y-74830000I0J250000D01*
G01*
X190315000Y-73880000D01*
G75*
G02*
X190565000Y-73630000I250000J0D01*
G01*
X191240000Y-73630000D01*
G75*
G02*
X191490000Y-73880000I0J-250000D01*
G01*
G37*
G36*
G01*
X189415000Y-73880000D02*
X189415000Y-74830000D01*
G75*
G02*
X189165000Y-75080000I-250000J0D01*
G01*
X188490000Y-75080000D01*
G75*
G02*
X188240000Y-74830000I0J250000D01*
G01*
X188240000Y-73880000D01*
G75*
G02*
X188490000Y-73630000I250000J0D01*
G01*
X189165000Y-73630000D01*
G75*
G02*
X189415000Y-73880000I0J-250000D01*
G01*
G37*
M02*
