G04 #@! TF.GenerationSoftware,KiCad,Pcbnew,(5.1.12)-1*
G04 #@! TF.CreationDate,2022-01-03T18:36:30+00:00*
G04 #@! TF.ProjectId,A600_68k_PLCC_to_DIP64 _v1,41363030-5f36-4386-9b5f-504c43435f74,B*
G04 #@! TF.SameCoordinates,Original*
G04 #@! TF.FileFunction,Legend,Top*
G04 #@! TF.FilePolarity,Positive*
%FSLAX46Y46*%
G04 Gerber Fmt 4.6, Leading zero omitted, Abs format (unit mm)*
G04 Created by KiCad (PCBNEW (5.1.12)-1) date 2022-01-03 18:36:30*
%MOMM*%
%LPD*%
G01*
G04 APERTURE LIST*
%ADD10C,0.150000*%
%ADD11C,0.200000*%
%ADD12C,0.300000*%
%ADD13C,0.120000*%
%ADD14C,0.127000*%
%ADD15C,1.422400*%
%ADD16R,1.422400X1.422400*%
%ADD17C,0.700000*%
%ADD18C,4.000000*%
%ADD19C,1.408000*%
%ADD20R,1.408000X1.408000*%
G04 APERTURE END LIST*
D10*
X190127380Y-82827380D02*
X189127380Y-82827380D01*
X189127380Y-82446428D01*
X189175000Y-82351190D01*
X189222619Y-82303571D01*
X189317857Y-82255952D01*
X189460714Y-82255952D01*
X189555952Y-82303571D01*
X189603571Y-82351190D01*
X189651190Y-82446428D01*
X189651190Y-82827380D01*
X189127380Y-81636904D02*
X189127380Y-81446428D01*
X189175000Y-81351190D01*
X189270238Y-81255952D01*
X189460714Y-81208333D01*
X189794047Y-81208333D01*
X189984523Y-81255952D01*
X190079761Y-81351190D01*
X190127380Y-81446428D01*
X190127380Y-81636904D01*
X190079761Y-81732142D01*
X189984523Y-81827380D01*
X189794047Y-81875000D01*
X189460714Y-81875000D01*
X189270238Y-81827380D01*
X189175000Y-81732142D01*
X189127380Y-81636904D01*
X189127380Y-80875000D02*
X190127380Y-80636904D01*
X189413095Y-80446428D01*
X190127380Y-80255952D01*
X189127380Y-80017857D01*
X189603571Y-79636904D02*
X189603571Y-79303571D01*
X190127380Y-79160714D02*
X190127380Y-79636904D01*
X189127380Y-79636904D01*
X189127380Y-79160714D01*
X190127380Y-78160714D02*
X189651190Y-78494047D01*
X190127380Y-78732142D02*
X189127380Y-78732142D01*
X189127380Y-78351190D01*
X189175000Y-78255952D01*
X189222619Y-78208333D01*
X189317857Y-78160714D01*
X189460714Y-78160714D01*
X189555952Y-78208333D01*
X189603571Y-78255952D01*
X189651190Y-78351190D01*
X189651190Y-78732142D01*
X190127380Y-76970238D02*
X189127380Y-76970238D01*
X190127380Y-76494047D02*
X189127380Y-76494047D01*
X190127380Y-75922619D01*
X189127380Y-75922619D01*
X190777380Y-80827380D02*
X190777380Y-80636904D01*
X190825000Y-80541666D01*
X190920238Y-80446428D01*
X191110714Y-80398809D01*
X191444047Y-80398809D01*
X191634523Y-80446428D01*
X191729761Y-80541666D01*
X191777380Y-80636904D01*
X191777380Y-80827380D01*
X191729761Y-80922619D01*
X191634523Y-81017857D01*
X191444047Y-81065476D01*
X191110714Y-81065476D01*
X190920238Y-81017857D01*
X190825000Y-80922619D01*
X190777380Y-80827380D01*
X191777380Y-79970238D02*
X190777380Y-79970238D01*
X191777380Y-79398809D01*
X190777380Y-79398809D01*
X191777380Y-78446428D02*
X191777380Y-78922619D01*
X190777380Y-78922619D01*
X191301190Y-77922619D02*
X191777380Y-77922619D01*
X190777380Y-78255952D02*
X191301190Y-77922619D01*
X190777380Y-77589285D01*
D11*
X123587619Y-107933333D02*
X123540000Y-107885714D01*
X123444761Y-107742857D01*
X123397142Y-107647619D01*
X123349523Y-107504761D01*
X123301904Y-107266666D01*
X123301904Y-107076190D01*
X123349523Y-106838095D01*
X123397142Y-106695238D01*
X123444761Y-106600000D01*
X123540000Y-106457142D01*
X123587619Y-106409523D01*
X124397142Y-107504761D02*
X124301904Y-107552380D01*
X124111428Y-107552380D01*
X124016190Y-107504761D01*
X123968571Y-107457142D01*
X123920952Y-107361904D01*
X123920952Y-107076190D01*
X123968571Y-106980952D01*
X124016190Y-106933333D01*
X124111428Y-106885714D01*
X124301904Y-106885714D01*
X124397142Y-106933333D01*
X124730476Y-107933333D02*
X124778095Y-107885714D01*
X124873333Y-107742857D01*
X124920952Y-107647619D01*
X124968571Y-107504761D01*
X125016190Y-107266666D01*
X125016190Y-107076190D01*
X124968571Y-106838095D01*
X124920952Y-106695238D01*
X124873333Y-106600000D01*
X124778095Y-106457142D01*
X124730476Y-106409523D01*
X126206666Y-106647619D02*
X126254285Y-106600000D01*
X126349523Y-106552380D01*
X126587619Y-106552380D01*
X126682857Y-106600000D01*
X126730476Y-106647619D01*
X126778095Y-106742857D01*
X126778095Y-106838095D01*
X126730476Y-106980952D01*
X126159047Y-107552380D01*
X126778095Y-107552380D01*
X127397142Y-106552380D02*
X127492380Y-106552380D01*
X127587619Y-106600000D01*
X127635238Y-106647619D01*
X127682857Y-106742857D01*
X127730476Y-106933333D01*
X127730476Y-107171428D01*
X127682857Y-107361904D01*
X127635238Y-107457142D01*
X127587619Y-107504761D01*
X127492380Y-107552380D01*
X127397142Y-107552380D01*
X127301904Y-107504761D01*
X127254285Y-107457142D01*
X127206666Y-107361904D01*
X127159047Y-107171428D01*
X127159047Y-106933333D01*
X127206666Y-106742857D01*
X127254285Y-106647619D01*
X127301904Y-106600000D01*
X127397142Y-106552380D01*
X128111428Y-106647619D02*
X128159047Y-106600000D01*
X128254285Y-106552380D01*
X128492380Y-106552380D01*
X128587619Y-106600000D01*
X128635238Y-106647619D01*
X128682857Y-106742857D01*
X128682857Y-106838095D01*
X128635238Y-106980952D01*
X128063809Y-107552380D01*
X128682857Y-107552380D01*
X129063809Y-106647619D02*
X129111428Y-106600000D01*
X129206666Y-106552380D01*
X129444761Y-106552380D01*
X129540000Y-106600000D01*
X129587619Y-106647619D01*
X129635238Y-106742857D01*
X129635238Y-106838095D01*
X129587619Y-106980952D01*
X129016190Y-107552380D01*
X129635238Y-107552380D01*
X131301904Y-107552380D02*
X130825714Y-107552380D01*
X130825714Y-106552380D01*
X132016190Y-107504761D02*
X131920952Y-107552380D01*
X131730476Y-107552380D01*
X131635238Y-107504761D01*
X131587619Y-107409523D01*
X131587619Y-107028571D01*
X131635238Y-106933333D01*
X131730476Y-106885714D01*
X131920952Y-106885714D01*
X132016190Y-106933333D01*
X132063809Y-107028571D01*
X132063809Y-107123809D01*
X131587619Y-107219047D01*
X132492380Y-107552380D02*
X132492380Y-106885714D01*
X132492380Y-106980952D02*
X132540000Y-106933333D01*
X132635238Y-106885714D01*
X132778095Y-106885714D01*
X132873333Y-106933333D01*
X132920952Y-107028571D01*
X132920952Y-107552380D01*
X132920952Y-107028571D02*
X132968571Y-106933333D01*
X133063809Y-106885714D01*
X133206666Y-106885714D01*
X133301904Y-106933333D01*
X133349523Y-107028571D01*
X133349523Y-107552380D01*
X134254285Y-107552380D02*
X134254285Y-107028571D01*
X134206666Y-106933333D01*
X134111428Y-106885714D01*
X133920952Y-106885714D01*
X133825714Y-106933333D01*
X134254285Y-107504761D02*
X134159047Y-107552380D01*
X133920952Y-107552380D01*
X133825714Y-107504761D01*
X133778095Y-107409523D01*
X133778095Y-107314285D01*
X133825714Y-107219047D01*
X133920952Y-107171428D01*
X134159047Y-107171428D01*
X134254285Y-107123809D01*
X134730476Y-107552380D02*
X134730476Y-106885714D01*
X134730476Y-107076190D02*
X134778095Y-106980952D01*
X134825714Y-106933333D01*
X134920952Y-106885714D01*
X135016190Y-106885714D01*
X135778095Y-106885714D02*
X135778095Y-107552380D01*
X135349523Y-106885714D02*
X135349523Y-107409523D01*
X135397142Y-107504761D01*
X135492380Y-107552380D01*
X135635238Y-107552380D01*
X135730476Y-107504761D01*
X135778095Y-107457142D01*
X110920952Y-108585714D02*
X110920952Y-109395238D01*
X110873333Y-109490476D01*
X110825714Y-109538095D01*
X110730476Y-109585714D01*
X110587619Y-109585714D01*
X110492380Y-109538095D01*
X110920952Y-109204761D02*
X110825714Y-109252380D01*
X110635238Y-109252380D01*
X110540000Y-109204761D01*
X110492380Y-109157142D01*
X110444761Y-109061904D01*
X110444761Y-108776190D01*
X110492380Y-108680952D01*
X110540000Y-108633333D01*
X110635238Y-108585714D01*
X110825714Y-108585714D01*
X110920952Y-108633333D01*
X111397142Y-109252380D02*
X111397142Y-108585714D01*
X111397142Y-108252380D02*
X111349523Y-108300000D01*
X111397142Y-108347619D01*
X111444761Y-108300000D01*
X111397142Y-108252380D01*
X111397142Y-108347619D01*
X111730476Y-108585714D02*
X112111428Y-108585714D01*
X111873333Y-108252380D02*
X111873333Y-109109523D01*
X111920952Y-109204761D01*
X112016190Y-109252380D01*
X112111428Y-109252380D01*
X112444761Y-109252380D02*
X112444761Y-108252380D01*
X112873333Y-109252380D02*
X112873333Y-108728571D01*
X112825714Y-108633333D01*
X112730476Y-108585714D01*
X112587619Y-108585714D01*
X112492380Y-108633333D01*
X112444761Y-108680952D01*
X113778095Y-108585714D02*
X113778095Y-109252380D01*
X113349523Y-108585714D02*
X113349523Y-109109523D01*
X113397142Y-109204761D01*
X113492380Y-109252380D01*
X113635238Y-109252380D01*
X113730476Y-109204761D01*
X113778095Y-109157142D01*
X114254285Y-109252380D02*
X114254285Y-108252380D01*
X114254285Y-108633333D02*
X114349523Y-108585714D01*
X114540000Y-108585714D01*
X114635238Y-108633333D01*
X114682857Y-108680952D01*
X114730476Y-108776190D01*
X114730476Y-109061904D01*
X114682857Y-109157142D01*
X114635238Y-109204761D01*
X114540000Y-109252380D01*
X114349523Y-109252380D01*
X114254285Y-109204761D01*
X115159047Y-109157142D02*
X115206666Y-109204761D01*
X115159047Y-109252380D01*
X115111428Y-109204761D01*
X115159047Y-109157142D01*
X115159047Y-109252380D01*
X116063809Y-109204761D02*
X115968571Y-109252380D01*
X115778095Y-109252380D01*
X115682857Y-109204761D01*
X115635238Y-109157142D01*
X115587619Y-109061904D01*
X115587619Y-108776190D01*
X115635238Y-108680952D01*
X115682857Y-108633333D01*
X115778095Y-108585714D01*
X115968571Y-108585714D01*
X116063809Y-108633333D01*
X116635238Y-109252380D02*
X116540000Y-109204761D01*
X116492380Y-109157142D01*
X116444761Y-109061904D01*
X116444761Y-108776190D01*
X116492380Y-108680952D01*
X116540000Y-108633333D01*
X116635238Y-108585714D01*
X116778095Y-108585714D01*
X116873333Y-108633333D01*
X116920952Y-108680952D01*
X116968571Y-108776190D01*
X116968571Y-109061904D01*
X116920952Y-109157142D01*
X116873333Y-109204761D01*
X116778095Y-109252380D01*
X116635238Y-109252380D01*
X117397142Y-109252380D02*
X117397142Y-108585714D01*
X117397142Y-108680952D02*
X117444761Y-108633333D01*
X117540000Y-108585714D01*
X117682857Y-108585714D01*
X117778095Y-108633333D01*
X117825714Y-108728571D01*
X117825714Y-109252380D01*
X117825714Y-108728571D02*
X117873333Y-108633333D01*
X117968571Y-108585714D01*
X118111428Y-108585714D01*
X118206666Y-108633333D01*
X118254285Y-108728571D01*
X118254285Y-109252380D01*
X119444761Y-108204761D02*
X118587619Y-109490476D01*
X120254285Y-109252380D02*
X119778095Y-109252380D01*
X119778095Y-108252380D01*
X120968571Y-109204761D02*
X120873333Y-109252380D01*
X120682857Y-109252380D01*
X120587619Y-109204761D01*
X120540000Y-109109523D01*
X120540000Y-108728571D01*
X120587619Y-108633333D01*
X120682857Y-108585714D01*
X120873333Y-108585714D01*
X120968571Y-108633333D01*
X121016190Y-108728571D01*
X121016190Y-108823809D01*
X120540000Y-108919047D01*
X121444761Y-109252380D02*
X121444761Y-108585714D01*
X121444761Y-108680952D02*
X121492380Y-108633333D01*
X121587619Y-108585714D01*
X121730476Y-108585714D01*
X121825714Y-108633333D01*
X121873333Y-108728571D01*
X121873333Y-109252380D01*
X121873333Y-108728571D02*
X121920952Y-108633333D01*
X122016190Y-108585714D01*
X122159047Y-108585714D01*
X122254285Y-108633333D01*
X122301904Y-108728571D01*
X122301904Y-109252380D01*
X123206666Y-109252380D02*
X123206666Y-108728571D01*
X123159047Y-108633333D01*
X123063809Y-108585714D01*
X122873333Y-108585714D01*
X122778095Y-108633333D01*
X123206666Y-109204761D02*
X123111428Y-109252380D01*
X122873333Y-109252380D01*
X122778095Y-109204761D01*
X122730476Y-109109523D01*
X122730476Y-109014285D01*
X122778095Y-108919047D01*
X122873333Y-108871428D01*
X123111428Y-108871428D01*
X123206666Y-108823809D01*
X123682857Y-109252380D02*
X123682857Y-108585714D01*
X123682857Y-108776190D02*
X123730476Y-108680952D01*
X123778095Y-108633333D01*
X123873333Y-108585714D01*
X123968571Y-108585714D01*
X124730476Y-108585714D02*
X124730476Y-109252380D01*
X124301904Y-108585714D02*
X124301904Y-109109523D01*
X124349523Y-109204761D01*
X124444761Y-109252380D01*
X124587619Y-109252380D01*
X124682857Y-109204761D01*
X124730476Y-109157142D01*
X125111428Y-108252380D02*
X125778095Y-109252380D01*
X125778095Y-108252380D02*
X125111428Y-109252380D01*
X126873333Y-108204761D02*
X126016190Y-109490476D01*
X127159047Y-108966666D02*
X127635238Y-108966666D01*
X127063809Y-109252380D02*
X127397142Y-108252380D01*
X127730476Y-109252380D01*
X128063809Y-109252380D02*
X128063809Y-108585714D01*
X128063809Y-108680952D02*
X128111428Y-108633333D01*
X128206666Y-108585714D01*
X128349523Y-108585714D01*
X128444761Y-108633333D01*
X128492380Y-108728571D01*
X128492380Y-109252380D01*
X128492380Y-108728571D02*
X128540000Y-108633333D01*
X128635238Y-108585714D01*
X128778095Y-108585714D01*
X128873333Y-108633333D01*
X128920952Y-108728571D01*
X128920952Y-109252380D01*
X129397142Y-109252380D02*
X129397142Y-108585714D01*
X129397142Y-108252380D02*
X129349523Y-108300000D01*
X129397142Y-108347619D01*
X129444761Y-108300000D01*
X129397142Y-108252380D01*
X129397142Y-108347619D01*
X130301904Y-108585714D02*
X130301904Y-109395238D01*
X130254285Y-109490476D01*
X130206666Y-109538095D01*
X130111428Y-109585714D01*
X129968571Y-109585714D01*
X129873333Y-109538095D01*
X130301904Y-109204761D02*
X130206666Y-109252380D01*
X130016190Y-109252380D01*
X129920952Y-109204761D01*
X129873333Y-109157142D01*
X129825714Y-109061904D01*
X129825714Y-108776190D01*
X129873333Y-108680952D01*
X129920952Y-108633333D01*
X130016190Y-108585714D01*
X130206666Y-108585714D01*
X130301904Y-108633333D01*
X131206666Y-109252380D02*
X131206666Y-108728571D01*
X131159047Y-108633333D01*
X131063809Y-108585714D01*
X130873333Y-108585714D01*
X130778095Y-108633333D01*
X131206666Y-109204761D02*
X131111428Y-109252380D01*
X130873333Y-109252380D01*
X130778095Y-109204761D01*
X130730476Y-109109523D01*
X130730476Y-109014285D01*
X130778095Y-108919047D01*
X130873333Y-108871428D01*
X131111428Y-108871428D01*
X131206666Y-108823809D01*
X131682857Y-108871428D02*
X132444761Y-108871428D01*
X132873333Y-108966666D02*
X133349523Y-108966666D01*
X132778095Y-109252380D02*
X133111428Y-108252380D01*
X133444761Y-109252380D01*
X134206666Y-108252380D02*
X134016190Y-108252380D01*
X133920952Y-108300000D01*
X133873333Y-108347619D01*
X133778095Y-108490476D01*
X133730476Y-108680952D01*
X133730476Y-109061904D01*
X133778095Y-109157142D01*
X133825714Y-109204761D01*
X133920952Y-109252380D01*
X134111428Y-109252380D01*
X134206666Y-109204761D01*
X134254285Y-109157142D01*
X134301904Y-109061904D01*
X134301904Y-108823809D01*
X134254285Y-108728571D01*
X134206666Y-108680952D01*
X134111428Y-108633333D01*
X133920952Y-108633333D01*
X133825714Y-108680952D01*
X133778095Y-108728571D01*
X133730476Y-108823809D01*
X134920952Y-108252380D02*
X135016190Y-108252380D01*
X135111428Y-108300000D01*
X135159047Y-108347619D01*
X135206666Y-108442857D01*
X135254285Y-108633333D01*
X135254285Y-108871428D01*
X135206666Y-109061904D01*
X135159047Y-109157142D01*
X135111428Y-109204761D01*
X135016190Y-109252380D01*
X134920952Y-109252380D01*
X134825714Y-109204761D01*
X134778095Y-109157142D01*
X134730476Y-109061904D01*
X134682857Y-108871428D01*
X134682857Y-108633333D01*
X134730476Y-108442857D01*
X134778095Y-108347619D01*
X134825714Y-108300000D01*
X134920952Y-108252380D01*
X135873333Y-108252380D02*
X135968571Y-108252380D01*
X136063809Y-108300000D01*
X136111428Y-108347619D01*
X136159047Y-108442857D01*
X136206666Y-108633333D01*
X136206666Y-108871428D01*
X136159047Y-109061904D01*
X136111428Y-109157142D01*
X136063809Y-109204761D01*
X135968571Y-109252380D01*
X135873333Y-109252380D01*
X135778095Y-109204761D01*
X135730476Y-109157142D01*
X135682857Y-109061904D01*
X135635238Y-108871428D01*
X135635238Y-108633333D01*
X135682857Y-108442857D01*
X135730476Y-108347619D01*
X135778095Y-108300000D01*
X135873333Y-108252380D01*
X136635238Y-108871428D02*
X137397142Y-108871428D01*
X138301904Y-108252380D02*
X138111428Y-108252380D01*
X138016190Y-108300000D01*
X137968571Y-108347619D01*
X137873333Y-108490476D01*
X137825714Y-108680952D01*
X137825714Y-109061904D01*
X137873333Y-109157142D01*
X137920952Y-109204761D01*
X138016190Y-109252380D01*
X138206666Y-109252380D01*
X138301904Y-109204761D01*
X138349523Y-109157142D01*
X138397142Y-109061904D01*
X138397142Y-108823809D01*
X138349523Y-108728571D01*
X138301904Y-108680952D01*
X138206666Y-108633333D01*
X138016190Y-108633333D01*
X137920952Y-108680952D01*
X137873333Y-108728571D01*
X137825714Y-108823809D01*
X138968571Y-108680952D02*
X138873333Y-108633333D01*
X138825714Y-108585714D01*
X138778095Y-108490476D01*
X138778095Y-108442857D01*
X138825714Y-108347619D01*
X138873333Y-108300000D01*
X138968571Y-108252380D01*
X139159047Y-108252380D01*
X139254285Y-108300000D01*
X139301904Y-108347619D01*
X139349523Y-108442857D01*
X139349523Y-108490476D01*
X139301904Y-108585714D01*
X139254285Y-108633333D01*
X139159047Y-108680952D01*
X138968571Y-108680952D01*
X138873333Y-108728571D01*
X138825714Y-108776190D01*
X138778095Y-108871428D01*
X138778095Y-109061904D01*
X138825714Y-109157142D01*
X138873333Y-109204761D01*
X138968571Y-109252380D01*
X139159047Y-109252380D01*
X139254285Y-109204761D01*
X139301904Y-109157142D01*
X139349523Y-109061904D01*
X139349523Y-108871428D01*
X139301904Y-108776190D01*
X139254285Y-108728571D01*
X139159047Y-108680952D01*
X139778095Y-109252380D02*
X139778095Y-108252380D01*
X139873333Y-108871428D02*
X140159047Y-109252380D01*
X140159047Y-108585714D02*
X139778095Y-108966666D01*
X140587619Y-108871428D02*
X141349523Y-108871428D01*
X141825714Y-109252380D02*
X141825714Y-108252380D01*
X142206666Y-108252380D01*
X142301904Y-108300000D01*
X142349523Y-108347619D01*
X142397142Y-108442857D01*
X142397142Y-108585714D01*
X142349523Y-108680952D01*
X142301904Y-108728571D01*
X142206666Y-108776190D01*
X141825714Y-108776190D01*
X143301904Y-109252380D02*
X142825714Y-109252380D01*
X142825714Y-108252380D01*
X144206666Y-109157142D02*
X144159047Y-109204761D01*
X144016190Y-109252380D01*
X143920952Y-109252380D01*
X143778095Y-109204761D01*
X143682857Y-109109523D01*
X143635238Y-109014285D01*
X143587619Y-108823809D01*
X143587619Y-108680952D01*
X143635238Y-108490476D01*
X143682857Y-108395238D01*
X143778095Y-108300000D01*
X143920952Y-108252380D01*
X144016190Y-108252380D01*
X144159047Y-108300000D01*
X144206666Y-108347619D01*
X145206666Y-109157142D02*
X145159047Y-109204761D01*
X145016190Y-109252380D01*
X144920952Y-109252380D01*
X144778095Y-109204761D01*
X144682857Y-109109523D01*
X144635238Y-109014285D01*
X144587619Y-108823809D01*
X144587619Y-108680952D01*
X144635238Y-108490476D01*
X144682857Y-108395238D01*
X144778095Y-108300000D01*
X144920952Y-108252380D01*
X145016190Y-108252380D01*
X145159047Y-108300000D01*
X145206666Y-108347619D01*
X145587619Y-108347619D02*
X145635238Y-108300000D01*
X145730476Y-108252380D01*
X145968571Y-108252380D01*
X146063809Y-108300000D01*
X146111428Y-108347619D01*
X146159047Y-108442857D01*
X146159047Y-108538095D01*
X146111428Y-108680952D01*
X145540000Y-109252380D01*
X146159047Y-109252380D01*
X146587619Y-109252380D02*
X146587619Y-108252380D01*
X146825714Y-108252380D01*
X146968571Y-108300000D01*
X147063809Y-108395238D01*
X147111428Y-108490476D01*
X147159047Y-108680952D01*
X147159047Y-108823809D01*
X147111428Y-109014285D01*
X147063809Y-109109523D01*
X146968571Y-109204761D01*
X146825714Y-109252380D01*
X146587619Y-109252380D01*
X147587619Y-109252380D02*
X147587619Y-108252380D01*
X148063809Y-109252380D02*
X148063809Y-108252380D01*
X148444761Y-108252380D01*
X148540000Y-108300000D01*
X148587619Y-108347619D01*
X148635238Y-108442857D01*
X148635238Y-108585714D01*
X148587619Y-108680952D01*
X148540000Y-108728571D01*
X148444761Y-108776190D01*
X148063809Y-108776190D01*
D12*
X114611428Y-104390000D02*
X115325714Y-104390000D01*
X114468571Y-104818571D02*
X114968571Y-103318571D01*
X115468571Y-104818571D01*
X115968571Y-104818571D02*
X115968571Y-103318571D01*
X116468571Y-104390000D01*
X116968571Y-103318571D01*
X116968571Y-104818571D01*
X117682857Y-104818571D02*
X117682857Y-103318571D01*
X119182857Y-103390000D02*
X119040000Y-103318571D01*
X118825714Y-103318571D01*
X118611428Y-103390000D01*
X118468571Y-103532857D01*
X118397142Y-103675714D01*
X118325714Y-103961428D01*
X118325714Y-104175714D01*
X118397142Y-104461428D01*
X118468571Y-104604285D01*
X118611428Y-104747142D01*
X118825714Y-104818571D01*
X118968571Y-104818571D01*
X119182857Y-104747142D01*
X119254285Y-104675714D01*
X119254285Y-104175714D01*
X118968571Y-104175714D01*
X119825714Y-104390000D02*
X120540000Y-104390000D01*
X119682857Y-104818571D02*
X120182857Y-103318571D01*
X120682857Y-104818571D01*
X122254285Y-104390000D02*
X122968571Y-104390000D01*
X122111428Y-104818571D02*
X122611428Y-103318571D01*
X123111428Y-104818571D01*
X124254285Y-103318571D02*
X123968571Y-103318571D01*
X123825714Y-103390000D01*
X123754285Y-103461428D01*
X123611428Y-103675714D01*
X123540000Y-103961428D01*
X123540000Y-104532857D01*
X123611428Y-104675714D01*
X123682857Y-104747142D01*
X123825714Y-104818571D01*
X124111428Y-104818571D01*
X124254285Y-104747142D01*
X124325714Y-104675714D01*
X124397142Y-104532857D01*
X124397142Y-104175714D01*
X124325714Y-104032857D01*
X124254285Y-103961428D01*
X124111428Y-103890000D01*
X123825714Y-103890000D01*
X123682857Y-103961428D01*
X123611428Y-104032857D01*
X123540000Y-104175714D01*
X125325714Y-103318571D02*
X125468571Y-103318571D01*
X125611428Y-103390000D01*
X125682857Y-103461428D01*
X125754285Y-103604285D01*
X125825714Y-103890000D01*
X125825714Y-104247142D01*
X125754285Y-104532857D01*
X125682857Y-104675714D01*
X125611428Y-104747142D01*
X125468571Y-104818571D01*
X125325714Y-104818571D01*
X125182857Y-104747142D01*
X125111428Y-104675714D01*
X125040000Y-104532857D01*
X124968571Y-104247142D01*
X124968571Y-103890000D01*
X125040000Y-103604285D01*
X125111428Y-103461428D01*
X125182857Y-103390000D01*
X125325714Y-103318571D01*
X126754285Y-103318571D02*
X126897142Y-103318571D01*
X127040000Y-103390000D01*
X127111428Y-103461428D01*
X127182857Y-103604285D01*
X127254285Y-103890000D01*
X127254285Y-104247142D01*
X127182857Y-104532857D01*
X127111428Y-104675714D01*
X127040000Y-104747142D01*
X126897142Y-104818571D01*
X126754285Y-104818571D01*
X126611428Y-104747142D01*
X126540000Y-104675714D01*
X126468571Y-104532857D01*
X126397142Y-104247142D01*
X126397142Y-103890000D01*
X126468571Y-103604285D01*
X126540000Y-103461428D01*
X126611428Y-103390000D01*
X126754285Y-103318571D01*
X129682857Y-103318571D02*
X129397142Y-103318571D01*
X129254285Y-103390000D01*
X129182857Y-103461428D01*
X129040000Y-103675714D01*
X128968571Y-103961428D01*
X128968571Y-104532857D01*
X129040000Y-104675714D01*
X129111428Y-104747142D01*
X129254285Y-104818571D01*
X129540000Y-104818571D01*
X129682857Y-104747142D01*
X129754285Y-104675714D01*
X129825714Y-104532857D01*
X129825714Y-104175714D01*
X129754285Y-104032857D01*
X129682857Y-103961428D01*
X129540000Y-103890000D01*
X129254285Y-103890000D01*
X129111428Y-103961428D01*
X129040000Y-104032857D01*
X128968571Y-104175714D01*
X130682857Y-103961428D02*
X130540000Y-103890000D01*
X130468571Y-103818571D01*
X130397142Y-103675714D01*
X130397142Y-103604285D01*
X130468571Y-103461428D01*
X130540000Y-103390000D01*
X130682857Y-103318571D01*
X130968571Y-103318571D01*
X131111428Y-103390000D01*
X131182857Y-103461428D01*
X131254285Y-103604285D01*
X131254285Y-103675714D01*
X131182857Y-103818571D01*
X131111428Y-103890000D01*
X130968571Y-103961428D01*
X130682857Y-103961428D01*
X130540000Y-104032857D01*
X130468571Y-104104285D01*
X130397142Y-104247142D01*
X130397142Y-104532857D01*
X130468571Y-104675714D01*
X130540000Y-104747142D01*
X130682857Y-104818571D01*
X130968571Y-104818571D01*
X131111428Y-104747142D01*
X131182857Y-104675714D01*
X131254285Y-104532857D01*
X131254285Y-104247142D01*
X131182857Y-104104285D01*
X131111428Y-104032857D01*
X130968571Y-103961428D01*
X131897142Y-104818571D02*
X131897142Y-103318571D01*
X132040000Y-104247142D02*
X132468571Y-104818571D01*
X132468571Y-103818571D02*
X131897142Y-104390000D01*
X134254285Y-104818571D02*
X134254285Y-103318571D01*
X134825714Y-103318571D01*
X134968571Y-103390000D01*
X135040000Y-103461428D01*
X135111428Y-103604285D01*
X135111428Y-103818571D01*
X135040000Y-103961428D01*
X134968571Y-104032857D01*
X134825714Y-104104285D01*
X134254285Y-104104285D01*
X136468571Y-104818571D02*
X135754285Y-104818571D01*
X135754285Y-103318571D01*
X137825714Y-104675714D02*
X137754285Y-104747142D01*
X137540000Y-104818571D01*
X137397142Y-104818571D01*
X137182857Y-104747142D01*
X137040000Y-104604285D01*
X136968571Y-104461428D01*
X136897142Y-104175714D01*
X136897142Y-103961428D01*
X136968571Y-103675714D01*
X137040000Y-103532857D01*
X137182857Y-103390000D01*
X137397142Y-103318571D01*
X137540000Y-103318571D01*
X137754285Y-103390000D01*
X137825714Y-103461428D01*
X139325714Y-104675714D02*
X139254285Y-104747142D01*
X139040000Y-104818571D01*
X138897142Y-104818571D01*
X138682857Y-104747142D01*
X138540000Y-104604285D01*
X138468571Y-104461428D01*
X138397142Y-104175714D01*
X138397142Y-103961428D01*
X138468571Y-103675714D01*
X138540000Y-103532857D01*
X138682857Y-103390000D01*
X138897142Y-103318571D01*
X139040000Y-103318571D01*
X139254285Y-103390000D01*
X139325714Y-103461428D01*
X139897142Y-103461428D02*
X139968571Y-103390000D01*
X140111428Y-103318571D01*
X140468571Y-103318571D01*
X140611428Y-103390000D01*
X140682857Y-103461428D01*
X140754285Y-103604285D01*
X140754285Y-103747142D01*
X140682857Y-103961428D01*
X139825714Y-104818571D01*
X140754285Y-104818571D01*
X141397142Y-104818571D02*
X141397142Y-103318571D01*
X141754285Y-103318571D01*
X141968571Y-103390000D01*
X142111428Y-103532857D01*
X142182857Y-103675714D01*
X142254285Y-103961428D01*
X142254285Y-104175714D01*
X142182857Y-104461428D01*
X142111428Y-104604285D01*
X141968571Y-104747142D01*
X141754285Y-104818571D01*
X141397142Y-104818571D01*
X142897142Y-104818571D02*
X142897142Y-103318571D01*
X143611428Y-104818571D02*
X143611428Y-103318571D01*
X144182857Y-103318571D01*
X144325714Y-103390000D01*
X144397142Y-103461428D01*
X144468571Y-103604285D01*
X144468571Y-103818571D01*
X144397142Y-103961428D01*
X144325714Y-104032857D01*
X144182857Y-104104285D01*
X143611428Y-104104285D01*
D13*
X117990000Y-59420000D02*
X117990000Y-71240000D01*
X117990000Y-68410000D02*
X199510000Y-68410000D01*
X199510000Y-68410000D02*
X199510000Y-48430000D01*
X199510000Y-48430000D02*
X117990000Y-48430000D01*
X117990000Y-45600000D02*
X117990000Y-57420000D01*
X117990000Y-71240000D02*
X199510000Y-71240000D01*
X199510000Y-71240000D02*
X199510000Y-45600000D01*
X199510000Y-45600000D02*
X117990000Y-45600000D01*
X117990000Y-57420000D02*
G75*
G02*
X117990000Y-59420000I0J-1000000D01*
G01*
D10*
X137160000Y-112649000D02*
X136906000Y-112903000D01*
X137160000Y-113411000D02*
X137160000Y-112649000D01*
X137414000Y-112903000D02*
X137160000Y-112649000D01*
X141097000Y-132334000D02*
X141351000Y-132080000D01*
X141351000Y-132080000D02*
X141097000Y-131826000D01*
X140589000Y-132080000D02*
X141351000Y-132080000D01*
X138303000Y-113538000D02*
X137922000Y-113538000D01*
X138938000Y-112522000D02*
X137922000Y-113538000D01*
X137922000Y-113538000D02*
X137922000Y-113157000D01*
X140843000Y-132842000D02*
X140462000Y-132842000D01*
X140462000Y-132842000D02*
X140462000Y-133223000D01*
X141478000Y-133858000D02*
X140462000Y-132842000D01*
X121158000Y-135890000D02*
X121158000Y-135509000D01*
X121158000Y-135509000D02*
X120777000Y-135509000D01*
X120142000Y-136525000D02*
X121158000Y-135509000D01*
X117983000Y-116586000D02*
X117729000Y-116840000D01*
X117729000Y-116840000D02*
X117983000Y-117094000D01*
X118491000Y-116840000D02*
X117729000Y-116840000D01*
X118110000Y-116078000D02*
X118491000Y-116078000D01*
X118491000Y-116078000D02*
X118491000Y-115697000D01*
X117602000Y-115189000D02*
X118491000Y-116078000D01*
X127254000Y-112903000D02*
X127000000Y-112649000D01*
X127000000Y-112649000D02*
X126746000Y-112903000D01*
X127000000Y-113411000D02*
X127000000Y-112649000D01*
X128143000Y-113665000D02*
X127762000Y-113665000D01*
X127762000Y-113665000D02*
X127762000Y-113284000D01*
X128651000Y-112776000D02*
X127762000Y-113665000D01*
X122174000Y-136017000D02*
X121920000Y-136271000D01*
X121920000Y-136271000D02*
X121666000Y-136017000D01*
X121920000Y-135509000D02*
X121920000Y-136144000D01*
X117755810Y-114300000D02*
G75*
G03*
X117755810Y-114300000I-915810J0D01*
G01*
X117755810Y-127000000D02*
G75*
G03*
X117755810Y-127000000I-915810J0D01*
G01*
X125375810Y-134620000D02*
G75*
G03*
X125375810Y-134620000I-915810J0D01*
G01*
X138075810Y-134620000D02*
G75*
G03*
X138075810Y-134620000I-915810J0D01*
G01*
X143155810Y-127000000D02*
G75*
G03*
X143155810Y-127000000I-915810J0D01*
G01*
X143155810Y-114300000D02*
G75*
G03*
X143155810Y-114300000I-915810J0D01*
G01*
D13*
X122401000Y-121404748D02*
X122401000Y-121927252D01*
X120931000Y-121404748D02*
X120931000Y-121927252D01*
X120931000Y-126484748D02*
X120931000Y-127007252D01*
X122401000Y-126484748D02*
X122401000Y-127007252D01*
X126484748Y-131599000D02*
X127007252Y-131599000D01*
X126484748Y-133069000D02*
X127007252Y-133069000D01*
X138149000Y-124975252D02*
X138149000Y-124452748D01*
X136679000Y-124975252D02*
X136679000Y-124452748D01*
X124232936Y-115851000D02*
X124687064Y-115851000D01*
X124232936Y-117321000D02*
X124687064Y-117321000D01*
X168927936Y-74395000D02*
X169382064Y-74395000D01*
X168927936Y-72925000D02*
X169382064Y-72925000D01*
D14*
X197240000Y-73105000D02*
X197240000Y-83105000D01*
X198640000Y-73105000D02*
X198640000Y-83105000D01*
D11*
X194490000Y-72305000D02*
G75*
G03*
X194490000Y-72305000I-100000J0D01*
G01*
D14*
X197240000Y-73105000D02*
X192640000Y-73105000D01*
X198640000Y-73105000D02*
X197240000Y-73105000D01*
X206140000Y-73105000D02*
X198640000Y-73105000D01*
X206140000Y-83105000D02*
X206140000Y-73105000D01*
X198640000Y-83105000D02*
X206140000Y-83105000D01*
X197240000Y-83105000D02*
X198640000Y-83105000D01*
X192640000Y-83105000D02*
X197240000Y-83105000D01*
X192640000Y-73105000D02*
X192640000Y-83105000D01*
D13*
X190126252Y-73620000D02*
X189603748Y-73620000D01*
X190126252Y-75090000D02*
X189603748Y-75090000D01*
D10*
X122023142Y-118784666D02*
X122070761Y-118832285D01*
X122118380Y-118975142D01*
X122118380Y-119070380D01*
X122070761Y-119213238D01*
X121975523Y-119308476D01*
X121880285Y-119356095D01*
X121689809Y-119403714D01*
X121546952Y-119403714D01*
X121356476Y-119356095D01*
X121261238Y-119308476D01*
X121166000Y-119213238D01*
X121118380Y-119070380D01*
X121118380Y-118975142D01*
X121166000Y-118832285D01*
X121213619Y-118784666D01*
X122118380Y-117832285D02*
X122118380Y-118403714D01*
X122118380Y-118118000D02*
X121118380Y-118118000D01*
X121261238Y-118213238D01*
X121356476Y-118308476D01*
X121404095Y-118403714D01*
X122023142Y-129960666D02*
X122070761Y-130008285D01*
X122118380Y-130151142D01*
X122118380Y-130246380D01*
X122070761Y-130389238D01*
X121975523Y-130484476D01*
X121880285Y-130532095D01*
X121689809Y-130579714D01*
X121546952Y-130579714D01*
X121356476Y-130532095D01*
X121261238Y-130484476D01*
X121166000Y-130389238D01*
X121118380Y-130246380D01*
X121118380Y-130151142D01*
X121166000Y-130008285D01*
X121213619Y-129960666D01*
X121213619Y-129579714D02*
X121166000Y-129532095D01*
X121118380Y-129436857D01*
X121118380Y-129198761D01*
X121166000Y-129103523D01*
X121213619Y-129055904D01*
X121308857Y-129008285D01*
X121404095Y-129008285D01*
X121546952Y-129055904D01*
X122118380Y-129627333D01*
X122118380Y-129008285D01*
X123531333Y-132691142D02*
X123483714Y-132738761D01*
X123340857Y-132786380D01*
X123245619Y-132786380D01*
X123102761Y-132738761D01*
X123007523Y-132643523D01*
X122959904Y-132548285D01*
X122912285Y-132357809D01*
X122912285Y-132214952D01*
X122959904Y-132024476D01*
X123007523Y-131929238D01*
X123102761Y-131834000D01*
X123245619Y-131786380D01*
X123340857Y-131786380D01*
X123483714Y-131834000D01*
X123531333Y-131881619D01*
X123864666Y-131786380D02*
X124483714Y-131786380D01*
X124150380Y-132167333D01*
X124293238Y-132167333D01*
X124388476Y-132214952D01*
X124436095Y-132262571D01*
X124483714Y-132357809D01*
X124483714Y-132595904D01*
X124436095Y-132691142D01*
X124388476Y-132738761D01*
X124293238Y-132786380D01*
X124007523Y-132786380D01*
X123912285Y-132738761D01*
X123864666Y-132691142D01*
X136091142Y-124880666D02*
X136138761Y-124928285D01*
X136186380Y-125071142D01*
X136186380Y-125166380D01*
X136138761Y-125309238D01*
X136043523Y-125404476D01*
X135948285Y-125452095D01*
X135757809Y-125499714D01*
X135614952Y-125499714D01*
X135424476Y-125452095D01*
X135329238Y-125404476D01*
X135234000Y-125309238D01*
X135186380Y-125166380D01*
X135186380Y-125071142D01*
X135234000Y-124928285D01*
X135281619Y-124880666D01*
X135519714Y-124023523D02*
X136186380Y-124023523D01*
X135138761Y-124261619D02*
X135853047Y-124499714D01*
X135853047Y-123880666D01*
X127341333Y-117038380D02*
X127008000Y-116562190D01*
X126769904Y-117038380D02*
X126769904Y-116038380D01*
X127150857Y-116038380D01*
X127246095Y-116086000D01*
X127293714Y-116133619D01*
X127341333Y-116228857D01*
X127341333Y-116371714D01*
X127293714Y-116466952D01*
X127246095Y-116514571D01*
X127150857Y-116562190D01*
X126769904Y-116562190D01*
X128293714Y-117038380D02*
X127722285Y-117038380D01*
X128008000Y-117038380D02*
X128008000Y-116038380D01*
X127912761Y-116181238D01*
X127817523Y-116276476D01*
X127722285Y-116324095D01*
X166076333Y-74112380D02*
X165743000Y-73636190D01*
X165504904Y-74112380D02*
X165504904Y-73112380D01*
X165885857Y-73112380D01*
X165981095Y-73160000D01*
X166028714Y-73207619D01*
X166076333Y-73302857D01*
X166076333Y-73445714D01*
X166028714Y-73540952D01*
X165981095Y-73588571D01*
X165885857Y-73636190D01*
X165504904Y-73636190D01*
X166457285Y-73207619D02*
X166504904Y-73160000D01*
X166600142Y-73112380D01*
X166838238Y-73112380D01*
X166933476Y-73160000D01*
X166981095Y-73207619D01*
X167028714Y-73302857D01*
X167028714Y-73398095D01*
X166981095Y-73540952D01*
X166409666Y-74112380D01*
X167028714Y-74112380D01*
X186671833Y-74712142D02*
X186624214Y-74759761D01*
X186481357Y-74807380D01*
X186386119Y-74807380D01*
X186243261Y-74759761D01*
X186148023Y-74664523D01*
X186100404Y-74569285D01*
X186052785Y-74378809D01*
X186052785Y-74235952D01*
X186100404Y-74045476D01*
X186148023Y-73950238D01*
X186243261Y-73855000D01*
X186386119Y-73807380D01*
X186481357Y-73807380D01*
X186624214Y-73855000D01*
X186671833Y-73902619D01*
X187576595Y-73807380D02*
X187100404Y-73807380D01*
X187052785Y-74283571D01*
X187100404Y-74235952D01*
X187195642Y-74188333D01*
X187433738Y-74188333D01*
X187528976Y-74235952D01*
X187576595Y-74283571D01*
X187624214Y-74378809D01*
X187624214Y-74616904D01*
X187576595Y-74712142D01*
X187528976Y-74759761D01*
X187433738Y-74807380D01*
X187195642Y-74807380D01*
X187100404Y-74759761D01*
X187052785Y-74712142D01*
%LPC*%
D15*
X119380000Y-46990000D03*
X198120000Y-69850000D03*
X121920000Y-46990000D03*
X195580000Y-69850000D03*
X124460000Y-46990000D03*
X193040000Y-69850000D03*
X127000000Y-46990000D03*
X190500000Y-69850000D03*
X129540000Y-46990000D03*
X187960000Y-69850000D03*
X132080000Y-46990000D03*
X185420000Y-69850000D03*
X134620000Y-46990000D03*
X182880000Y-69850000D03*
X137160000Y-46990000D03*
X180340000Y-69850000D03*
X139700000Y-46990000D03*
X177800000Y-69850000D03*
X142240000Y-46990000D03*
X175260000Y-69850000D03*
X144780000Y-46990000D03*
X172720000Y-69850000D03*
X147320000Y-46990000D03*
X170180000Y-69850000D03*
X149860000Y-46990000D03*
X167640000Y-69850000D03*
X152400000Y-46990000D03*
X165100000Y-69850000D03*
X154940000Y-46990000D03*
X162560000Y-69850000D03*
X157480000Y-46990000D03*
X160020000Y-69850000D03*
X160020000Y-46990000D03*
X157480000Y-69850000D03*
X162560000Y-46990000D03*
X154940000Y-69850000D03*
X165100000Y-46990000D03*
X152400000Y-69850000D03*
X167640000Y-46990000D03*
X149860000Y-69850000D03*
X170180000Y-46990000D03*
X147320000Y-69850000D03*
X172720000Y-46990000D03*
X144780000Y-69850000D03*
X175260000Y-46990000D03*
X142240000Y-69850000D03*
X177800000Y-46990000D03*
X139700000Y-69850000D03*
X180340000Y-46990000D03*
X137160000Y-69850000D03*
X182880000Y-46990000D03*
X134620000Y-69850000D03*
X185420000Y-46990000D03*
X132080000Y-69850000D03*
X187960000Y-46990000D03*
X129540000Y-69850000D03*
X190500000Y-46990000D03*
X127000000Y-69850000D03*
X193040000Y-46990000D03*
X124460000Y-69850000D03*
X195580000Y-46990000D03*
X121920000Y-69850000D03*
X198120000Y-46990000D03*
D16*
X119380000Y-69850000D03*
D17*
X203319000Y-45669000D03*
X202880000Y-46730000D03*
X203319000Y-47791000D03*
X204380000Y-48230000D03*
X205441000Y-47791000D03*
X205880000Y-46730000D03*
X205441000Y-45669000D03*
X204380000Y-45230000D03*
D18*
X204380000Y-46730000D03*
X110880000Y-46730000D03*
D17*
X112380000Y-46730000D03*
X111941000Y-47791000D03*
X110880000Y-48230000D03*
X109819000Y-47791000D03*
X109380000Y-46730000D03*
X109819000Y-45669000D03*
X110880000Y-45230000D03*
X111941000Y-45669000D03*
D18*
X110880000Y-120730000D03*
D17*
X112380000Y-120730000D03*
X111941000Y-121791000D03*
X110880000Y-122230000D03*
X109819000Y-121791000D03*
X109380000Y-120730000D03*
X109819000Y-119669000D03*
X110880000Y-119230000D03*
X111941000Y-119669000D03*
D15*
X142240000Y-114300000D03*
X142240000Y-116840000D03*
X142240000Y-119380000D03*
X142240000Y-121920000D03*
X142240000Y-124460000D03*
X142240000Y-127000000D03*
X142240000Y-129540000D03*
X142240000Y-132080000D03*
X139700000Y-111760000D03*
X139700000Y-114300000D03*
X139700000Y-116840000D03*
X139700000Y-119380000D03*
X139700000Y-121920000D03*
X139700000Y-124460000D03*
X139700000Y-127000000D03*
X139700000Y-129540000D03*
X139700000Y-132080000D03*
X139700000Y-137160000D03*
X137160000Y-137160000D03*
X134620000Y-137160000D03*
X132080000Y-137160000D03*
X129540000Y-137160000D03*
X127000000Y-137160000D03*
X124460000Y-137160000D03*
X121920000Y-137160000D03*
X119380000Y-137160000D03*
X142240000Y-134620000D03*
X139700000Y-134620000D03*
X137160000Y-134620000D03*
X134620000Y-134620000D03*
X132080000Y-134620000D03*
X129540000Y-134620000D03*
X127000000Y-134620000D03*
X124460000Y-134620000D03*
X121920000Y-134620000D03*
X116840000Y-134620000D03*
X116840000Y-132080000D03*
X116840000Y-129540000D03*
X116840000Y-127000000D03*
X116840000Y-124460000D03*
X116840000Y-121920000D03*
X116840000Y-119380000D03*
X116840000Y-116840000D03*
X116840000Y-114300000D03*
X119380000Y-134620000D03*
X119380000Y-132080000D03*
X119380000Y-129540000D03*
X119380000Y-127000000D03*
X119380000Y-124460000D03*
X119380000Y-121920000D03*
X119380000Y-119380000D03*
X119380000Y-116840000D03*
X137160000Y-111760000D03*
X134620000Y-111760000D03*
X132080000Y-111760000D03*
X119380000Y-111760000D03*
X121920000Y-111760000D03*
X124460000Y-111760000D03*
X127000000Y-111760000D03*
D16*
X129540000Y-111760000D03*
D15*
X137160000Y-114300000D03*
X134620000Y-114300000D03*
X132080000Y-114300000D03*
X129540000Y-114300000D03*
X119380000Y-114300000D03*
X121920000Y-114300000D03*
X124460000Y-114300000D03*
X127000000Y-114300000D03*
G36*
G01*
X121191000Y-120041000D02*
X122141000Y-120041000D01*
G75*
G02*
X122391000Y-120291000I0J-250000D01*
G01*
X122391000Y-120966000D01*
G75*
G02*
X122141000Y-121216000I-250000J0D01*
G01*
X121191000Y-121216000D01*
G75*
G02*
X120941000Y-120966000I0J250000D01*
G01*
X120941000Y-120291000D01*
G75*
G02*
X121191000Y-120041000I250000J0D01*
G01*
G37*
G36*
G01*
X121191000Y-122116000D02*
X122141000Y-122116000D01*
G75*
G02*
X122391000Y-122366000I0J-250000D01*
G01*
X122391000Y-123041000D01*
G75*
G02*
X122141000Y-123291000I-250000J0D01*
G01*
X121191000Y-123291000D01*
G75*
G02*
X120941000Y-123041000I0J250000D01*
G01*
X120941000Y-122366000D01*
G75*
G02*
X121191000Y-122116000I250000J0D01*
G01*
G37*
G36*
G01*
X121191000Y-127196000D02*
X122141000Y-127196000D01*
G75*
G02*
X122391000Y-127446000I0J-250000D01*
G01*
X122391000Y-128121000D01*
G75*
G02*
X122141000Y-128371000I-250000J0D01*
G01*
X121191000Y-128371000D01*
G75*
G02*
X120941000Y-128121000I0J250000D01*
G01*
X120941000Y-127446000D01*
G75*
G02*
X121191000Y-127196000I250000J0D01*
G01*
G37*
G36*
G01*
X121191000Y-125121000D02*
X122141000Y-125121000D01*
G75*
G02*
X122391000Y-125371000I0J-250000D01*
G01*
X122391000Y-126046000D01*
G75*
G02*
X122141000Y-126296000I-250000J0D01*
G01*
X121191000Y-126296000D01*
G75*
G02*
X120941000Y-126046000I0J250000D01*
G01*
X120941000Y-125371000D01*
G75*
G02*
X121191000Y-125121000I250000J0D01*
G01*
G37*
G36*
G01*
X125121000Y-132809000D02*
X125121000Y-131859000D01*
G75*
G02*
X125371000Y-131609000I250000J0D01*
G01*
X126046000Y-131609000D01*
G75*
G02*
X126296000Y-131859000I0J-250000D01*
G01*
X126296000Y-132809000D01*
G75*
G02*
X126046000Y-133059000I-250000J0D01*
G01*
X125371000Y-133059000D01*
G75*
G02*
X125121000Y-132809000I0J250000D01*
G01*
G37*
G36*
G01*
X127196000Y-132809000D02*
X127196000Y-131859000D01*
G75*
G02*
X127446000Y-131609000I250000J0D01*
G01*
X128121000Y-131609000D01*
G75*
G02*
X128371000Y-131859000I0J-250000D01*
G01*
X128371000Y-132809000D01*
G75*
G02*
X128121000Y-133059000I-250000J0D01*
G01*
X127446000Y-133059000D01*
G75*
G02*
X127196000Y-132809000I0J250000D01*
G01*
G37*
G36*
G01*
X137889000Y-124264000D02*
X136939000Y-124264000D01*
G75*
G02*
X136689000Y-124014000I0J250000D01*
G01*
X136689000Y-123339000D01*
G75*
G02*
X136939000Y-123089000I250000J0D01*
G01*
X137889000Y-123089000D01*
G75*
G02*
X138139000Y-123339000I0J-250000D01*
G01*
X138139000Y-124014000D01*
G75*
G02*
X137889000Y-124264000I-250000J0D01*
G01*
G37*
G36*
G01*
X137889000Y-126339000D02*
X136939000Y-126339000D01*
G75*
G02*
X136689000Y-126089000I0J250000D01*
G01*
X136689000Y-125414000D01*
G75*
G02*
X136939000Y-125164000I250000J0D01*
G01*
X137889000Y-125164000D01*
G75*
G02*
X138139000Y-125414000I0J-250000D01*
G01*
X138139000Y-126089000D01*
G75*
G02*
X137889000Y-126339000I-250000J0D01*
G01*
G37*
G36*
G01*
X122860000Y-117036001D02*
X122860000Y-116135999D01*
G75*
G02*
X123109999Y-115886000I249999J0D01*
G01*
X123810001Y-115886000D01*
G75*
G02*
X124060000Y-116135999I0J-249999D01*
G01*
X124060000Y-117036001D01*
G75*
G02*
X123810001Y-117286000I-249999J0D01*
G01*
X123109999Y-117286000D01*
G75*
G02*
X122860000Y-117036001I0J249999D01*
G01*
G37*
G36*
G01*
X124860000Y-117036001D02*
X124860000Y-116135999D01*
G75*
G02*
X125109999Y-115886000I249999J0D01*
G01*
X125810001Y-115886000D01*
G75*
G02*
X126060000Y-116135999I0J-249999D01*
G01*
X126060000Y-117036001D01*
G75*
G02*
X125810001Y-117286000I-249999J0D01*
G01*
X125109999Y-117286000D01*
G75*
G02*
X124860000Y-117036001I0J249999D01*
G01*
G37*
G36*
G01*
X169555000Y-74110001D02*
X169555000Y-73209999D01*
G75*
G02*
X169804999Y-72960000I249999J0D01*
G01*
X170505001Y-72960000D01*
G75*
G02*
X170755000Y-73209999I0J-249999D01*
G01*
X170755000Y-74110001D01*
G75*
G02*
X170505001Y-74360000I-249999J0D01*
G01*
X169804999Y-74360000D01*
G75*
G02*
X169555000Y-74110001I0J249999D01*
G01*
G37*
G36*
G01*
X167555000Y-74110001D02*
X167555000Y-73209999D01*
G75*
G02*
X167804999Y-72960000I249999J0D01*
G01*
X168505001Y-72960000D01*
G75*
G02*
X168755000Y-73209999I0J-249999D01*
G01*
X168755000Y-74110001D01*
G75*
G02*
X168505001Y-74360000I-249999J0D01*
G01*
X167804999Y-74360000D01*
G75*
G02*
X167555000Y-74110001I0J249999D01*
G01*
G37*
D19*
X194840000Y-81855000D03*
X194840000Y-79355000D03*
X194840000Y-76855000D03*
D20*
X194840000Y-74355000D03*
G36*
G01*
X191490000Y-73880000D02*
X191490000Y-74830000D01*
G75*
G02*
X191240000Y-75080000I-250000J0D01*
G01*
X190565000Y-75080000D01*
G75*
G02*
X190315000Y-74830000I0J250000D01*
G01*
X190315000Y-73880000D01*
G75*
G02*
X190565000Y-73630000I250000J0D01*
G01*
X191240000Y-73630000D01*
G75*
G02*
X191490000Y-73880000I0J-250000D01*
G01*
G37*
G36*
G01*
X189415000Y-73880000D02*
X189415000Y-74830000D01*
G75*
G02*
X189165000Y-75080000I-250000J0D01*
G01*
X188490000Y-75080000D01*
G75*
G02*
X188240000Y-74830000I0J250000D01*
G01*
X188240000Y-73880000D01*
G75*
G02*
X188490000Y-73630000I250000J0D01*
G01*
X189165000Y-73630000D01*
G75*
G02*
X189415000Y-73880000I0J-250000D01*
G01*
G37*
M02*
