%FSLAX45Y45*%
G04 Gerber Fmt 4.5, Leading zero omitted, Abs format (unit mm)*
G04 Created by KiCad (PCBNEW (5.1.12)-1) date 2022-01-03 17:19:06*
%MOMM*%
%LPD*%
G01*
G04 APERTURE LIST*
%TA.AperFunction,Profile*%
%ADD10C,0.050000*%
%TD*%
%ADD11C,0.200000*%
%ADD12C,0.300000*%
G04 APERTURE END LIST*
D10*
X13589000Y-12954000D02*
G75*
G02*
X13462000Y-13081000I-127000J0D01*
G01*
X12446000Y-13081000D02*
G75*
G02*
X12319000Y-12954000I0J127000D01*
G01*
X12319000Y-11938000D02*
G75*
G02*
X12446000Y-11811000I127000J0D01*
G01*
X13462000Y-11811000D02*
G75*
G02*
X13589000Y-11938000I0J-127000D01*
G01*
X12446000Y-11811000D02*
X13462000Y-11811000D01*
X13589000Y-12954000D02*
X13589000Y-11938000D01*
X13462000Y-13081000D02*
X12446000Y-13081000D01*
X12319000Y-11938000D02*
X12319000Y-12954000D01*
X20828000Y-8255000D02*
G75*
G02*
X20574000Y-8509000I-254000J0D01*
G01*
X15367000Y-8763000D02*
G75*
G02*
X15621000Y-8509000I254000J0D01*
G01*
X20574000Y-8509000D02*
X15621000Y-8509000D01*
X20828000Y-4445000D02*
X20828000Y-8255000D01*
X20574000Y-4191000D02*
G75*
G02*
X20828000Y-4445000I0J-254000D01*
G01*
X10668000Y-4445000D02*
G75*
G02*
X10922000Y-4191000I254000J0D01*
G01*
X15367000Y-14224000D02*
G75*
G02*
X15113000Y-14478000I-254000J0D01*
G01*
X10922000Y-14478000D02*
G75*
G02*
X10668000Y-14224000I0J254000D01*
G01*
X20574000Y-4191000D02*
X10922000Y-4191000D01*
X10668000Y-4445000D02*
X10668000Y-14224000D01*
X15367000Y-8763000D02*
X15367000Y-14224000D01*
X15113000Y-14478000D02*
X10922000Y-14478000D01*
D11*
X10918000Y-4653000D02*
X10958000Y-4693000D01*
X10958000Y-4653000D02*
X10918000Y-4693000D01*
X10918000Y-12053000D02*
X10958000Y-12093000D01*
X10958000Y-12053000D02*
X10918000Y-12093000D01*
X10961900Y-4546900D02*
X11001900Y-4586900D01*
X11001900Y-4546900D02*
X10961900Y-4586900D01*
X10961900Y-4759100D02*
X11001900Y-4799100D01*
X11001900Y-4759100D02*
X10961900Y-4799100D01*
X10961900Y-11946900D02*
X11001900Y-11986900D01*
X11001900Y-11946900D02*
X10961900Y-11986900D01*
X10961900Y-12159100D02*
X11001900Y-12199100D01*
X11001900Y-12159100D02*
X10961900Y-12199100D01*
X11068000Y-4503000D02*
X11108000Y-4543000D01*
X11108000Y-4503000D02*
X11068000Y-4543000D01*
X11068000Y-4803000D02*
X11108000Y-4843000D01*
X11108000Y-4803000D02*
X11068000Y-4843000D01*
X11068000Y-11903000D02*
X11108000Y-11943000D01*
X11108000Y-11903000D02*
X11068000Y-11943000D01*
X11068000Y-12203000D02*
X11108000Y-12243000D01*
X11108000Y-12203000D02*
X11068000Y-12243000D01*
X11174100Y-4546900D02*
X11214100Y-4586900D01*
X11214100Y-4546900D02*
X11174100Y-4586900D01*
X11174100Y-4759100D02*
X11214100Y-4799100D01*
X11214100Y-4759100D02*
X11174100Y-4799100D01*
X11174100Y-11946900D02*
X11214100Y-11986900D01*
X11214100Y-11946900D02*
X11174100Y-11986900D01*
X11174100Y-12159100D02*
X11214100Y-12199100D01*
X11214100Y-12159100D02*
X11174100Y-12199100D01*
X11218000Y-4653000D02*
X11258000Y-4693000D01*
X11258000Y-4653000D02*
X11218000Y-4693000D01*
X11218000Y-12053000D02*
X11258000Y-12093000D01*
X11258000Y-12053000D02*
X11218000Y-12093000D01*
X12146600Y-12400600D02*
X12186600Y-12440600D01*
X12186600Y-12400600D02*
X12146600Y-12440600D01*
X12146600Y-12908600D02*
X12186600Y-12948600D01*
X12186600Y-12908600D02*
X12146600Y-12948600D01*
X12680000Y-11638600D02*
X12720000Y-11678600D01*
X12720000Y-11638600D02*
X12680000Y-11678600D01*
X12908600Y-13213400D02*
X12948600Y-13253400D01*
X12948600Y-13213400D02*
X12908600Y-13253400D01*
X13721400Y-12197400D02*
X13761400Y-12237400D01*
X13761400Y-12197400D02*
X13721400Y-12237400D01*
X16744000Y-6711000D02*
X16784000Y-6751000D01*
X16784000Y-6711000D02*
X16744000Y-6751000D01*
X16792260Y-7508560D02*
X16832260Y-7548560D01*
X16832260Y-7508560D02*
X16792260Y-7548560D01*
X18712500Y-7415500D02*
X18752500Y-7455500D01*
X18752500Y-7415500D02*
X18712500Y-7455500D01*
X20268000Y-4653000D02*
X20308000Y-4693000D01*
X20308000Y-4653000D02*
X20268000Y-4693000D01*
X20311900Y-4546900D02*
X20351900Y-4586900D01*
X20351900Y-4546900D02*
X20311900Y-4586900D01*
X20311900Y-4759100D02*
X20351900Y-4799100D01*
X20351900Y-4759100D02*
X20311900Y-4799100D01*
X20418000Y-4503000D02*
X20458000Y-4543000D01*
X20458000Y-4503000D02*
X20418000Y-4543000D01*
X20418000Y-4803000D02*
X20458000Y-4843000D01*
X20458000Y-4803000D02*
X20418000Y-4843000D01*
X20524100Y-4546900D02*
X20564100Y-4586900D01*
X20564100Y-4546900D02*
X20524100Y-4586900D01*
X20524100Y-4759100D02*
X20564100Y-4799100D01*
X20564100Y-4759100D02*
X20524100Y-4799100D01*
X20568000Y-4653000D02*
X20608000Y-4693000D01*
X20608000Y-4653000D02*
X20568000Y-4693000D01*
X11724000Y-11430000D02*
G75*
G03*
X11724000Y-11430000I-40000J0D01*
G01*
X11724000Y-11684000D02*
G75*
G03*
X11724000Y-11684000I-40000J0D01*
G01*
X11724000Y-11938000D02*
G75*
G03*
X11724000Y-11938000I-40000J0D01*
G01*
X11724000Y-12192000D02*
G75*
G03*
X11724000Y-12192000I-40000J0D01*
G01*
X11724000Y-12446000D02*
G75*
G03*
X11724000Y-12446000I-40000J0D01*
G01*
X11724000Y-12700000D02*
G75*
G03*
X11724000Y-12700000I-40000J0D01*
G01*
X11724000Y-12954000D02*
G75*
G03*
X11724000Y-12954000I-40000J0D01*
G01*
X11724000Y-13208000D02*
G75*
G03*
X11724000Y-13208000I-40000J0D01*
G01*
X11724000Y-13462000D02*
G75*
G03*
X11724000Y-13462000I-40000J0D01*
G01*
X11978000Y-4699000D02*
G75*
G03*
X11978000Y-4699000I-40000J0D01*
G01*
X11978000Y-6985000D02*
G75*
G03*
X11978000Y-6985000I-40000J0D01*
G01*
X11978000Y-11176000D02*
G75*
G03*
X11978000Y-11176000I-40000J0D01*
G01*
X11978000Y-11430000D02*
G75*
G03*
X11978000Y-11430000I-40000J0D01*
G01*
X11978000Y-11684000D02*
G75*
G03*
X11978000Y-11684000I-40000J0D01*
G01*
X11978000Y-11938000D02*
G75*
G03*
X11978000Y-11938000I-40000J0D01*
G01*
X11978000Y-12192000D02*
G75*
G03*
X11978000Y-12192000I-40000J0D01*
G01*
X11978000Y-12446000D02*
G75*
G03*
X11978000Y-12446000I-40000J0D01*
G01*
X11978000Y-12700000D02*
G75*
G03*
X11978000Y-12700000I-40000J0D01*
G01*
X11978000Y-12954000D02*
G75*
G03*
X11978000Y-12954000I-40000J0D01*
G01*
X11978000Y-13208000D02*
G75*
G03*
X11978000Y-13208000I-40000J0D01*
G01*
X11978000Y-13462000D02*
G75*
G03*
X11978000Y-13462000I-40000J0D01*
G01*
X11978000Y-13716000D02*
G75*
G03*
X11978000Y-13716000I-40000J0D01*
G01*
X12232000Y-4699000D02*
G75*
G03*
X12232000Y-4699000I-40000J0D01*
G01*
X12232000Y-6985000D02*
G75*
G03*
X12232000Y-6985000I-40000J0D01*
G01*
X12232000Y-11176000D02*
G75*
G03*
X12232000Y-11176000I-40000J0D01*
G01*
X12232000Y-11430000D02*
G75*
G03*
X12232000Y-11430000I-40000J0D01*
G01*
X12232000Y-13462000D02*
G75*
G03*
X12232000Y-13462000I-40000J0D01*
G01*
X12232000Y-13716000D02*
G75*
G03*
X12232000Y-13716000I-40000J0D01*
G01*
X12486000Y-4699000D02*
G75*
G03*
X12486000Y-4699000I-40000J0D01*
G01*
X12486000Y-6985000D02*
G75*
G03*
X12486000Y-6985000I-40000J0D01*
G01*
X12486000Y-11176000D02*
G75*
G03*
X12486000Y-11176000I-40000J0D01*
G01*
X12486000Y-11430000D02*
G75*
G03*
X12486000Y-11430000I-40000J0D01*
G01*
X12486000Y-13462000D02*
G75*
G03*
X12486000Y-13462000I-40000J0D01*
G01*
X12486000Y-13716000D02*
G75*
G03*
X12486000Y-13716000I-40000J0D01*
G01*
X12740000Y-4699000D02*
G75*
G03*
X12740000Y-4699000I-40000J0D01*
G01*
X12740000Y-6985000D02*
G75*
G03*
X12740000Y-6985000I-40000J0D01*
G01*
X12740000Y-11176000D02*
G75*
G03*
X12740000Y-11176000I-40000J0D01*
G01*
X12740000Y-11430000D02*
G75*
G03*
X12740000Y-11430000I-40000J0D01*
G01*
X12740000Y-13462000D02*
G75*
G03*
X12740000Y-13462000I-40000J0D01*
G01*
X12740000Y-13716000D02*
G75*
G03*
X12740000Y-13716000I-40000J0D01*
G01*
X12994000Y-4699000D02*
G75*
G03*
X12994000Y-4699000I-40000J0D01*
G01*
X12994000Y-6985000D02*
G75*
G03*
X12994000Y-6985000I-40000J0D01*
G01*
X12994000Y-11176000D02*
G75*
G03*
X12994000Y-11176000I-40000J0D01*
G01*
X12994000Y-11430000D02*
G75*
G03*
X12994000Y-11430000I-40000J0D01*
G01*
X12994000Y-13462000D02*
G75*
G03*
X12994000Y-13462000I-40000J0D01*
G01*
X12994000Y-13716000D02*
G75*
G03*
X12994000Y-13716000I-40000J0D01*
G01*
X13248000Y-4699000D02*
G75*
G03*
X13248000Y-4699000I-40000J0D01*
G01*
X13248000Y-6985000D02*
G75*
G03*
X13248000Y-6985000I-40000J0D01*
G01*
X13248000Y-11176000D02*
G75*
G03*
X13248000Y-11176000I-40000J0D01*
G01*
X13248000Y-11430000D02*
G75*
G03*
X13248000Y-11430000I-40000J0D01*
G01*
X13248000Y-13462000D02*
G75*
G03*
X13248000Y-13462000I-40000J0D01*
G01*
X13248000Y-13716000D02*
G75*
G03*
X13248000Y-13716000I-40000J0D01*
G01*
X13502000Y-4699000D02*
G75*
G03*
X13502000Y-4699000I-40000J0D01*
G01*
X13502000Y-6985000D02*
G75*
G03*
X13502000Y-6985000I-40000J0D01*
G01*
X13502000Y-11176000D02*
G75*
G03*
X13502000Y-11176000I-40000J0D01*
G01*
X13502000Y-11430000D02*
G75*
G03*
X13502000Y-11430000I-40000J0D01*
G01*
X13502000Y-13462000D02*
G75*
G03*
X13502000Y-13462000I-40000J0D01*
G01*
X13502000Y-13716000D02*
G75*
G03*
X13502000Y-13716000I-40000J0D01*
G01*
X13756000Y-4699000D02*
G75*
G03*
X13756000Y-4699000I-40000J0D01*
G01*
X13756000Y-6985000D02*
G75*
G03*
X13756000Y-6985000I-40000J0D01*
G01*
X13756000Y-11176000D02*
G75*
G03*
X13756000Y-11176000I-40000J0D01*
G01*
X13756000Y-11430000D02*
G75*
G03*
X13756000Y-11430000I-40000J0D01*
G01*
X13756000Y-13462000D02*
G75*
G03*
X13756000Y-13462000I-40000J0D01*
G01*
X13756000Y-13716000D02*
G75*
G03*
X13756000Y-13716000I-40000J0D01*
G01*
X14010000Y-4699000D02*
G75*
G03*
X14010000Y-4699000I-40000J0D01*
G01*
X14010000Y-6985000D02*
G75*
G03*
X14010000Y-6985000I-40000J0D01*
G01*
X14010000Y-11176000D02*
G75*
G03*
X14010000Y-11176000I-40000J0D01*
G01*
X14010000Y-11430000D02*
G75*
G03*
X14010000Y-11430000I-40000J0D01*
G01*
X14010000Y-11684000D02*
G75*
G03*
X14010000Y-11684000I-40000J0D01*
G01*
X14010000Y-11938000D02*
G75*
G03*
X14010000Y-11938000I-40000J0D01*
G01*
X14010000Y-12192000D02*
G75*
G03*
X14010000Y-12192000I-40000J0D01*
G01*
X14010000Y-12446000D02*
G75*
G03*
X14010000Y-12446000I-40000J0D01*
G01*
X14010000Y-12700000D02*
G75*
G03*
X14010000Y-12700000I-40000J0D01*
G01*
X14010000Y-12954000D02*
G75*
G03*
X14010000Y-12954000I-40000J0D01*
G01*
X14010000Y-13208000D02*
G75*
G03*
X14010000Y-13208000I-40000J0D01*
G01*
X14010000Y-13462000D02*
G75*
G03*
X14010000Y-13462000I-40000J0D01*
G01*
X14010000Y-13716000D02*
G75*
G03*
X14010000Y-13716000I-40000J0D01*
G01*
X14264000Y-4699000D02*
G75*
G03*
X14264000Y-4699000I-40000J0D01*
G01*
X14264000Y-6985000D02*
G75*
G03*
X14264000Y-6985000I-40000J0D01*
G01*
X14264000Y-11430000D02*
G75*
G03*
X14264000Y-11430000I-40000J0D01*
G01*
X14264000Y-11684000D02*
G75*
G03*
X14264000Y-11684000I-40000J0D01*
G01*
X14264000Y-11938000D02*
G75*
G03*
X14264000Y-11938000I-40000J0D01*
G01*
X14264000Y-12192000D02*
G75*
G03*
X14264000Y-12192000I-40000J0D01*
G01*
X14264000Y-12446000D02*
G75*
G03*
X14264000Y-12446000I-40000J0D01*
G01*
X14264000Y-12700000D02*
G75*
G03*
X14264000Y-12700000I-40000J0D01*
G01*
X14264000Y-12954000D02*
G75*
G03*
X14264000Y-12954000I-40000J0D01*
G01*
X14264000Y-13208000D02*
G75*
G03*
X14264000Y-13208000I-40000J0D01*
G01*
X14264000Y-13462000D02*
G75*
G03*
X14264000Y-13462000I-40000J0D01*
G01*
X14518000Y-4699000D02*
G75*
G03*
X14518000Y-4699000I-40000J0D01*
G01*
X14518000Y-6985000D02*
G75*
G03*
X14518000Y-6985000I-40000J0D01*
G01*
X14772000Y-4699000D02*
G75*
G03*
X14772000Y-4699000I-40000J0D01*
G01*
X14772000Y-6985000D02*
G75*
G03*
X14772000Y-6985000I-40000J0D01*
G01*
X15026000Y-4699000D02*
G75*
G03*
X15026000Y-4699000I-40000J0D01*
G01*
X15026000Y-6985000D02*
G75*
G03*
X15026000Y-6985000I-40000J0D01*
G01*
X15280000Y-4699000D02*
G75*
G03*
X15280000Y-4699000I-40000J0D01*
G01*
X15280000Y-6985000D02*
G75*
G03*
X15280000Y-6985000I-40000J0D01*
G01*
X15534000Y-4699000D02*
G75*
G03*
X15534000Y-4699000I-40000J0D01*
G01*
X15534000Y-6985000D02*
G75*
G03*
X15534000Y-6985000I-40000J0D01*
G01*
X15788000Y-4699000D02*
G75*
G03*
X15788000Y-4699000I-40000J0D01*
G01*
X15788000Y-6985000D02*
G75*
G03*
X15788000Y-6985000I-40000J0D01*
G01*
X16042000Y-4699000D02*
G75*
G03*
X16042000Y-4699000I-40000J0D01*
G01*
X16042000Y-6985000D02*
G75*
G03*
X16042000Y-6985000I-40000J0D01*
G01*
X16296000Y-4699000D02*
G75*
G03*
X16296000Y-4699000I-40000J0D01*
G01*
X16296000Y-6985000D02*
G75*
G03*
X16296000Y-6985000I-40000J0D01*
G01*
X16550000Y-4699000D02*
G75*
G03*
X16550000Y-4699000I-40000J0D01*
G01*
X16550000Y-6985000D02*
G75*
G03*
X16550000Y-6985000I-40000J0D01*
G01*
X16804000Y-4699000D02*
G75*
G03*
X16804000Y-4699000I-40000J0D01*
G01*
X16804000Y-6985000D02*
G75*
G03*
X16804000Y-6985000I-40000J0D01*
G01*
X17058000Y-4699000D02*
G75*
G03*
X17058000Y-4699000I-40000J0D01*
G01*
X17058000Y-6985000D02*
G75*
G03*
X17058000Y-6985000I-40000J0D01*
G01*
X17312000Y-4699000D02*
G75*
G03*
X17312000Y-4699000I-40000J0D01*
G01*
X17312000Y-6985000D02*
G75*
G03*
X17312000Y-6985000I-40000J0D01*
G01*
X17566000Y-4699000D02*
G75*
G03*
X17566000Y-4699000I-40000J0D01*
G01*
X17566000Y-6985000D02*
G75*
G03*
X17566000Y-6985000I-40000J0D01*
G01*
X17820000Y-4699000D02*
G75*
G03*
X17820000Y-4699000I-40000J0D01*
G01*
X17820000Y-6985000D02*
G75*
G03*
X17820000Y-6985000I-40000J0D01*
G01*
X18074000Y-4699000D02*
G75*
G03*
X18074000Y-4699000I-40000J0D01*
G01*
X18074000Y-6985000D02*
G75*
G03*
X18074000Y-6985000I-40000J0D01*
G01*
X18328000Y-4699000D02*
G75*
G03*
X18328000Y-4699000I-40000J0D01*
G01*
X18328000Y-6985000D02*
G75*
G03*
X18328000Y-6985000I-40000J0D01*
G01*
X18582000Y-4699000D02*
G75*
G03*
X18582000Y-4699000I-40000J0D01*
G01*
X18582000Y-6985000D02*
G75*
G03*
X18582000Y-6985000I-40000J0D01*
G01*
X18836000Y-4699000D02*
G75*
G03*
X18836000Y-4699000I-40000J0D01*
G01*
X18836000Y-6985000D02*
G75*
G03*
X18836000Y-6985000I-40000J0D01*
G01*
X19090000Y-4699000D02*
G75*
G03*
X19090000Y-4699000I-40000J0D01*
G01*
X19090000Y-6985000D02*
G75*
G03*
X19090000Y-6985000I-40000J0D01*
G01*
X19344000Y-4699000D02*
G75*
G03*
X19344000Y-4699000I-40000J0D01*
G01*
X19344000Y-6985000D02*
G75*
G03*
X19344000Y-6985000I-40000J0D01*
G01*
X19598000Y-4699000D02*
G75*
G03*
X19598000Y-4699000I-40000J0D01*
G01*
X19598000Y-6985000D02*
G75*
G03*
X19598000Y-6985000I-40000J0D01*
G01*
X19852000Y-4699000D02*
G75*
G03*
X19852000Y-4699000I-40000J0D01*
G01*
X19852000Y-6985000D02*
G75*
G03*
X19852000Y-6985000I-40000J0D01*
G01*
X19484000Y-7390500D02*
X19484000Y-7480500D01*
X19439000Y-7435500D02*
X19529000Y-7435500D01*
X19484000Y-7640500D02*
X19484000Y-7730500D01*
X19439000Y-7685500D02*
X19529000Y-7685500D01*
X19484000Y-7890500D02*
X19484000Y-7980500D01*
X19439000Y-7935500D02*
X19529000Y-7935500D01*
X19484000Y-8140500D02*
X19484000Y-8230500D01*
X19439000Y-8185500D02*
X19529000Y-8185500D01*
X11158711Y-4743711D02*
X11158711Y-4602289D01*
X11017289Y-4602289D01*
X11017289Y-4743711D01*
X11158711Y-4743711D01*
X11158711Y-12143711D02*
X11158711Y-12002289D01*
X11017289Y-12002289D01*
X11017289Y-12143711D01*
X11158711Y-12143711D01*
X20508711Y-4743711D02*
X20508711Y-4602289D01*
X20367289Y-4602289D01*
X20367289Y-4743711D01*
X20508711Y-4743711D01*
D12*
X10951928Y-14946214D02*
X10951928Y-14646214D01*
X11023357Y-14646214D01*
X11066214Y-14660500D01*
X11094786Y-14689071D01*
X11109071Y-14717643D01*
X11123357Y-14774786D01*
X11123357Y-14817643D01*
X11109071Y-14874786D01*
X11094786Y-14903357D01*
X11066214Y-14931929D01*
X11023357Y-14946214D01*
X10951928Y-14946214D01*
X11251928Y-14946214D02*
X11251928Y-14746214D01*
X11251928Y-14803357D02*
X11266214Y-14774786D01*
X11280500Y-14760500D01*
X11309071Y-14746214D01*
X11337643Y-14746214D01*
X11437643Y-14946214D02*
X11437643Y-14746214D01*
X11437643Y-14646214D02*
X11423357Y-14660500D01*
X11437643Y-14674786D01*
X11451928Y-14660500D01*
X11437643Y-14646214D01*
X11437643Y-14674786D01*
X11623357Y-14946214D02*
X11594786Y-14931929D01*
X11580500Y-14903357D01*
X11580500Y-14646214D01*
X11780500Y-14946214D02*
X11751928Y-14931929D01*
X11737643Y-14903357D01*
X11737643Y-14646214D01*
X12123357Y-14946214D02*
X12123357Y-14646214D01*
X12223357Y-14860500D01*
X12323357Y-14646214D01*
X12323357Y-14946214D01*
X12594786Y-14946214D02*
X12594786Y-14789071D01*
X12580500Y-14760500D01*
X12551928Y-14746214D01*
X12494786Y-14746214D01*
X12466214Y-14760500D01*
X12594786Y-14931929D02*
X12566214Y-14946214D01*
X12494786Y-14946214D01*
X12466214Y-14931929D01*
X12451928Y-14903357D01*
X12451928Y-14874786D01*
X12466214Y-14846214D01*
X12494786Y-14831929D01*
X12566214Y-14831929D01*
X12594786Y-14817643D01*
X12737643Y-14746214D02*
X12737643Y-15046214D01*
X12737643Y-14760500D02*
X12766214Y-14746214D01*
X12823357Y-14746214D01*
X12851928Y-14760500D01*
X12866214Y-14774786D01*
X12880500Y-14803357D01*
X12880500Y-14889071D01*
X12866214Y-14917643D01*
X12851928Y-14931929D01*
X12823357Y-14946214D01*
X12766214Y-14946214D01*
X12737643Y-14931929D01*
X13009071Y-14917643D02*
X13023357Y-14931929D01*
X13009071Y-14946214D01*
X12994786Y-14931929D01*
X13009071Y-14917643D01*
X13009071Y-14946214D01*
X13009071Y-14760500D02*
X13023357Y-14774786D01*
X13009071Y-14789071D01*
X12994786Y-14774786D01*
X13009071Y-14760500D01*
X13009071Y-14789071D01*
X10625500Y-15420500D02*
X10665500Y-15460500D01*
X10665500Y-15420500D02*
X10625500Y-15460500D01*
X11009071Y-15276214D02*
X11037643Y-15276214D01*
X11066214Y-15290500D01*
X11080500Y-15304786D01*
X11094786Y-15333357D01*
X11109071Y-15390500D01*
X11109071Y-15461929D01*
X11094786Y-15519071D01*
X11080500Y-15547643D01*
X11066214Y-15561929D01*
X11037643Y-15576214D01*
X11009071Y-15576214D01*
X10980500Y-15561929D01*
X10966214Y-15547643D01*
X10951928Y-15519071D01*
X10937643Y-15461929D01*
X10937643Y-15390500D01*
X10951928Y-15333357D01*
X10966214Y-15304786D01*
X10980500Y-15290500D01*
X11009071Y-15276214D01*
X11237643Y-15547643D02*
X11251928Y-15561929D01*
X11237643Y-15576214D01*
X11223357Y-15561929D01*
X11237643Y-15547643D01*
X11237643Y-15576214D01*
X11509071Y-15376214D02*
X11509071Y-15576214D01*
X11437643Y-15261929D02*
X11366214Y-15476214D01*
X11551928Y-15476214D01*
X11723357Y-15276214D02*
X11751928Y-15276214D01*
X11780500Y-15290500D01*
X11794786Y-15304786D01*
X11809071Y-15333357D01*
X11823357Y-15390500D01*
X11823357Y-15461929D01*
X11809071Y-15519071D01*
X11794786Y-15547643D01*
X11780500Y-15561929D01*
X11751928Y-15576214D01*
X11723357Y-15576214D01*
X11694786Y-15561929D01*
X11680500Y-15547643D01*
X11666214Y-15519071D01*
X11651928Y-15461929D01*
X11651928Y-15390500D01*
X11666214Y-15333357D01*
X11680500Y-15304786D01*
X11694786Y-15290500D01*
X11723357Y-15276214D01*
X12009071Y-15276214D02*
X12037643Y-15276214D01*
X12066214Y-15290500D01*
X12080500Y-15304786D01*
X12094786Y-15333357D01*
X12109071Y-15390500D01*
X12109071Y-15461929D01*
X12094786Y-15519071D01*
X12080500Y-15547643D01*
X12066214Y-15561929D01*
X12037643Y-15576214D01*
X12009071Y-15576214D01*
X11980500Y-15561929D01*
X11966214Y-15547643D01*
X11951928Y-15519071D01*
X11937643Y-15461929D01*
X11937643Y-15390500D01*
X11951928Y-15333357D01*
X11966214Y-15304786D01*
X11980500Y-15290500D01*
X12009071Y-15276214D01*
X12237643Y-15576214D02*
X12237643Y-15376214D01*
X12237643Y-15404786D02*
X12251928Y-15390500D01*
X12280500Y-15376214D01*
X12323357Y-15376214D01*
X12351928Y-15390500D01*
X12366214Y-15419071D01*
X12366214Y-15576214D01*
X12366214Y-15419071D02*
X12380500Y-15390500D01*
X12409071Y-15376214D01*
X12451928Y-15376214D01*
X12480500Y-15390500D01*
X12494786Y-15419071D01*
X12494786Y-15576214D01*
X12637643Y-15576214D02*
X12637643Y-15376214D01*
X12637643Y-15404786D02*
X12651928Y-15390500D01*
X12680500Y-15376214D01*
X12723357Y-15376214D01*
X12751928Y-15390500D01*
X12766214Y-15419071D01*
X12766214Y-15576214D01*
X12766214Y-15419071D02*
X12780500Y-15390500D01*
X12809071Y-15376214D01*
X12851928Y-15376214D01*
X12880500Y-15390500D01*
X12894786Y-15419071D01*
X12894786Y-15576214D01*
X13480500Y-15261929D02*
X13223357Y-15647643D01*
X13866214Y-15276214D02*
X13894786Y-15276214D01*
X13923357Y-15290500D01*
X13937643Y-15304786D01*
X13951928Y-15333357D01*
X13966214Y-15390500D01*
X13966214Y-15461929D01*
X13951928Y-15519071D01*
X13937643Y-15547643D01*
X13923357Y-15561929D01*
X13894786Y-15576214D01*
X13866214Y-15576214D01*
X13837643Y-15561929D01*
X13823357Y-15547643D01*
X13809071Y-15519071D01*
X13794786Y-15461929D01*
X13794786Y-15390500D01*
X13809071Y-15333357D01*
X13823357Y-15304786D01*
X13837643Y-15290500D01*
X13866214Y-15276214D01*
X14094786Y-15547643D02*
X14109071Y-15561929D01*
X14094786Y-15576214D01*
X14080500Y-15561929D01*
X14094786Y-15547643D01*
X14094786Y-15576214D01*
X14294786Y-15276214D02*
X14323357Y-15276214D01*
X14351928Y-15290500D01*
X14366214Y-15304786D01*
X14380500Y-15333357D01*
X14394786Y-15390500D01*
X14394786Y-15461929D01*
X14380500Y-15519071D01*
X14366214Y-15547643D01*
X14351928Y-15561929D01*
X14323357Y-15576214D01*
X14294786Y-15576214D01*
X14266214Y-15561929D01*
X14251928Y-15547643D01*
X14237643Y-15519071D01*
X14223357Y-15461929D01*
X14223357Y-15390500D01*
X14237643Y-15333357D01*
X14251928Y-15304786D01*
X14266214Y-15290500D01*
X14294786Y-15276214D01*
X14680500Y-15576214D02*
X14509071Y-15576214D01*
X14594786Y-15576214D02*
X14594786Y-15276214D01*
X14566214Y-15319071D01*
X14537643Y-15347643D01*
X14509071Y-15361929D01*
X14951928Y-15276214D02*
X14809071Y-15276214D01*
X14794786Y-15419071D01*
X14809071Y-15404786D01*
X14837643Y-15390500D01*
X14909071Y-15390500D01*
X14937643Y-15404786D01*
X14951928Y-15419071D01*
X14966214Y-15447643D01*
X14966214Y-15519071D01*
X14951928Y-15547643D01*
X14937643Y-15561929D01*
X14909071Y-15576214D01*
X14837643Y-15576214D01*
X14809071Y-15561929D01*
X14794786Y-15547643D01*
X15066214Y-15276214D02*
X15266214Y-15276214D01*
X15137643Y-15576214D01*
X15366214Y-15276214D02*
X15366214Y-15333357D01*
X15480500Y-15276214D02*
X15480500Y-15333357D01*
X15923357Y-15690500D02*
X15909071Y-15676214D01*
X15880500Y-15633357D01*
X15866214Y-15604786D01*
X15851928Y-15561929D01*
X15837643Y-15490500D01*
X15837643Y-15433357D01*
X15851928Y-15361929D01*
X15866214Y-15319071D01*
X15880500Y-15290500D01*
X15909071Y-15247643D01*
X15923357Y-15233357D01*
X16009071Y-15276214D02*
X16194786Y-15276214D01*
X16094786Y-15390500D01*
X16137643Y-15390500D01*
X16166214Y-15404786D01*
X16180500Y-15419071D01*
X16194786Y-15447643D01*
X16194786Y-15519071D01*
X16180500Y-15547643D01*
X16166214Y-15561929D01*
X16137643Y-15576214D01*
X16051928Y-15576214D01*
X16023357Y-15561929D01*
X16009071Y-15547643D01*
X16309071Y-15304786D02*
X16323357Y-15290500D01*
X16351928Y-15276214D01*
X16423357Y-15276214D01*
X16451928Y-15290500D01*
X16466214Y-15304786D01*
X16480500Y-15333357D01*
X16480500Y-15361929D01*
X16466214Y-15404786D01*
X16294786Y-15576214D01*
X16480500Y-15576214D01*
X16837643Y-15576214D02*
X16837643Y-15276214D01*
X16966214Y-15576214D02*
X16966214Y-15419071D01*
X16951928Y-15390500D01*
X16923357Y-15376214D01*
X16880500Y-15376214D01*
X16851928Y-15390500D01*
X16837643Y-15404786D01*
X17151928Y-15576214D02*
X17123357Y-15561929D01*
X17109071Y-15547643D01*
X17094786Y-15519071D01*
X17094786Y-15433357D01*
X17109071Y-15404786D01*
X17123357Y-15390500D01*
X17151928Y-15376214D01*
X17194786Y-15376214D01*
X17223357Y-15390500D01*
X17237643Y-15404786D01*
X17251928Y-15433357D01*
X17251928Y-15519071D01*
X17237643Y-15547643D01*
X17223357Y-15561929D01*
X17194786Y-15576214D01*
X17151928Y-15576214D01*
X17423357Y-15576214D02*
X17394786Y-15561929D01*
X17380500Y-15533357D01*
X17380500Y-15276214D01*
X17651928Y-15561929D02*
X17623357Y-15576214D01*
X17566214Y-15576214D01*
X17537643Y-15561929D01*
X17523357Y-15533357D01*
X17523357Y-15419071D01*
X17537643Y-15390500D01*
X17566214Y-15376214D01*
X17623357Y-15376214D01*
X17651928Y-15390500D01*
X17666214Y-15419071D01*
X17666214Y-15447643D01*
X17523357Y-15476214D01*
X17780500Y-15561929D02*
X17809071Y-15576214D01*
X17866214Y-15576214D01*
X17894786Y-15561929D01*
X17909071Y-15533357D01*
X17909071Y-15519071D01*
X17894786Y-15490500D01*
X17866214Y-15476214D01*
X17823357Y-15476214D01*
X17794786Y-15461929D01*
X17780500Y-15433357D01*
X17780500Y-15419071D01*
X17794786Y-15390500D01*
X17823357Y-15376214D01*
X17866214Y-15376214D01*
X17894786Y-15390500D01*
X18009071Y-15690500D02*
X18023357Y-15676214D01*
X18051928Y-15633357D01*
X18066214Y-15604786D01*
X18080500Y-15561929D01*
X18094786Y-15490500D01*
X18094786Y-15433357D01*
X18080500Y-15361929D01*
X18066214Y-15319071D01*
X18051928Y-15290500D01*
X18023357Y-15247643D01*
X18009071Y-15233357D01*
X10665500Y-15836500D02*
G75*
G03*
X10665500Y-15836500I-40000J0D01*
G01*
X11009071Y-15672214D02*
X11037643Y-15672214D01*
X11066214Y-15686500D01*
X11080500Y-15700786D01*
X11094786Y-15729357D01*
X11109071Y-15786500D01*
X11109071Y-15857929D01*
X11094786Y-15915071D01*
X11080500Y-15943643D01*
X11066214Y-15957929D01*
X11037643Y-15972214D01*
X11009071Y-15972214D01*
X10980500Y-15957929D01*
X10966214Y-15943643D01*
X10951928Y-15915071D01*
X10937643Y-15857929D01*
X10937643Y-15786500D01*
X10951928Y-15729357D01*
X10966214Y-15700786D01*
X10980500Y-15686500D01*
X11009071Y-15672214D01*
X11237643Y-15943643D02*
X11251928Y-15957929D01*
X11237643Y-15972214D01*
X11223357Y-15957929D01*
X11237643Y-15943643D01*
X11237643Y-15972214D01*
X11423357Y-15800786D02*
X11394786Y-15786500D01*
X11380500Y-15772214D01*
X11366214Y-15743643D01*
X11366214Y-15729357D01*
X11380500Y-15700786D01*
X11394786Y-15686500D01*
X11423357Y-15672214D01*
X11480500Y-15672214D01*
X11509071Y-15686500D01*
X11523357Y-15700786D01*
X11537643Y-15729357D01*
X11537643Y-15743643D01*
X11523357Y-15772214D01*
X11509071Y-15786500D01*
X11480500Y-15800786D01*
X11423357Y-15800786D01*
X11394786Y-15815071D01*
X11380500Y-15829357D01*
X11366214Y-15857929D01*
X11366214Y-15915071D01*
X11380500Y-15943643D01*
X11394786Y-15957929D01*
X11423357Y-15972214D01*
X11480500Y-15972214D01*
X11509071Y-15957929D01*
X11523357Y-15943643D01*
X11537643Y-15915071D01*
X11537643Y-15857929D01*
X11523357Y-15829357D01*
X11509071Y-15815071D01*
X11480500Y-15800786D01*
X11723357Y-15672214D02*
X11751928Y-15672214D01*
X11780500Y-15686500D01*
X11794786Y-15700786D01*
X11809071Y-15729357D01*
X11823357Y-15786500D01*
X11823357Y-15857929D01*
X11809071Y-15915071D01*
X11794786Y-15943643D01*
X11780500Y-15957929D01*
X11751928Y-15972214D01*
X11723357Y-15972214D01*
X11694786Y-15957929D01*
X11680500Y-15943643D01*
X11666214Y-15915071D01*
X11651928Y-15857929D01*
X11651928Y-15786500D01*
X11666214Y-15729357D01*
X11680500Y-15700786D01*
X11694786Y-15686500D01*
X11723357Y-15672214D01*
X12009071Y-15672214D02*
X12037643Y-15672214D01*
X12066214Y-15686500D01*
X12080500Y-15700786D01*
X12094786Y-15729357D01*
X12109071Y-15786500D01*
X12109071Y-15857929D01*
X12094786Y-15915071D01*
X12080500Y-15943643D01*
X12066214Y-15957929D01*
X12037643Y-15972214D01*
X12009071Y-15972214D01*
X11980500Y-15957929D01*
X11966214Y-15943643D01*
X11951928Y-15915071D01*
X11937643Y-15857929D01*
X11937643Y-15786500D01*
X11951928Y-15729357D01*
X11966214Y-15700786D01*
X11980500Y-15686500D01*
X12009071Y-15672214D01*
X12237643Y-15972214D02*
X12237643Y-15772214D01*
X12237643Y-15800786D02*
X12251928Y-15786500D01*
X12280500Y-15772214D01*
X12323357Y-15772214D01*
X12351928Y-15786500D01*
X12366214Y-15815071D01*
X12366214Y-15972214D01*
X12366214Y-15815071D02*
X12380500Y-15786500D01*
X12409071Y-15772214D01*
X12451928Y-15772214D01*
X12480500Y-15786500D01*
X12494786Y-15815071D01*
X12494786Y-15972214D01*
X12637643Y-15972214D02*
X12637643Y-15772214D01*
X12637643Y-15800786D02*
X12651928Y-15786500D01*
X12680500Y-15772214D01*
X12723357Y-15772214D01*
X12751928Y-15786500D01*
X12766214Y-15815071D01*
X12766214Y-15972214D01*
X12766214Y-15815071D02*
X12780500Y-15786500D01*
X12809071Y-15772214D01*
X12851928Y-15772214D01*
X12880500Y-15786500D01*
X12894786Y-15815071D01*
X12894786Y-15972214D01*
X13480500Y-15657929D02*
X13223357Y-16043643D01*
X13866214Y-15672214D02*
X13894786Y-15672214D01*
X13923357Y-15686500D01*
X13937643Y-15700786D01*
X13951928Y-15729357D01*
X13966214Y-15786500D01*
X13966214Y-15857929D01*
X13951928Y-15915071D01*
X13937643Y-15943643D01*
X13923357Y-15957929D01*
X13894786Y-15972214D01*
X13866214Y-15972214D01*
X13837643Y-15957929D01*
X13823357Y-15943643D01*
X13809071Y-15915071D01*
X13794786Y-15857929D01*
X13794786Y-15786500D01*
X13809071Y-15729357D01*
X13823357Y-15700786D01*
X13837643Y-15686500D01*
X13866214Y-15672214D01*
X14094786Y-15943643D02*
X14109071Y-15957929D01*
X14094786Y-15972214D01*
X14080500Y-15957929D01*
X14094786Y-15943643D01*
X14094786Y-15972214D01*
X14294786Y-15672214D02*
X14323357Y-15672214D01*
X14351928Y-15686500D01*
X14366214Y-15700786D01*
X14380500Y-15729357D01*
X14394786Y-15786500D01*
X14394786Y-15857929D01*
X14380500Y-15915071D01*
X14366214Y-15943643D01*
X14351928Y-15957929D01*
X14323357Y-15972214D01*
X14294786Y-15972214D01*
X14266214Y-15957929D01*
X14251928Y-15943643D01*
X14237643Y-15915071D01*
X14223357Y-15857929D01*
X14223357Y-15786500D01*
X14237643Y-15729357D01*
X14251928Y-15700786D01*
X14266214Y-15686500D01*
X14294786Y-15672214D01*
X14494786Y-15672214D02*
X14680500Y-15672214D01*
X14580500Y-15786500D01*
X14623357Y-15786500D01*
X14651928Y-15800786D01*
X14666214Y-15815071D01*
X14680500Y-15843643D01*
X14680500Y-15915071D01*
X14666214Y-15943643D01*
X14651928Y-15957929D01*
X14623357Y-15972214D01*
X14537643Y-15972214D01*
X14509071Y-15957929D01*
X14494786Y-15943643D01*
X14966214Y-15972214D02*
X14794786Y-15972214D01*
X14880500Y-15972214D02*
X14880500Y-15672214D01*
X14851928Y-15715071D01*
X14823357Y-15743643D01*
X14794786Y-15757929D01*
X15237643Y-15672214D02*
X15094786Y-15672214D01*
X15080500Y-15815071D01*
X15094786Y-15800786D01*
X15123357Y-15786500D01*
X15194786Y-15786500D01*
X15223357Y-15800786D01*
X15237643Y-15815071D01*
X15251928Y-15843643D01*
X15251928Y-15915071D01*
X15237643Y-15943643D01*
X15223357Y-15957929D01*
X15194786Y-15972214D01*
X15123357Y-15972214D01*
X15094786Y-15957929D01*
X15080500Y-15943643D01*
X15366214Y-15672214D02*
X15366214Y-15729357D01*
X15480500Y-15672214D02*
X15480500Y-15729357D01*
X15923357Y-16086500D02*
X15909071Y-16072214D01*
X15880500Y-16029357D01*
X15866214Y-16000786D01*
X15851928Y-15957929D01*
X15837643Y-15886500D01*
X15837643Y-15829357D01*
X15851928Y-15757929D01*
X15866214Y-15715071D01*
X15880500Y-15686500D01*
X15909071Y-15643643D01*
X15923357Y-15629357D01*
X16194786Y-15972214D02*
X16023357Y-15972214D01*
X16109071Y-15972214D02*
X16109071Y-15672214D01*
X16080500Y-15715071D01*
X16051928Y-15743643D01*
X16023357Y-15757929D01*
X16294786Y-15672214D02*
X16480500Y-15672214D01*
X16380500Y-15786500D01*
X16423357Y-15786500D01*
X16451928Y-15800786D01*
X16466214Y-15815071D01*
X16480500Y-15843643D01*
X16480500Y-15915071D01*
X16466214Y-15943643D01*
X16451928Y-15957929D01*
X16423357Y-15972214D01*
X16337643Y-15972214D01*
X16309071Y-15957929D01*
X16294786Y-15943643D01*
X16594786Y-15700786D02*
X16609071Y-15686500D01*
X16637643Y-15672214D01*
X16709071Y-15672214D01*
X16737643Y-15686500D01*
X16751928Y-15700786D01*
X16766214Y-15729357D01*
X16766214Y-15757929D01*
X16751928Y-15800786D01*
X16580500Y-15972214D01*
X16766214Y-15972214D01*
X17123357Y-15972214D02*
X17123357Y-15672214D01*
X17251928Y-15972214D02*
X17251928Y-15815071D01*
X17237643Y-15786500D01*
X17209071Y-15772214D01*
X17166214Y-15772214D01*
X17137643Y-15786500D01*
X17123357Y-15800786D01*
X17437643Y-15972214D02*
X17409071Y-15957929D01*
X17394786Y-15943643D01*
X17380500Y-15915071D01*
X17380500Y-15829357D01*
X17394786Y-15800786D01*
X17409071Y-15786500D01*
X17437643Y-15772214D01*
X17480500Y-15772214D01*
X17509071Y-15786500D01*
X17523357Y-15800786D01*
X17537643Y-15829357D01*
X17537643Y-15915071D01*
X17523357Y-15943643D01*
X17509071Y-15957929D01*
X17480500Y-15972214D01*
X17437643Y-15972214D01*
X17709071Y-15972214D02*
X17680500Y-15957929D01*
X17666214Y-15929357D01*
X17666214Y-15672214D01*
X17937643Y-15957929D02*
X17909071Y-15972214D01*
X17851928Y-15972214D01*
X17823357Y-15957929D01*
X17809071Y-15929357D01*
X17809071Y-15815071D01*
X17823357Y-15786500D01*
X17851928Y-15772214D01*
X17909071Y-15772214D01*
X17937643Y-15786500D01*
X17951928Y-15815071D01*
X17951928Y-15843643D01*
X17809071Y-15872214D01*
X18066214Y-15957929D02*
X18094786Y-15972214D01*
X18151928Y-15972214D01*
X18180500Y-15957929D01*
X18194786Y-15929357D01*
X18194786Y-15915071D01*
X18180500Y-15886500D01*
X18151928Y-15872214D01*
X18109071Y-15872214D01*
X18080500Y-15857929D01*
X18066214Y-15829357D01*
X18066214Y-15815071D01*
X18080500Y-15786500D01*
X18109071Y-15772214D01*
X18151928Y-15772214D01*
X18180500Y-15786500D01*
X18294786Y-16086500D02*
X18309071Y-16072214D01*
X18337643Y-16029357D01*
X18351928Y-16000786D01*
X18366214Y-15957929D01*
X18380500Y-15886500D01*
X18380500Y-15829357D01*
X18366214Y-15757929D01*
X18351928Y-15715071D01*
X18337643Y-15686500D01*
X18309071Y-15643643D01*
X18294786Y-15629357D01*
X10620500Y-16187500D02*
X10620500Y-16277500D01*
X10575500Y-16232500D02*
X10665500Y-16232500D01*
X11009071Y-16068214D02*
X11037643Y-16068214D01*
X11066214Y-16082500D01*
X11080500Y-16096786D01*
X11094786Y-16125357D01*
X11109071Y-16182500D01*
X11109071Y-16253929D01*
X11094786Y-16311071D01*
X11080500Y-16339643D01*
X11066214Y-16353929D01*
X11037643Y-16368214D01*
X11009071Y-16368214D01*
X10980500Y-16353929D01*
X10966214Y-16339643D01*
X10951928Y-16311071D01*
X10937643Y-16253929D01*
X10937643Y-16182500D01*
X10951928Y-16125357D01*
X10966214Y-16096786D01*
X10980500Y-16082500D01*
X11009071Y-16068214D01*
X11237643Y-16339643D02*
X11251928Y-16353929D01*
X11237643Y-16368214D01*
X11223357Y-16353929D01*
X11237643Y-16339643D01*
X11237643Y-16368214D01*
X11394786Y-16368214D02*
X11451928Y-16368214D01*
X11480500Y-16353929D01*
X11494786Y-16339643D01*
X11523357Y-16296786D01*
X11537643Y-16239643D01*
X11537643Y-16125357D01*
X11523357Y-16096786D01*
X11509071Y-16082500D01*
X11480500Y-16068214D01*
X11423357Y-16068214D01*
X11394786Y-16082500D01*
X11380500Y-16096786D01*
X11366214Y-16125357D01*
X11366214Y-16196786D01*
X11380500Y-16225357D01*
X11394786Y-16239643D01*
X11423357Y-16253929D01*
X11480500Y-16253929D01*
X11509071Y-16239643D01*
X11523357Y-16225357D01*
X11537643Y-16196786D01*
X11723357Y-16068214D02*
X11751928Y-16068214D01*
X11780500Y-16082500D01*
X11794786Y-16096786D01*
X11809071Y-16125357D01*
X11823357Y-16182500D01*
X11823357Y-16253929D01*
X11809071Y-16311071D01*
X11794786Y-16339643D01*
X11780500Y-16353929D01*
X11751928Y-16368214D01*
X11723357Y-16368214D01*
X11694786Y-16353929D01*
X11680500Y-16339643D01*
X11666214Y-16311071D01*
X11651928Y-16253929D01*
X11651928Y-16182500D01*
X11666214Y-16125357D01*
X11680500Y-16096786D01*
X11694786Y-16082500D01*
X11723357Y-16068214D01*
X12009071Y-16068214D02*
X12037643Y-16068214D01*
X12066214Y-16082500D01*
X12080500Y-16096786D01*
X12094786Y-16125357D01*
X12109071Y-16182500D01*
X12109071Y-16253929D01*
X12094786Y-16311071D01*
X12080500Y-16339643D01*
X12066214Y-16353929D01*
X12037643Y-16368214D01*
X12009071Y-16368214D01*
X11980500Y-16353929D01*
X11966214Y-16339643D01*
X11951928Y-16311071D01*
X11937643Y-16253929D01*
X11937643Y-16182500D01*
X11951928Y-16125357D01*
X11966214Y-16096786D01*
X11980500Y-16082500D01*
X12009071Y-16068214D01*
X12237643Y-16368214D02*
X12237643Y-16168214D01*
X12237643Y-16196786D02*
X12251928Y-16182500D01*
X12280500Y-16168214D01*
X12323357Y-16168214D01*
X12351928Y-16182500D01*
X12366214Y-16211071D01*
X12366214Y-16368214D01*
X12366214Y-16211071D02*
X12380500Y-16182500D01*
X12409071Y-16168214D01*
X12451928Y-16168214D01*
X12480500Y-16182500D01*
X12494786Y-16211071D01*
X12494786Y-16368214D01*
X12637643Y-16368214D02*
X12637643Y-16168214D01*
X12637643Y-16196786D02*
X12651928Y-16182500D01*
X12680500Y-16168214D01*
X12723357Y-16168214D01*
X12751928Y-16182500D01*
X12766214Y-16211071D01*
X12766214Y-16368214D01*
X12766214Y-16211071D02*
X12780500Y-16182500D01*
X12809071Y-16168214D01*
X12851928Y-16168214D01*
X12880500Y-16182500D01*
X12894786Y-16211071D01*
X12894786Y-16368214D01*
X13480500Y-16053929D02*
X13223357Y-16439643D01*
X13866214Y-16068214D02*
X13894786Y-16068214D01*
X13923357Y-16082500D01*
X13937643Y-16096786D01*
X13951928Y-16125357D01*
X13966214Y-16182500D01*
X13966214Y-16253929D01*
X13951928Y-16311071D01*
X13937643Y-16339643D01*
X13923357Y-16353929D01*
X13894786Y-16368214D01*
X13866214Y-16368214D01*
X13837643Y-16353929D01*
X13823357Y-16339643D01*
X13809071Y-16311071D01*
X13794786Y-16253929D01*
X13794786Y-16182500D01*
X13809071Y-16125357D01*
X13823357Y-16096786D01*
X13837643Y-16082500D01*
X13866214Y-16068214D01*
X14094786Y-16339643D02*
X14109071Y-16353929D01*
X14094786Y-16368214D01*
X14080500Y-16353929D01*
X14094786Y-16339643D01*
X14094786Y-16368214D01*
X14294786Y-16068214D02*
X14323357Y-16068214D01*
X14351928Y-16082500D01*
X14366214Y-16096786D01*
X14380500Y-16125357D01*
X14394786Y-16182500D01*
X14394786Y-16253929D01*
X14380500Y-16311071D01*
X14366214Y-16339643D01*
X14351928Y-16353929D01*
X14323357Y-16368214D01*
X14294786Y-16368214D01*
X14266214Y-16353929D01*
X14251928Y-16339643D01*
X14237643Y-16311071D01*
X14223357Y-16253929D01*
X14223357Y-16182500D01*
X14237643Y-16125357D01*
X14251928Y-16096786D01*
X14266214Y-16082500D01*
X14294786Y-16068214D01*
X14494786Y-16068214D02*
X14680500Y-16068214D01*
X14580500Y-16182500D01*
X14623357Y-16182500D01*
X14651928Y-16196786D01*
X14666214Y-16211071D01*
X14680500Y-16239643D01*
X14680500Y-16311071D01*
X14666214Y-16339643D01*
X14651928Y-16353929D01*
X14623357Y-16368214D01*
X14537643Y-16368214D01*
X14509071Y-16353929D01*
X14494786Y-16339643D01*
X14951928Y-16068214D02*
X14809071Y-16068214D01*
X14794786Y-16211071D01*
X14809071Y-16196786D01*
X14837643Y-16182500D01*
X14909071Y-16182500D01*
X14937643Y-16196786D01*
X14951928Y-16211071D01*
X14966214Y-16239643D01*
X14966214Y-16311071D01*
X14951928Y-16339643D01*
X14937643Y-16353929D01*
X14909071Y-16368214D01*
X14837643Y-16368214D01*
X14809071Y-16353929D01*
X14794786Y-16339643D01*
X15223357Y-16168214D02*
X15223357Y-16368214D01*
X15151928Y-16053929D02*
X15080500Y-16268214D01*
X15266214Y-16268214D01*
X15366214Y-16068214D02*
X15366214Y-16125357D01*
X15480500Y-16068214D02*
X15480500Y-16125357D01*
X15923357Y-16482500D02*
X15909071Y-16468214D01*
X15880500Y-16425357D01*
X15866214Y-16396786D01*
X15851928Y-16353929D01*
X15837643Y-16282500D01*
X15837643Y-16225357D01*
X15851928Y-16153929D01*
X15866214Y-16111071D01*
X15880500Y-16082500D01*
X15909071Y-16039643D01*
X15923357Y-16025357D01*
X16166214Y-16168214D02*
X16166214Y-16368214D01*
X16094786Y-16053929D02*
X16023357Y-16268214D01*
X16209071Y-16268214D01*
X16551928Y-16368214D02*
X16551928Y-16068214D01*
X16680500Y-16368214D02*
X16680500Y-16211071D01*
X16666214Y-16182500D01*
X16637643Y-16168214D01*
X16594786Y-16168214D01*
X16566214Y-16182500D01*
X16551928Y-16196786D01*
X16866214Y-16368214D02*
X16837643Y-16353929D01*
X16823357Y-16339643D01*
X16809071Y-16311071D01*
X16809071Y-16225357D01*
X16823357Y-16196786D01*
X16837643Y-16182500D01*
X16866214Y-16168214D01*
X16909071Y-16168214D01*
X16937643Y-16182500D01*
X16951928Y-16196786D01*
X16966214Y-16225357D01*
X16966214Y-16311071D01*
X16951928Y-16339643D01*
X16937643Y-16353929D01*
X16909071Y-16368214D01*
X16866214Y-16368214D01*
X17137643Y-16368214D02*
X17109071Y-16353929D01*
X17094786Y-16325357D01*
X17094786Y-16068214D01*
X17366214Y-16353929D02*
X17337643Y-16368214D01*
X17280500Y-16368214D01*
X17251928Y-16353929D01*
X17237643Y-16325357D01*
X17237643Y-16211071D01*
X17251928Y-16182500D01*
X17280500Y-16168214D01*
X17337643Y-16168214D01*
X17366214Y-16182500D01*
X17380500Y-16211071D01*
X17380500Y-16239643D01*
X17237643Y-16268214D01*
X17494786Y-16353929D02*
X17523357Y-16368214D01*
X17580500Y-16368214D01*
X17609071Y-16353929D01*
X17623357Y-16325357D01*
X17623357Y-16311071D01*
X17609071Y-16282500D01*
X17580500Y-16268214D01*
X17537643Y-16268214D01*
X17509071Y-16253929D01*
X17494786Y-16225357D01*
X17494786Y-16211071D01*
X17509071Y-16182500D01*
X17537643Y-16168214D01*
X17580500Y-16168214D01*
X17609071Y-16182500D01*
X17723357Y-16482500D02*
X17737643Y-16468214D01*
X17766214Y-16425357D01*
X17780500Y-16396786D01*
X17794786Y-16353929D01*
X17809071Y-16282500D01*
X17809071Y-16225357D01*
X17794786Y-16153929D01*
X17780500Y-16111071D01*
X17766214Y-16082500D01*
X17737643Y-16039643D01*
X17723357Y-16025357D01*
X10636211Y-16699211D02*
X10636211Y-16557789D01*
X10494789Y-16557789D01*
X10494789Y-16699211D01*
X10636211Y-16699211D01*
X10937643Y-16492786D02*
X10951928Y-16478500D01*
X10980500Y-16464214D01*
X11051928Y-16464214D01*
X11080500Y-16478500D01*
X11094786Y-16492786D01*
X11109071Y-16521357D01*
X11109071Y-16549929D01*
X11094786Y-16592786D01*
X10923357Y-16764214D01*
X11109071Y-16764214D01*
X11237643Y-16735643D02*
X11251928Y-16749929D01*
X11237643Y-16764214D01*
X11223357Y-16749929D01*
X11237643Y-16735643D01*
X11237643Y-16764214D01*
X11437643Y-16464214D02*
X11466214Y-16464214D01*
X11494786Y-16478500D01*
X11509071Y-16492786D01*
X11523357Y-16521357D01*
X11537643Y-16578500D01*
X11537643Y-16649929D01*
X11523357Y-16707071D01*
X11509071Y-16735643D01*
X11494786Y-16749929D01*
X11466214Y-16764214D01*
X11437643Y-16764214D01*
X11409071Y-16749929D01*
X11394786Y-16735643D01*
X11380500Y-16707071D01*
X11366214Y-16649929D01*
X11366214Y-16578500D01*
X11380500Y-16521357D01*
X11394786Y-16492786D01*
X11409071Y-16478500D01*
X11437643Y-16464214D01*
X11723357Y-16464214D02*
X11751928Y-16464214D01*
X11780500Y-16478500D01*
X11794786Y-16492786D01*
X11809071Y-16521357D01*
X11823357Y-16578500D01*
X11823357Y-16649929D01*
X11809071Y-16707071D01*
X11794786Y-16735643D01*
X11780500Y-16749929D01*
X11751928Y-16764214D01*
X11723357Y-16764214D01*
X11694786Y-16749929D01*
X11680500Y-16735643D01*
X11666214Y-16707071D01*
X11651928Y-16649929D01*
X11651928Y-16578500D01*
X11666214Y-16521357D01*
X11680500Y-16492786D01*
X11694786Y-16478500D01*
X11723357Y-16464214D01*
X12009071Y-16464214D02*
X12037643Y-16464214D01*
X12066214Y-16478500D01*
X12080500Y-16492786D01*
X12094786Y-16521357D01*
X12109071Y-16578500D01*
X12109071Y-16649929D01*
X12094786Y-16707071D01*
X12080500Y-16735643D01*
X12066214Y-16749929D01*
X12037643Y-16764214D01*
X12009071Y-16764214D01*
X11980500Y-16749929D01*
X11966214Y-16735643D01*
X11951928Y-16707071D01*
X11937643Y-16649929D01*
X11937643Y-16578500D01*
X11951928Y-16521357D01*
X11966214Y-16492786D01*
X11980500Y-16478500D01*
X12009071Y-16464214D01*
X12237643Y-16764214D02*
X12237643Y-16564214D01*
X12237643Y-16592786D02*
X12251928Y-16578500D01*
X12280500Y-16564214D01*
X12323357Y-16564214D01*
X12351928Y-16578500D01*
X12366214Y-16607071D01*
X12366214Y-16764214D01*
X12366214Y-16607071D02*
X12380500Y-16578500D01*
X12409071Y-16564214D01*
X12451928Y-16564214D01*
X12480500Y-16578500D01*
X12494786Y-16607071D01*
X12494786Y-16764214D01*
X12637643Y-16764214D02*
X12637643Y-16564214D01*
X12637643Y-16592786D02*
X12651928Y-16578500D01*
X12680500Y-16564214D01*
X12723357Y-16564214D01*
X12751928Y-16578500D01*
X12766214Y-16607071D01*
X12766214Y-16764214D01*
X12766214Y-16607071D02*
X12780500Y-16578500D01*
X12809071Y-16564214D01*
X12851928Y-16564214D01*
X12880500Y-16578500D01*
X12894786Y-16607071D01*
X12894786Y-16764214D01*
X13480500Y-16449929D02*
X13223357Y-16835643D01*
X13866214Y-16464214D02*
X13894786Y-16464214D01*
X13923357Y-16478500D01*
X13937643Y-16492786D01*
X13951928Y-16521357D01*
X13966214Y-16578500D01*
X13966214Y-16649929D01*
X13951928Y-16707071D01*
X13937643Y-16735643D01*
X13923357Y-16749929D01*
X13894786Y-16764214D01*
X13866214Y-16764214D01*
X13837643Y-16749929D01*
X13823357Y-16735643D01*
X13809071Y-16707071D01*
X13794786Y-16649929D01*
X13794786Y-16578500D01*
X13809071Y-16521357D01*
X13823357Y-16492786D01*
X13837643Y-16478500D01*
X13866214Y-16464214D01*
X14094786Y-16735643D02*
X14109071Y-16749929D01*
X14094786Y-16764214D01*
X14080500Y-16749929D01*
X14094786Y-16735643D01*
X14094786Y-16764214D01*
X14294786Y-16464214D02*
X14323357Y-16464214D01*
X14351928Y-16478500D01*
X14366214Y-16492786D01*
X14380500Y-16521357D01*
X14394786Y-16578500D01*
X14394786Y-16649929D01*
X14380500Y-16707071D01*
X14366214Y-16735643D01*
X14351928Y-16749929D01*
X14323357Y-16764214D01*
X14294786Y-16764214D01*
X14266214Y-16749929D01*
X14251928Y-16735643D01*
X14237643Y-16707071D01*
X14223357Y-16649929D01*
X14223357Y-16578500D01*
X14237643Y-16521357D01*
X14251928Y-16492786D01*
X14266214Y-16478500D01*
X14294786Y-16464214D01*
X14494786Y-16464214D02*
X14694786Y-16464214D01*
X14566214Y-16764214D01*
X14851928Y-16592786D02*
X14823357Y-16578500D01*
X14809071Y-16564214D01*
X14794786Y-16535643D01*
X14794786Y-16521357D01*
X14809071Y-16492786D01*
X14823357Y-16478500D01*
X14851928Y-16464214D01*
X14909071Y-16464214D01*
X14937643Y-16478500D01*
X14951928Y-16492786D01*
X14966214Y-16521357D01*
X14966214Y-16535643D01*
X14951928Y-16564214D01*
X14937643Y-16578500D01*
X14909071Y-16592786D01*
X14851928Y-16592786D01*
X14823357Y-16607071D01*
X14809071Y-16621357D01*
X14794786Y-16649929D01*
X14794786Y-16707071D01*
X14809071Y-16735643D01*
X14823357Y-16749929D01*
X14851928Y-16764214D01*
X14909071Y-16764214D01*
X14937643Y-16749929D01*
X14951928Y-16735643D01*
X14966214Y-16707071D01*
X14966214Y-16649929D01*
X14951928Y-16621357D01*
X14937643Y-16607071D01*
X14909071Y-16592786D01*
X15066214Y-16464214D02*
X15266214Y-16464214D01*
X15137643Y-16764214D01*
X15366214Y-16464214D02*
X15366214Y-16521357D01*
X15480500Y-16464214D02*
X15480500Y-16521357D01*
X15923357Y-16878500D02*
X15909071Y-16864214D01*
X15880500Y-16821357D01*
X15866214Y-16792786D01*
X15851928Y-16749929D01*
X15837643Y-16678500D01*
X15837643Y-16621357D01*
X15851928Y-16549929D01*
X15866214Y-16507071D01*
X15880500Y-16478500D01*
X15909071Y-16435643D01*
X15923357Y-16421357D01*
X16009071Y-16464214D02*
X16194786Y-16464214D01*
X16094786Y-16578500D01*
X16137643Y-16578500D01*
X16166214Y-16592786D01*
X16180500Y-16607071D01*
X16194786Y-16635643D01*
X16194786Y-16707071D01*
X16180500Y-16735643D01*
X16166214Y-16749929D01*
X16137643Y-16764214D01*
X16051928Y-16764214D01*
X16023357Y-16749929D01*
X16009071Y-16735643D01*
X16551928Y-16764214D02*
X16551928Y-16464214D01*
X16680500Y-16764214D02*
X16680500Y-16607071D01*
X16666214Y-16578500D01*
X16637643Y-16564214D01*
X16594786Y-16564214D01*
X16566214Y-16578500D01*
X16551928Y-16592786D01*
X16866214Y-16764214D02*
X16837643Y-16749929D01*
X16823357Y-16735643D01*
X16809071Y-16707071D01*
X16809071Y-16621357D01*
X16823357Y-16592786D01*
X16837643Y-16578500D01*
X16866214Y-16564214D01*
X16909071Y-16564214D01*
X16937643Y-16578500D01*
X16951928Y-16592786D01*
X16966214Y-16621357D01*
X16966214Y-16707071D01*
X16951928Y-16735643D01*
X16937643Y-16749929D01*
X16909071Y-16764214D01*
X16866214Y-16764214D01*
X17137643Y-16764214D02*
X17109071Y-16749929D01*
X17094786Y-16721357D01*
X17094786Y-16464214D01*
X17366214Y-16749929D02*
X17337643Y-16764214D01*
X17280500Y-16764214D01*
X17251928Y-16749929D01*
X17237643Y-16721357D01*
X17237643Y-16607071D01*
X17251928Y-16578500D01*
X17280500Y-16564214D01*
X17337643Y-16564214D01*
X17366214Y-16578500D01*
X17380500Y-16607071D01*
X17380500Y-16635643D01*
X17237643Y-16664214D01*
X17494786Y-16749929D02*
X17523357Y-16764214D01*
X17580500Y-16764214D01*
X17609071Y-16749929D01*
X17623357Y-16721357D01*
X17623357Y-16707071D01*
X17609071Y-16678500D01*
X17580500Y-16664214D01*
X17537643Y-16664214D01*
X17509071Y-16649929D01*
X17494786Y-16621357D01*
X17494786Y-16607071D01*
X17509071Y-16578500D01*
X17537643Y-16564214D01*
X17580500Y-16564214D01*
X17609071Y-16578500D01*
X17723357Y-16878500D02*
X17737643Y-16864214D01*
X17766214Y-16821357D01*
X17780500Y-16792786D01*
X17794786Y-16749929D01*
X17809071Y-16678500D01*
X17809071Y-16621357D01*
X17794786Y-16549929D01*
X17780500Y-16507071D01*
X17766214Y-16478500D01*
X17737643Y-16435643D01*
X17723357Y-16421357D01*
M02*
