%TF.GenerationSoftware,KiCad,Pcbnew,(5.1.12)-1*%
%TF.CreationDate,2022-01-03T17:17:52+00:00*%
%TF.ProjectId,A600_68k_PLCC_to_DIP64 _v1,41363030-5f36-4386-9b5f-504c43435f74,B*%
%TF.SameCoordinates,Original*%
%TF.FileFunction,Legend,Bot*%
%TF.FilePolarity,Positive*%
%FSLAX46Y46*%
G04 Gerber Fmt 4.6, Leading zero omitted, Abs format (unit mm)*
G04 Created by KiCad (PCBNEW (5.1.12)-1) date 2022-01-03 17:17:52*
%MOMM*%
%LPD*%
G01*
G04 APERTURE LIST*
%ADD10C,0.150000*%
%ADD11C,0.120000*%
%ADD12C,1.422400*%
%ADD13R,1.422400X1.422400*%
%ADD14C,0.700000*%
%ADD15C,4.000000*%
%ADD16C,1.408000*%
%ADD17R,1.408000X1.408000*%
G04 APERTURE END LIST*
D10*
X190712619Y-71782380D02*
X190141190Y-71782380D01*
X190426904Y-72782380D02*
X190426904Y-71782380D01*
X189807857Y-72782380D02*
X189807857Y-71782380D01*
X189807857Y-72258571D02*
X189236428Y-72258571D01*
X189236428Y-72782380D02*
X189236428Y-71782380D01*
X188760238Y-72782380D02*
X188760238Y-71782380D01*
X188331666Y-72734761D02*
X188188809Y-72782380D01*
X187950714Y-72782380D01*
X187855476Y-72734761D01*
X187807857Y-72687142D01*
X187760238Y-72591904D01*
X187760238Y-72496666D01*
X187807857Y-72401428D01*
X187855476Y-72353809D01*
X187950714Y-72306190D01*
X188141190Y-72258571D01*
X188236428Y-72210952D01*
X188284047Y-72163333D01*
X188331666Y-72068095D01*
X188331666Y-71972857D01*
X188284047Y-71877619D01*
X188236428Y-71830000D01*
X188141190Y-71782380D01*
X187903095Y-71782380D01*
X187760238Y-71830000D01*
X185998333Y-72687142D02*
X186045952Y-72734761D01*
X186188809Y-72782380D01*
X186284047Y-72782380D01*
X186426904Y-72734761D01*
X186522142Y-72639523D01*
X186569761Y-72544285D01*
X186617380Y-72353809D01*
X186617380Y-72210952D01*
X186569761Y-72020476D01*
X186522142Y-71925238D01*
X186426904Y-71830000D01*
X186284047Y-71782380D01*
X186188809Y-71782380D01*
X186045952Y-71830000D01*
X185998333Y-71877619D01*
X185379285Y-71782380D02*
X185188809Y-71782380D01*
X185093571Y-71830000D01*
X184998333Y-71925238D01*
X184950714Y-72115714D01*
X184950714Y-72449047D01*
X184998333Y-72639523D01*
X185093571Y-72734761D01*
X185188809Y-72782380D01*
X185379285Y-72782380D01*
X185474523Y-72734761D01*
X185569761Y-72639523D01*
X185617380Y-72449047D01*
X185617380Y-72115714D01*
X185569761Y-71925238D01*
X185474523Y-71830000D01*
X185379285Y-71782380D01*
X184522142Y-72782380D02*
X184522142Y-71782380D01*
X183950714Y-72782380D01*
X183950714Y-71782380D01*
X183474523Y-72782380D02*
X183474523Y-71782380D01*
X182903095Y-72782380D01*
X182903095Y-71782380D01*
X182426904Y-72258571D02*
X182093571Y-72258571D01*
X181950714Y-72782380D02*
X182426904Y-72782380D01*
X182426904Y-71782380D01*
X181950714Y-71782380D01*
X180950714Y-72687142D02*
X180998333Y-72734761D01*
X181141190Y-72782380D01*
X181236428Y-72782380D01*
X181379285Y-72734761D01*
X181474523Y-72639523D01*
X181522142Y-72544285D01*
X181569761Y-72353809D01*
X181569761Y-72210952D01*
X181522142Y-72020476D01*
X181474523Y-71925238D01*
X181379285Y-71830000D01*
X181236428Y-71782380D01*
X181141190Y-71782380D01*
X180998333Y-71830000D01*
X180950714Y-71877619D01*
X180665000Y-71782380D02*
X180093571Y-71782380D01*
X180379285Y-72782380D02*
X180379285Y-71782380D01*
X179569761Y-71782380D02*
X179379285Y-71782380D01*
X179284047Y-71830000D01*
X179188809Y-71925238D01*
X179141190Y-72115714D01*
X179141190Y-72449047D01*
X179188809Y-72639523D01*
X179284047Y-72734761D01*
X179379285Y-72782380D01*
X179569761Y-72782380D01*
X179665000Y-72734761D01*
X179760238Y-72639523D01*
X179807857Y-72449047D01*
X179807857Y-72115714D01*
X179760238Y-71925238D01*
X179665000Y-71830000D01*
X179569761Y-71782380D01*
X178141190Y-72782380D02*
X178474523Y-72306190D01*
X178712619Y-72782380D02*
X178712619Y-71782380D01*
X178331666Y-71782380D01*
X178236428Y-71830000D01*
X178188809Y-71877619D01*
X178141190Y-71972857D01*
X178141190Y-72115714D01*
X178188809Y-72210952D01*
X178236428Y-72258571D01*
X178331666Y-72306190D01*
X178712619Y-72306190D01*
X176950714Y-72782380D02*
X176950714Y-71782380D01*
X176522142Y-72734761D02*
X176379285Y-72782380D01*
X176141190Y-72782380D01*
X176045952Y-72734761D01*
X175998333Y-72687142D01*
X175950714Y-72591904D01*
X175950714Y-72496666D01*
X175998333Y-72401428D01*
X176045952Y-72353809D01*
X176141190Y-72306190D01*
X176331666Y-72258571D01*
X176426904Y-72210952D01*
X176474523Y-72163333D01*
X176522142Y-72068095D01*
X176522142Y-71972857D01*
X176474523Y-71877619D01*
X176426904Y-71830000D01*
X176331666Y-71782380D01*
X176093571Y-71782380D01*
X175950714Y-71830000D01*
X174426904Y-72258571D02*
X174760238Y-72258571D01*
X174760238Y-72782380D02*
X174760238Y-71782380D01*
X174284047Y-71782380D01*
X173712619Y-71782380D02*
X173522142Y-71782380D01*
X173426904Y-71830000D01*
X173331666Y-71925238D01*
X173284047Y-72115714D01*
X173284047Y-72449047D01*
X173331666Y-72639523D01*
X173426904Y-72734761D01*
X173522142Y-72782380D01*
X173712619Y-72782380D01*
X173807857Y-72734761D01*
X173903095Y-72639523D01*
X173950714Y-72449047D01*
X173950714Y-72115714D01*
X173903095Y-71925238D01*
X173807857Y-71830000D01*
X173712619Y-71782380D01*
X172284047Y-72782380D02*
X172617380Y-72306190D01*
X172855476Y-72782380D02*
X172855476Y-71782380D01*
X172474523Y-71782380D01*
X172379285Y-71830000D01*
X172331666Y-71877619D01*
X172284047Y-71972857D01*
X172284047Y-72115714D01*
X172331666Y-72210952D01*
X172379285Y-72258571D01*
X172474523Y-72306190D01*
X172855476Y-72306190D01*
X171141190Y-72496666D02*
X170665000Y-72496666D01*
X171236428Y-72782380D02*
X170903095Y-71782380D01*
X170569761Y-72782380D01*
X170236428Y-72782380D02*
X170236428Y-71782380D01*
X169855476Y-71782380D01*
X169760238Y-71830000D01*
X169712619Y-71877619D01*
X169665000Y-71972857D01*
X169665000Y-72115714D01*
X169712619Y-72210952D01*
X169760238Y-72258571D01*
X169855476Y-72306190D01*
X170236428Y-72306190D01*
X169236428Y-72782380D02*
X169236428Y-71782380D01*
X168855476Y-71782380D01*
X168760238Y-71830000D01*
X168712619Y-71877619D01*
X168665000Y-71972857D01*
X168665000Y-72115714D01*
X168712619Y-72210952D01*
X168760238Y-72258571D01*
X168855476Y-72306190D01*
X169236428Y-72306190D01*
X167760238Y-72782380D02*
X168236428Y-72782380D01*
X168236428Y-71782380D01*
X167236428Y-72306190D02*
X167236428Y-72782380D01*
X167569761Y-71782380D02*
X167236428Y-72306190D01*
X166903095Y-71782380D01*
X166569761Y-72782380D02*
X166569761Y-71782380D01*
X166093571Y-72782380D02*
X166093571Y-71782380D01*
X165522142Y-72782380D01*
X165522142Y-71782380D01*
X164522142Y-71830000D02*
X164617380Y-71782380D01*
X164760238Y-71782380D01*
X164903095Y-71830000D01*
X164998333Y-71925238D01*
X165045952Y-72020476D01*
X165093571Y-72210952D01*
X165093571Y-72353809D01*
X165045952Y-72544285D01*
X164998333Y-72639523D01*
X164903095Y-72734761D01*
X164760238Y-72782380D01*
X164665000Y-72782380D01*
X164522142Y-72734761D01*
X164474523Y-72687142D01*
X164474523Y-72353809D01*
X164665000Y-72353809D01*
X186569761Y-74146666D02*
X186093571Y-74146666D01*
X186665000Y-74432380D02*
X186331666Y-73432380D01*
X185998333Y-74432380D01*
X185665000Y-74432380D02*
X185665000Y-73432380D01*
X185426904Y-73432380D01*
X185284047Y-73480000D01*
X185188809Y-73575238D01*
X185141190Y-73670476D01*
X185093571Y-73860952D01*
X185093571Y-74003809D01*
X185141190Y-74194285D01*
X185188809Y-74289523D01*
X185284047Y-74384761D01*
X185426904Y-74432380D01*
X185665000Y-74432380D01*
X184665000Y-74432380D02*
X184665000Y-73432380D01*
X184426904Y-73432380D01*
X184284047Y-73480000D01*
X184188809Y-73575238D01*
X184141190Y-73670476D01*
X184093571Y-73860952D01*
X184093571Y-74003809D01*
X184141190Y-74194285D01*
X184188809Y-74289523D01*
X184284047Y-74384761D01*
X184426904Y-74432380D01*
X184665000Y-74432380D01*
X183665000Y-74432380D02*
X183665000Y-73432380D01*
X183331666Y-73432380D02*
X182760238Y-73432380D01*
X183045952Y-74432380D02*
X183045952Y-73432380D01*
X182426904Y-74432380D02*
X182426904Y-73432380D01*
X181760238Y-73432380D02*
X181569761Y-73432380D01*
X181474523Y-73480000D01*
X181379285Y-73575238D01*
X181331666Y-73765714D01*
X181331666Y-74099047D01*
X181379285Y-74289523D01*
X181474523Y-74384761D01*
X181569761Y-74432380D01*
X181760238Y-74432380D01*
X181855476Y-74384761D01*
X181950714Y-74289523D01*
X181998333Y-74099047D01*
X181998333Y-73765714D01*
X181950714Y-73575238D01*
X181855476Y-73480000D01*
X181760238Y-73432380D01*
X180903095Y-74432380D02*
X180903095Y-73432380D01*
X180331666Y-74432380D01*
X180331666Y-73432380D01*
X179903095Y-74146666D02*
X179426904Y-74146666D01*
X179998333Y-74432380D02*
X179665000Y-73432380D01*
X179331666Y-74432380D01*
X178522142Y-74432380D02*
X178998333Y-74432380D01*
X178998333Y-73432380D01*
X177426904Y-74432380D02*
X177426904Y-73432380D01*
X177045952Y-73432380D01*
X176950714Y-73480000D01*
X176903095Y-73527619D01*
X176855476Y-73622857D01*
X176855476Y-73765714D01*
X176903095Y-73860952D01*
X176950714Y-73908571D01*
X177045952Y-73956190D01*
X177426904Y-73956190D01*
X176236428Y-73432380D02*
X176045952Y-73432380D01*
X175950714Y-73480000D01*
X175855476Y-73575238D01*
X175807857Y-73765714D01*
X175807857Y-74099047D01*
X175855476Y-74289523D01*
X175950714Y-74384761D01*
X176045952Y-74432380D01*
X176236428Y-74432380D01*
X176331666Y-74384761D01*
X176426904Y-74289523D01*
X176474523Y-74099047D01*
X176474523Y-73765714D01*
X176426904Y-73575238D01*
X176331666Y-73480000D01*
X176236428Y-73432380D01*
X175474523Y-73432380D02*
X175236428Y-74432380D01*
X175045952Y-73718095D01*
X174855476Y-74432380D01*
X174617380Y-73432380D01*
X174236428Y-73908571D02*
X173903095Y-73908571D01*
X173760238Y-74432380D02*
X174236428Y-74432380D01*
X174236428Y-73432380D01*
X173760238Y-73432380D01*
X172760238Y-74432380D02*
X173093571Y-73956190D01*
X173331666Y-74432380D02*
X173331666Y-73432380D01*
X172950714Y-73432380D01*
X172855476Y-73480000D01*
X172807857Y-73527619D01*
X172760238Y-73622857D01*
X172760238Y-73765714D01*
X172807857Y-73860952D01*
X172855476Y-73908571D01*
X172950714Y-73956190D01*
X173331666Y-73956190D01*
X171379285Y-73432380D02*
X171188809Y-73432380D01*
X171093571Y-73480000D01*
X170998333Y-73575238D01*
X170950714Y-73765714D01*
X170950714Y-74099047D01*
X170998333Y-74289523D01*
X171093571Y-74384761D01*
X171188809Y-74432380D01*
X171379285Y-74432380D01*
X171474523Y-74384761D01*
X171569761Y-74289523D01*
X171617380Y-74099047D01*
X171617380Y-73765714D01*
X171569761Y-73575238D01*
X171474523Y-73480000D01*
X171379285Y-73432380D01*
X170522142Y-74432380D02*
X170522142Y-73432380D01*
X169950714Y-74432380D01*
X169950714Y-73432380D01*
X168998333Y-74432380D02*
X169474523Y-74432380D01*
X169474523Y-73432380D01*
X168474523Y-73956190D02*
X168474523Y-74432380D01*
X168807857Y-73432380D02*
X168474523Y-73956190D01*
X168141190Y-73432380D01*
X167807857Y-74337142D02*
X167760238Y-74384761D01*
X167807857Y-74432380D01*
X167855476Y-74384761D01*
X167807857Y-74337142D01*
X167807857Y-74432380D01*
X167807857Y-74051428D02*
X167855476Y-73480000D01*
X167807857Y-73432380D01*
X167760238Y-73480000D01*
X167807857Y-74051428D01*
X167807857Y-73432380D01*
X187998333Y-76082380D02*
X187998333Y-75082380D01*
X187760238Y-75082380D01*
X187617380Y-75130000D01*
X187522142Y-75225238D01*
X187474523Y-75320476D01*
X187426904Y-75510952D01*
X187426904Y-75653809D01*
X187474523Y-75844285D01*
X187522142Y-75939523D01*
X187617380Y-76034761D01*
X187760238Y-76082380D01*
X187998333Y-76082380D01*
X186807857Y-75082380D02*
X186617380Y-75082380D01*
X186522142Y-75130000D01*
X186426904Y-75225238D01*
X186379285Y-75415714D01*
X186379285Y-75749047D01*
X186426904Y-75939523D01*
X186522142Y-76034761D01*
X186617380Y-76082380D01*
X186807857Y-76082380D01*
X186903095Y-76034761D01*
X186998333Y-75939523D01*
X187045952Y-75749047D01*
X187045952Y-75415714D01*
X186998333Y-75225238D01*
X186903095Y-75130000D01*
X186807857Y-75082380D01*
X185188809Y-76082380D02*
X185188809Y-75082380D01*
X184617380Y-76082380D01*
X184617380Y-75082380D01*
X183950714Y-75082380D02*
X183760238Y-75082380D01*
X183665000Y-75130000D01*
X183569761Y-75225238D01*
X183522142Y-75415714D01*
X183522142Y-75749047D01*
X183569761Y-75939523D01*
X183665000Y-76034761D01*
X183760238Y-76082380D01*
X183950714Y-76082380D01*
X184045952Y-76034761D01*
X184141190Y-75939523D01*
X184188809Y-75749047D01*
X184188809Y-75415714D01*
X184141190Y-75225238D01*
X184045952Y-75130000D01*
X183950714Y-75082380D01*
X183236428Y-75082380D02*
X182665000Y-75082380D01*
X182950714Y-76082380D02*
X182950714Y-75082380D01*
X181569761Y-75082380D02*
X181569761Y-75891904D01*
X181522142Y-75987142D01*
X181474523Y-76034761D01*
X181379285Y-76082380D01*
X181188809Y-76082380D01*
X181093571Y-76034761D01*
X181045952Y-75987142D01*
X180998333Y-75891904D01*
X180998333Y-75082380D01*
X180569761Y-76034761D02*
X180426904Y-76082380D01*
X180188809Y-76082380D01*
X180093571Y-76034761D01*
X180045952Y-75987142D01*
X179998333Y-75891904D01*
X179998333Y-75796666D01*
X180045952Y-75701428D01*
X180093571Y-75653809D01*
X180188809Y-75606190D01*
X180379285Y-75558571D01*
X180474523Y-75510952D01*
X180522142Y-75463333D01*
X180569761Y-75368095D01*
X180569761Y-75272857D01*
X180522142Y-75177619D01*
X180474523Y-75130000D01*
X180379285Y-75082380D01*
X180141190Y-75082380D01*
X179998333Y-75130000D01*
X179569761Y-75558571D02*
X179236428Y-75558571D01*
X179093571Y-76082380D02*
X179569761Y-76082380D01*
X179569761Y-75082380D01*
X179093571Y-75082380D01*
X177569761Y-75558571D02*
X177903095Y-75558571D01*
X177903095Y-76082380D02*
X177903095Y-75082380D01*
X177426904Y-75082380D01*
X176855476Y-75082380D02*
X176665000Y-75082380D01*
X176569761Y-75130000D01*
X176474523Y-75225238D01*
X176426904Y-75415714D01*
X176426904Y-75749047D01*
X176474523Y-75939523D01*
X176569761Y-76034761D01*
X176665000Y-76082380D01*
X176855476Y-76082380D01*
X176950714Y-76034761D01*
X177045952Y-75939523D01*
X177093571Y-75749047D01*
X177093571Y-75415714D01*
X177045952Y-75225238D01*
X176950714Y-75130000D01*
X176855476Y-75082380D01*
X175426904Y-76082380D02*
X175760238Y-75606190D01*
X175998333Y-76082380D02*
X175998333Y-75082380D01*
X175617380Y-75082380D01*
X175522142Y-75130000D01*
X175474523Y-75177619D01*
X175426904Y-75272857D01*
X175426904Y-75415714D01*
X175474523Y-75510952D01*
X175522142Y-75558571D01*
X175617380Y-75606190D01*
X175998333Y-75606190D01*
X174236428Y-76082380D02*
X174236428Y-75082380D01*
X173855476Y-75082380D01*
X173760238Y-75130000D01*
X173712619Y-75177619D01*
X173665000Y-75272857D01*
X173665000Y-75415714D01*
X173712619Y-75510952D01*
X173760238Y-75558571D01*
X173855476Y-75606190D01*
X174236428Y-75606190D01*
X173045952Y-75082380D02*
X172855476Y-75082380D01*
X172760238Y-75130000D01*
X172665000Y-75225238D01*
X172617380Y-75415714D01*
X172617380Y-75749047D01*
X172665000Y-75939523D01*
X172760238Y-76034761D01*
X172855476Y-76082380D01*
X173045952Y-76082380D01*
X173141190Y-76034761D01*
X173236428Y-75939523D01*
X173284047Y-75749047D01*
X173284047Y-75415714D01*
X173236428Y-75225238D01*
X173141190Y-75130000D01*
X173045952Y-75082380D01*
X172284047Y-75082380D02*
X172045952Y-76082380D01*
X171855476Y-75368095D01*
X171665000Y-76082380D01*
X171426904Y-75082380D01*
X171045952Y-75558571D02*
X170712619Y-75558571D01*
X170569761Y-76082380D02*
X171045952Y-76082380D01*
X171045952Y-75082380D01*
X170569761Y-75082380D01*
X169569761Y-76082380D02*
X169903095Y-75606190D01*
X170141190Y-76082380D02*
X170141190Y-75082380D01*
X169760238Y-75082380D01*
X169665000Y-75130000D01*
X169617380Y-75177619D01*
X169569761Y-75272857D01*
X169569761Y-75415714D01*
X169617380Y-75510952D01*
X169665000Y-75558571D01*
X169760238Y-75606190D01*
X170141190Y-75606190D01*
X169141190Y-76082380D02*
X169141190Y-75082380D01*
X168665000Y-76082380D02*
X168665000Y-75082380D01*
X168093571Y-76082380D01*
X168093571Y-75082380D01*
X167093571Y-75130000D02*
X167188809Y-75082380D01*
X167331666Y-75082380D01*
X167474523Y-75130000D01*
X167569761Y-75225238D01*
X167617380Y-75320476D01*
X167665000Y-75510952D01*
X167665000Y-75653809D01*
X167617380Y-75844285D01*
X167569761Y-75939523D01*
X167474523Y-76034761D01*
X167331666Y-76082380D01*
X167236428Y-76082380D01*
X167093571Y-76034761D01*
X167045952Y-75987142D01*
X167045952Y-75653809D01*
X167236428Y-75653809D01*
X184212619Y-77208571D02*
X183879285Y-77208571D01*
X183736428Y-77732380D02*
X184212619Y-77732380D01*
X184212619Y-76732380D01*
X183736428Y-76732380D01*
X183403095Y-76732380D02*
X182736428Y-77732380D01*
X182736428Y-76732380D02*
X183403095Y-77732380D01*
X182498333Y-76732380D02*
X181926904Y-76732380D01*
X182212619Y-77732380D02*
X182212619Y-76732380D01*
X181593571Y-77208571D02*
X181260238Y-77208571D01*
X181117380Y-77732380D02*
X181593571Y-77732380D01*
X181593571Y-76732380D01*
X181117380Y-76732380D01*
X180117380Y-77732380D02*
X180450714Y-77256190D01*
X180688809Y-77732380D02*
X180688809Y-76732380D01*
X180307857Y-76732380D01*
X180212619Y-76780000D01*
X180165000Y-76827619D01*
X180117380Y-76922857D01*
X180117380Y-77065714D01*
X180165000Y-77160952D01*
X180212619Y-77208571D01*
X180307857Y-77256190D01*
X180688809Y-77256190D01*
X179688809Y-77732380D02*
X179688809Y-76732380D01*
X179117380Y-77732380D01*
X179117380Y-76732380D01*
X178688809Y-77446666D02*
X178212619Y-77446666D01*
X178784047Y-77732380D02*
X178450714Y-76732380D01*
X178117380Y-77732380D01*
X177307857Y-77732380D02*
X177784047Y-77732380D01*
X177784047Y-76732380D01*
X176212619Y-77732380D02*
X176212619Y-76732380D01*
X175974523Y-76732380D01*
X175831666Y-76780000D01*
X175736428Y-76875238D01*
X175688809Y-76970476D01*
X175641190Y-77160952D01*
X175641190Y-77303809D01*
X175688809Y-77494285D01*
X175736428Y-77589523D01*
X175831666Y-77684761D01*
X175974523Y-77732380D01*
X176212619Y-77732380D01*
X175212619Y-77208571D02*
X174879285Y-77208571D01*
X174736428Y-77732380D02*
X175212619Y-77732380D01*
X175212619Y-76732380D01*
X174736428Y-76732380D01*
X174450714Y-76732380D02*
X174117380Y-77732380D01*
X173784047Y-76732380D01*
X173450714Y-77732380D02*
X173450714Y-76732380D01*
X172403095Y-77637142D02*
X172450714Y-77684761D01*
X172593571Y-77732380D01*
X172688809Y-77732380D01*
X172831666Y-77684761D01*
X172926904Y-77589523D01*
X172974523Y-77494285D01*
X173022142Y-77303809D01*
X173022142Y-77160952D01*
X172974523Y-76970476D01*
X172926904Y-76875238D01*
X172831666Y-76780000D01*
X172688809Y-76732380D01*
X172593571Y-76732380D01*
X172450714Y-76780000D01*
X172403095Y-76827619D01*
X171974523Y-77208571D02*
X171641190Y-77208571D01*
X171498333Y-77732380D02*
X171974523Y-77732380D01*
X171974523Y-76732380D01*
X171498333Y-76732380D01*
X171117380Y-77684761D02*
X170974523Y-77732380D01*
X170736428Y-77732380D01*
X170641190Y-77684761D01*
X170593571Y-77637142D01*
X170545952Y-77541904D01*
X170545952Y-77446666D01*
X170593571Y-77351428D01*
X170641190Y-77303809D01*
X170736428Y-77256190D01*
X170926904Y-77208571D01*
X171022142Y-77160952D01*
X171069761Y-77113333D01*
X171117380Y-77018095D01*
X171117380Y-76922857D01*
X171069761Y-76827619D01*
X171022142Y-76780000D01*
X170926904Y-76732380D01*
X170688809Y-76732380D01*
X170545952Y-76780000D01*
X170117380Y-77637142D02*
X170069761Y-77684761D01*
X170117380Y-77732380D01*
X170165000Y-77684761D01*
X170117380Y-77637142D01*
X170117380Y-77732380D01*
X170117380Y-77351428D02*
X170165000Y-76780000D01*
X170117380Y-76732380D01*
X170069761Y-76780000D01*
X170117380Y-77351428D01*
X170117380Y-76732380D01*
X188974523Y-81032380D02*
X188974523Y-80032380D01*
X188736428Y-80032380D01*
X188593571Y-80080000D01*
X188498333Y-80175238D01*
X188450714Y-80270476D01*
X188403095Y-80460952D01*
X188403095Y-80603809D01*
X188450714Y-80794285D01*
X188498333Y-80889523D01*
X188593571Y-80984761D01*
X188736428Y-81032380D01*
X188974523Y-81032380D01*
X187784047Y-80032380D02*
X187593571Y-80032380D01*
X187498333Y-80080000D01*
X187403095Y-80175238D01*
X187355476Y-80365714D01*
X187355476Y-80699047D01*
X187403095Y-80889523D01*
X187498333Y-80984761D01*
X187593571Y-81032380D01*
X187784047Y-81032380D01*
X187879285Y-80984761D01*
X187974523Y-80889523D01*
X188022142Y-80699047D01*
X188022142Y-80365714D01*
X187974523Y-80175238D01*
X187879285Y-80080000D01*
X187784047Y-80032380D01*
X186165000Y-81032380D02*
X186165000Y-80032380D01*
X185593571Y-81032380D01*
X185593571Y-80032380D01*
X184926904Y-80032380D02*
X184736428Y-80032380D01*
X184641190Y-80080000D01*
X184545952Y-80175238D01*
X184498333Y-80365714D01*
X184498333Y-80699047D01*
X184545952Y-80889523D01*
X184641190Y-80984761D01*
X184736428Y-81032380D01*
X184926904Y-81032380D01*
X185022142Y-80984761D01*
X185117380Y-80889523D01*
X185165000Y-80699047D01*
X185165000Y-80365714D01*
X185117380Y-80175238D01*
X185022142Y-80080000D01*
X184926904Y-80032380D01*
X184212619Y-80032380D02*
X183641190Y-80032380D01*
X183926904Y-81032380D02*
X183926904Y-80032380D01*
X182593571Y-80746666D02*
X182117380Y-80746666D01*
X182688809Y-81032380D02*
X182355476Y-80032380D01*
X182022142Y-81032380D01*
X181688809Y-81032380D02*
X181688809Y-80032380D01*
X181307857Y-80032380D01*
X181212619Y-80080000D01*
X181165000Y-80127619D01*
X181117380Y-80222857D01*
X181117380Y-80365714D01*
X181165000Y-80460952D01*
X181212619Y-80508571D01*
X181307857Y-80556190D01*
X181688809Y-80556190D01*
X180688809Y-81032380D02*
X180688809Y-80032380D01*
X180307857Y-80032380D01*
X180212619Y-80080000D01*
X180165000Y-80127619D01*
X180117380Y-80222857D01*
X180117380Y-80365714D01*
X180165000Y-80460952D01*
X180212619Y-80508571D01*
X180307857Y-80556190D01*
X180688809Y-80556190D01*
X179212619Y-81032380D02*
X179688809Y-81032380D01*
X179688809Y-80032380D01*
X178688809Y-80556190D02*
X178688809Y-81032380D01*
X179022142Y-80032380D02*
X178688809Y-80556190D01*
X178355476Y-80032380D01*
X177260238Y-81032380D02*
X177260238Y-80032380D01*
X176926904Y-80746666D01*
X176593571Y-80032380D01*
X176593571Y-81032380D01*
X175926904Y-80032380D02*
X175736428Y-80032380D01*
X175641190Y-80080000D01*
X175545952Y-80175238D01*
X175498333Y-80365714D01*
X175498333Y-80699047D01*
X175545952Y-80889523D01*
X175641190Y-80984761D01*
X175736428Y-81032380D01*
X175926904Y-81032380D01*
X176022142Y-80984761D01*
X176117380Y-80889523D01*
X176165000Y-80699047D01*
X176165000Y-80365714D01*
X176117380Y-80175238D01*
X176022142Y-80080000D01*
X175926904Y-80032380D01*
X174498333Y-81032380D02*
X174831666Y-80556190D01*
X175069761Y-81032380D02*
X175069761Y-80032380D01*
X174688809Y-80032380D01*
X174593571Y-80080000D01*
X174545952Y-80127619D01*
X174498333Y-80222857D01*
X174498333Y-80365714D01*
X174545952Y-80460952D01*
X174593571Y-80508571D01*
X174688809Y-80556190D01*
X175069761Y-80556190D01*
X174069761Y-80508571D02*
X173736428Y-80508571D01*
X173593571Y-81032380D02*
X174069761Y-81032380D01*
X174069761Y-80032380D01*
X173593571Y-80032380D01*
X172545952Y-80032380D02*
X171974523Y-80032380D01*
X172260238Y-81032380D02*
X172260238Y-80032380D01*
X171641190Y-81032380D02*
X171641190Y-80032380D01*
X171641190Y-80508571D02*
X171069761Y-80508571D01*
X171069761Y-81032380D02*
X171069761Y-80032380D01*
X170641190Y-80746666D02*
X170165000Y-80746666D01*
X170736428Y-81032380D02*
X170403095Y-80032380D01*
X170069761Y-81032380D01*
X169736428Y-81032380D02*
X169736428Y-80032380D01*
X169165000Y-81032380D01*
X169165000Y-80032380D01*
X167450714Y-80032380D02*
X167926904Y-80032380D01*
X167974523Y-80508571D01*
X167926904Y-80460952D01*
X167831666Y-80413333D01*
X167593571Y-80413333D01*
X167498333Y-80460952D01*
X167450714Y-80508571D01*
X167403095Y-80603809D01*
X167403095Y-80841904D01*
X167450714Y-80937142D01*
X167498333Y-80984761D01*
X167593571Y-81032380D01*
X167831666Y-81032380D01*
X167926904Y-80984761D01*
X167974523Y-80937142D01*
X167117380Y-80032380D02*
X166784047Y-81032380D01*
X166450714Y-80032380D01*
X166117380Y-80937142D02*
X166069761Y-80984761D01*
X166117380Y-81032380D01*
X166165000Y-80984761D01*
X166117380Y-80937142D01*
X166117380Y-81032380D01*
X188426904Y-82682380D02*
X188426904Y-81682380D01*
X188188809Y-81682380D01*
X188045952Y-81730000D01*
X187950714Y-81825238D01*
X187903095Y-81920476D01*
X187855476Y-82110952D01*
X187855476Y-82253809D01*
X187903095Y-82444285D01*
X187950714Y-82539523D01*
X188045952Y-82634761D01*
X188188809Y-82682380D01*
X188426904Y-82682380D01*
X187236428Y-81682380D02*
X187045952Y-81682380D01*
X186950714Y-81730000D01*
X186855476Y-81825238D01*
X186807857Y-82015714D01*
X186807857Y-82349047D01*
X186855476Y-82539523D01*
X186950714Y-82634761D01*
X187045952Y-82682380D01*
X187236428Y-82682380D01*
X187331666Y-82634761D01*
X187426904Y-82539523D01*
X187474523Y-82349047D01*
X187474523Y-82015714D01*
X187426904Y-81825238D01*
X187331666Y-81730000D01*
X187236428Y-81682380D01*
X186379285Y-82682380D02*
X186379285Y-81682380D01*
X185903095Y-82682380D02*
X185903095Y-81682380D01*
X185331666Y-82682380D01*
X185331666Y-81682380D01*
X184331666Y-81730000D02*
X184426904Y-81682380D01*
X184569761Y-81682380D01*
X184712619Y-81730000D01*
X184807857Y-81825238D01*
X184855476Y-81920476D01*
X184903095Y-82110952D01*
X184903095Y-82253809D01*
X184855476Y-82444285D01*
X184807857Y-82539523D01*
X184712619Y-82634761D01*
X184569761Y-82682380D01*
X184474523Y-82682380D01*
X184331666Y-82634761D01*
X184284047Y-82587142D01*
X184284047Y-82253809D01*
X184474523Y-82253809D01*
X183141190Y-82634761D02*
X182998333Y-82682380D01*
X182760238Y-82682380D01*
X182665000Y-82634761D01*
X182617380Y-82587142D01*
X182569761Y-82491904D01*
X182569761Y-82396666D01*
X182617380Y-82301428D01*
X182665000Y-82253809D01*
X182760238Y-82206190D01*
X182950714Y-82158571D01*
X183045952Y-82110952D01*
X183093571Y-82063333D01*
X183141190Y-81968095D01*
X183141190Y-81872857D01*
X183093571Y-81777619D01*
X183045952Y-81730000D01*
X182950714Y-81682380D01*
X182712619Y-81682380D01*
X182569761Y-81730000D01*
X181950714Y-81682380D02*
X181760238Y-81682380D01*
X181665000Y-81730000D01*
X181569761Y-81825238D01*
X181522142Y-82015714D01*
X181522142Y-82349047D01*
X181569761Y-82539523D01*
X181665000Y-82634761D01*
X181760238Y-82682380D01*
X181950714Y-82682380D01*
X182045952Y-82634761D01*
X182141190Y-82539523D01*
X182188809Y-82349047D01*
X182188809Y-82015714D01*
X182141190Y-81825238D01*
X182045952Y-81730000D01*
X181950714Y-81682380D01*
X179760238Y-82587142D02*
X179807857Y-82634761D01*
X179950714Y-82682380D01*
X180045952Y-82682380D01*
X180188809Y-82634761D01*
X180284047Y-82539523D01*
X180331666Y-82444285D01*
X180379285Y-82253809D01*
X180379285Y-82110952D01*
X180331666Y-81920476D01*
X180284047Y-81825238D01*
X180188809Y-81730000D01*
X180045952Y-81682380D01*
X179950714Y-81682380D01*
X179807857Y-81730000D01*
X179760238Y-81777619D01*
X179379285Y-82396666D02*
X178903095Y-82396666D01*
X179474523Y-82682380D02*
X179141190Y-81682380D01*
X178807857Y-82682380D01*
X178474523Y-82682380D02*
X178474523Y-81682380D01*
X177903095Y-82682380D01*
X177903095Y-81682380D01*
X176665000Y-82682380D02*
X176665000Y-81682380D01*
X176426904Y-81682380D01*
X176284047Y-81730000D01*
X176188809Y-81825238D01*
X176141190Y-81920476D01*
X176093571Y-82110952D01*
X176093571Y-82253809D01*
X176141190Y-82444285D01*
X176188809Y-82539523D01*
X176284047Y-82634761D01*
X176426904Y-82682380D01*
X176665000Y-82682380D01*
X175712619Y-82396666D02*
X175236428Y-82396666D01*
X175807857Y-82682380D02*
X175474523Y-81682380D01*
X175141190Y-82682380D01*
X174807857Y-82682380D02*
X174807857Y-81682380D01*
X174474523Y-82396666D01*
X174141190Y-81682380D01*
X174141190Y-82682380D01*
X173712619Y-82396666D02*
X173236428Y-82396666D01*
X173807857Y-82682380D02*
X173474523Y-81682380D01*
X173141190Y-82682380D01*
X172284047Y-81730000D02*
X172379285Y-81682380D01*
X172522142Y-81682380D01*
X172665000Y-81730000D01*
X172760238Y-81825238D01*
X172807857Y-81920476D01*
X172855476Y-82110952D01*
X172855476Y-82253809D01*
X172807857Y-82444285D01*
X172760238Y-82539523D01*
X172665000Y-82634761D01*
X172522142Y-82682380D01*
X172426904Y-82682380D01*
X172284047Y-82634761D01*
X172236428Y-82587142D01*
X172236428Y-82253809D01*
X172426904Y-82253809D01*
X171807857Y-82158571D02*
X171474523Y-82158571D01*
X171331666Y-82682380D02*
X171807857Y-82682380D01*
X171807857Y-81682380D01*
X171331666Y-81682380D01*
X169950714Y-82206190D02*
X169950714Y-82682380D01*
X170284047Y-81682380D02*
X169950714Y-82206190D01*
X169617380Y-81682380D01*
X169093571Y-81682380D02*
X168903095Y-81682380D01*
X168807857Y-81730000D01*
X168712619Y-81825238D01*
X168665000Y-82015714D01*
X168665000Y-82349047D01*
X168712619Y-82539523D01*
X168807857Y-82634761D01*
X168903095Y-82682380D01*
X169093571Y-82682380D01*
X169188809Y-82634761D01*
X169284047Y-82539523D01*
X169331666Y-82349047D01*
X169331666Y-82015714D01*
X169284047Y-81825238D01*
X169188809Y-81730000D01*
X169093571Y-81682380D01*
X168236428Y-81682380D02*
X168236428Y-82491904D01*
X168188809Y-82587142D01*
X168141190Y-82634761D01*
X168045952Y-82682380D01*
X167855476Y-82682380D01*
X167760238Y-82634761D01*
X167712619Y-82587142D01*
X167665000Y-82491904D01*
X167665000Y-81682380D01*
X166617380Y-82682380D02*
X166950714Y-82206190D01*
X167188809Y-82682380D02*
X167188809Y-81682380D01*
X166807857Y-81682380D01*
X166712619Y-81730000D01*
X166665000Y-81777619D01*
X166617380Y-81872857D01*
X166617380Y-82015714D01*
X166665000Y-82110952D01*
X166712619Y-82158571D01*
X166807857Y-82206190D01*
X167188809Y-82206190D01*
X180403095Y-84332380D02*
X180403095Y-83332380D01*
X180069761Y-84046666D01*
X179736428Y-83332380D01*
X179736428Y-84332380D01*
X179307857Y-84046666D02*
X178831666Y-84046666D01*
X179403095Y-84332380D02*
X179069761Y-83332380D01*
X178736428Y-84332380D01*
X177831666Y-84237142D02*
X177879285Y-84284761D01*
X178022142Y-84332380D01*
X178117380Y-84332380D01*
X178260238Y-84284761D01*
X178355476Y-84189523D01*
X178403095Y-84094285D01*
X178450714Y-83903809D01*
X178450714Y-83760952D01*
X178403095Y-83570476D01*
X178355476Y-83475238D01*
X178260238Y-83380000D01*
X178117380Y-83332380D01*
X178022142Y-83332380D01*
X177879285Y-83380000D01*
X177831666Y-83427619D01*
X177403095Y-84332380D02*
X177403095Y-83332380D01*
X177403095Y-83808571D02*
X176831666Y-83808571D01*
X176831666Y-84332380D02*
X176831666Y-83332380D01*
X176355476Y-84332380D02*
X176355476Y-83332380D01*
X175879285Y-84332380D02*
X175879285Y-83332380D01*
X175307857Y-84332380D01*
X175307857Y-83332380D01*
X174831666Y-83808571D02*
X174498333Y-83808571D01*
X174355476Y-84332380D02*
X174831666Y-84332380D01*
X174831666Y-83332380D01*
X174355476Y-83332380D01*
X173926904Y-84237142D02*
X173879285Y-84284761D01*
X173926904Y-84332380D01*
X173974523Y-84284761D01*
X173926904Y-84237142D01*
X173926904Y-84332380D01*
X173926904Y-83951428D02*
X173974523Y-83380000D01*
X173926904Y-83332380D01*
X173879285Y-83380000D01*
X173926904Y-83951428D01*
X173926904Y-83332380D01*
X198794523Y-82367380D02*
X198794523Y-81367380D01*
X198223095Y-82367380D01*
X198223095Y-81367380D01*
X197032619Y-81319761D02*
X197889761Y-82605476D01*
X196127857Y-82272142D02*
X196175476Y-82319761D01*
X196318333Y-82367380D01*
X196413571Y-82367380D01*
X196556428Y-82319761D01*
X196651666Y-82224523D01*
X196699285Y-82129285D01*
X196746904Y-81938809D01*
X196746904Y-81795952D01*
X196699285Y-81605476D01*
X196651666Y-81510238D01*
X196556428Y-81415000D01*
X196413571Y-81367380D01*
X196318333Y-81367380D01*
X196175476Y-81415000D01*
X196127857Y-81462619D01*
X198246904Y-78875000D02*
X198342142Y-78827380D01*
X198485000Y-78827380D01*
X198627857Y-78875000D01*
X198723095Y-78970238D01*
X198770714Y-79065476D01*
X198818333Y-79255952D01*
X198818333Y-79398809D01*
X198770714Y-79589285D01*
X198723095Y-79684523D01*
X198627857Y-79779761D01*
X198485000Y-79827380D01*
X198389761Y-79827380D01*
X198246904Y-79779761D01*
X198199285Y-79732142D01*
X198199285Y-79398809D01*
X198389761Y-79398809D01*
X197770714Y-79827380D02*
X197770714Y-78827380D01*
X197199285Y-79827380D01*
X197199285Y-78827380D01*
X196723095Y-79827380D02*
X196723095Y-78827380D01*
X196485000Y-78827380D01*
X196342142Y-78875000D01*
X196246904Y-78970238D01*
X196199285Y-79065476D01*
X196151666Y-79255952D01*
X196151666Y-79398809D01*
X196199285Y-79589285D01*
X196246904Y-79684523D01*
X196342142Y-79779761D01*
X196485000Y-79827380D01*
X196723095Y-79827380D01*
X198246904Y-76335000D02*
X198342142Y-76287380D01*
X198485000Y-76287380D01*
X198627857Y-76335000D01*
X198723095Y-76430238D01*
X198770714Y-76525476D01*
X198818333Y-76715952D01*
X198818333Y-76858809D01*
X198770714Y-77049285D01*
X198723095Y-77144523D01*
X198627857Y-77239761D01*
X198485000Y-77287380D01*
X198389761Y-77287380D01*
X198246904Y-77239761D01*
X198199285Y-77192142D01*
X198199285Y-76858809D01*
X198389761Y-76858809D01*
X197770714Y-77287380D02*
X197770714Y-76287380D01*
X197199285Y-77287380D01*
X197199285Y-76287380D01*
X196723095Y-77287380D02*
X196723095Y-76287380D01*
X196485000Y-76287380D01*
X196342142Y-76335000D01*
X196246904Y-76430238D01*
X196199285Y-76525476D01*
X196151666Y-76715952D01*
X196151666Y-76858809D01*
X196199285Y-77049285D01*
X196246904Y-77144523D01*
X196342142Y-77239761D01*
X196485000Y-77287380D01*
X196723095Y-77287380D01*
X198770714Y-74366428D02*
X198008809Y-74366428D01*
X198389761Y-74747380D02*
X198389761Y-73985476D01*
X197056428Y-73747380D02*
X197532619Y-73747380D01*
X197580238Y-74223571D01*
X197532619Y-74175952D01*
X197437380Y-74128333D01*
X197199285Y-74128333D01*
X197104047Y-74175952D01*
X197056428Y-74223571D01*
X197008809Y-74318809D01*
X197008809Y-74556904D01*
X197056428Y-74652142D01*
X197104047Y-74699761D01*
X197199285Y-74747380D01*
X197437380Y-74747380D01*
X197532619Y-74699761D01*
X197580238Y-74652142D01*
X196723095Y-73747380D02*
X196389761Y-74747380D01*
X196056428Y-73747380D01*
X192857380Y-72390714D02*
X191857380Y-72390714D01*
X191857380Y-72771666D01*
X191905000Y-72866904D01*
X191952619Y-72914523D01*
X192047857Y-72962142D01*
X192190714Y-72962142D01*
X192285952Y-72914523D01*
X192333571Y-72866904D01*
X192381190Y-72771666D01*
X192381190Y-72390714D01*
X191857380Y-73581190D02*
X191857380Y-73771666D01*
X191905000Y-73866904D01*
X192000238Y-73962142D01*
X192190714Y-74009761D01*
X192524047Y-74009761D01*
X192714523Y-73962142D01*
X192809761Y-73866904D01*
X192857380Y-73771666D01*
X192857380Y-73581190D01*
X192809761Y-73485952D01*
X192714523Y-73390714D01*
X192524047Y-73343095D01*
X192190714Y-73343095D01*
X192000238Y-73390714D01*
X191905000Y-73485952D01*
X191857380Y-73581190D01*
X191857380Y-74343095D02*
X192857380Y-74581190D01*
X192143095Y-74771666D01*
X192857380Y-74962142D01*
X191857380Y-75200238D01*
X192333571Y-75581190D02*
X192333571Y-75914523D01*
X192857380Y-76057380D02*
X192857380Y-75581190D01*
X191857380Y-75581190D01*
X191857380Y-76057380D01*
X192857380Y-77057380D02*
X192381190Y-76724047D01*
X192857380Y-76485952D02*
X191857380Y-76485952D01*
X191857380Y-76866904D01*
X191905000Y-76962142D01*
X191952619Y-77009761D01*
X192047857Y-77057380D01*
X192190714Y-77057380D01*
X192285952Y-77009761D01*
X192333571Y-76962142D01*
X192381190Y-76866904D01*
X192381190Y-76485952D01*
X192857380Y-78247857D02*
X191857380Y-78247857D01*
X192857380Y-78724047D02*
X191857380Y-78724047D01*
X192857380Y-79295476D01*
X191857380Y-79295476D01*
X191857380Y-80724047D02*
X191857380Y-80914523D01*
X191905000Y-81009761D01*
X192000238Y-81105000D01*
X192190714Y-81152619D01*
X192524047Y-81152619D01*
X192714523Y-81105000D01*
X192809761Y-81009761D01*
X192857380Y-80914523D01*
X192857380Y-80724047D01*
X192809761Y-80628809D01*
X192714523Y-80533571D01*
X192524047Y-80485952D01*
X192190714Y-80485952D01*
X192000238Y-80533571D01*
X191905000Y-80628809D01*
X191857380Y-80724047D01*
X192857380Y-81581190D02*
X191857380Y-81581190D01*
X192857380Y-82152619D01*
X191857380Y-82152619D01*
X192857380Y-83105000D02*
X192857380Y-82628809D01*
X191857380Y-82628809D01*
X192381190Y-83628809D02*
X192857380Y-83628809D01*
X191857380Y-83295476D02*
X192381190Y-83628809D01*
X191857380Y-83962142D01*
D11*
X114915000Y-108835000D02*
X113915000Y-109835000D01*
X113915000Y-109835000D02*
X113915000Y-140085000D01*
X113915000Y-140085000D02*
X145165000Y-140085000D01*
X145165000Y-140085000D02*
X145165000Y-108835000D01*
X145165000Y-108835000D02*
X114935000Y-108839000D01*
%LPC*%
D12*
X119380000Y-46990000D03*
X198120000Y-69850000D03*
X121920000Y-46990000D03*
X195580000Y-69850000D03*
X124460000Y-46990000D03*
X193040000Y-69850000D03*
X127000000Y-46990000D03*
X190500000Y-69850000D03*
X129540000Y-46990000D03*
X187960000Y-69850000D03*
X132080000Y-46990000D03*
X185420000Y-69850000D03*
X134620000Y-46990000D03*
X182880000Y-69850000D03*
X137160000Y-46990000D03*
X180340000Y-69850000D03*
X139700000Y-46990000D03*
X177800000Y-69850000D03*
X142240000Y-46990000D03*
X175260000Y-69850000D03*
X144780000Y-46990000D03*
X172720000Y-69850000D03*
X147320000Y-46990000D03*
X170180000Y-69850000D03*
X149860000Y-46990000D03*
X167640000Y-69850000D03*
X152400000Y-46990000D03*
X165100000Y-69850000D03*
X154940000Y-46990000D03*
X162560000Y-69850000D03*
X157480000Y-46990000D03*
X160020000Y-69850000D03*
X160020000Y-46990000D03*
X157480000Y-69850000D03*
X162560000Y-46990000D03*
X154940000Y-69850000D03*
X165100000Y-46990000D03*
X152400000Y-69850000D03*
X167640000Y-46990000D03*
X149860000Y-69850000D03*
X170180000Y-46990000D03*
X147320000Y-69850000D03*
X172720000Y-46990000D03*
X144780000Y-69850000D03*
X175260000Y-46990000D03*
X142240000Y-69850000D03*
X177800000Y-46990000D03*
X139700000Y-69850000D03*
X180340000Y-46990000D03*
X137160000Y-69850000D03*
X182880000Y-46990000D03*
X134620000Y-69850000D03*
X185420000Y-46990000D03*
X132080000Y-69850000D03*
X187960000Y-46990000D03*
X129540000Y-69850000D03*
X190500000Y-46990000D03*
X127000000Y-69850000D03*
X193040000Y-46990000D03*
X124460000Y-69850000D03*
X195580000Y-46990000D03*
X121920000Y-69850000D03*
X198120000Y-46990000D03*
D13*
X119380000Y-69850000D03*
D14*
X203319000Y-45669000D03*
X202880000Y-46730000D03*
X203319000Y-47791000D03*
X204380000Y-48230000D03*
X205441000Y-47791000D03*
X205880000Y-46730000D03*
X205441000Y-45669000D03*
X204380000Y-45230000D03*
D15*
X204380000Y-46730000D03*
X110880000Y-46730000D03*
D14*
X112380000Y-46730000D03*
X111941000Y-47791000D03*
X110880000Y-48230000D03*
X109819000Y-47791000D03*
X109380000Y-46730000D03*
X109819000Y-45669000D03*
X110880000Y-45230000D03*
X111941000Y-45669000D03*
D15*
X110880000Y-120730000D03*
D14*
X112380000Y-120730000D03*
X111941000Y-121791000D03*
X110880000Y-122230000D03*
X109819000Y-121791000D03*
X109380000Y-120730000D03*
X109819000Y-119669000D03*
X110880000Y-119230000D03*
X111941000Y-119669000D03*
D12*
X142240000Y-114300000D03*
X142240000Y-116840000D03*
X142240000Y-119380000D03*
X142240000Y-121920000D03*
X142240000Y-124460000D03*
X142240000Y-127000000D03*
X142240000Y-129540000D03*
X142240000Y-132080000D03*
X139700000Y-111760000D03*
X139700000Y-114300000D03*
X139700000Y-116840000D03*
X139700000Y-119380000D03*
X139700000Y-121920000D03*
X139700000Y-124460000D03*
X139700000Y-127000000D03*
X139700000Y-129540000D03*
X139700000Y-132080000D03*
X139700000Y-137160000D03*
X137160000Y-137160000D03*
X134620000Y-137160000D03*
X132080000Y-137160000D03*
X129540000Y-137160000D03*
X127000000Y-137160000D03*
X124460000Y-137160000D03*
X121920000Y-137160000D03*
X119380000Y-137160000D03*
X142240000Y-134620000D03*
X139700000Y-134620000D03*
X137160000Y-134620000D03*
X134620000Y-134620000D03*
X132080000Y-134620000D03*
X129540000Y-134620000D03*
X127000000Y-134620000D03*
X124460000Y-134620000D03*
X121920000Y-134620000D03*
X116840000Y-134620000D03*
X116840000Y-132080000D03*
X116840000Y-129540000D03*
X116840000Y-127000000D03*
X116840000Y-124460000D03*
X116840000Y-121920000D03*
X116840000Y-119380000D03*
X116840000Y-116840000D03*
X116840000Y-114300000D03*
X119380000Y-134620000D03*
X119380000Y-132080000D03*
X119380000Y-129540000D03*
X119380000Y-127000000D03*
X119380000Y-124460000D03*
X119380000Y-121920000D03*
X119380000Y-119380000D03*
X119380000Y-116840000D03*
X137160000Y-111760000D03*
X134620000Y-111760000D03*
X132080000Y-111760000D03*
X119380000Y-111760000D03*
X121920000Y-111760000D03*
X124460000Y-111760000D03*
X127000000Y-111760000D03*
D13*
X129540000Y-111760000D03*
D12*
X137160000Y-114300000D03*
X134620000Y-114300000D03*
X132080000Y-114300000D03*
X129540000Y-114300000D03*
X119380000Y-114300000D03*
X121920000Y-114300000D03*
X124460000Y-114300000D03*
X127000000Y-114300000D03*
D16*
X194840000Y-81855000D03*
X194840000Y-79355000D03*
X194840000Y-76855000D03*
D17*
X194840000Y-74355000D03*
M02*
