%FSLAX45Y45*%
G04 Gerber Fmt 4.5, Leading zero omitted, Abs format (unit mm)*
G04 Created by KiCad (PCBNEW (5.1.12)-1) date 2022-03-01 21:28:57*
%MOMM*%
%LPD*%
G01*
G04 APERTURE LIST*
%TA.AperFunction,Profile*%
%ADD10C,0.050000*%
%TD*%
%ADD11C,0.200000*%
%ADD12C,0.300000*%
G04 APERTURE END LIST*
D10*
X13589000Y-12954000D02*
G75*
G02*
X13462000Y-13081000I-127000J0D01*
G01*
X12446000Y-13081000D02*
G75*
G02*
X12319000Y-12954000I0J127000D01*
G01*
X12319000Y-11938000D02*
G75*
G02*
X12446000Y-11811000I127000J0D01*
G01*
X13462000Y-11811000D02*
G75*
G02*
X13589000Y-11938000I0J-127000D01*
G01*
X12446000Y-11811000D02*
X13462000Y-11811000D01*
X13589000Y-12954000D02*
X13589000Y-11938000D01*
X13462000Y-13081000D02*
X12446000Y-13081000D01*
X12319000Y-11938000D02*
X12319000Y-12954000D01*
X20828000Y-8255000D02*
G75*
G02*
X20574000Y-8509000I-254000J0D01*
G01*
X15367000Y-8763000D02*
G75*
G02*
X15621000Y-8509000I254000J0D01*
G01*
X20574000Y-8509000D02*
X15621000Y-8509000D01*
X20828000Y-4445000D02*
X20828000Y-8255000D01*
X20574000Y-4191000D02*
G75*
G02*
X20828000Y-4445000I0J-254000D01*
G01*
X10668000Y-4445000D02*
G75*
G02*
X10922000Y-4191000I254000J0D01*
G01*
X15367000Y-14224000D02*
G75*
G02*
X15113000Y-14478000I-254000J0D01*
G01*
X10922000Y-14478000D02*
G75*
G02*
X10668000Y-14224000I0J254000D01*
G01*
X20574000Y-4191000D02*
X10922000Y-4191000D01*
X10668000Y-4445000D02*
X10668000Y-14224000D01*
X15367000Y-8763000D02*
X15367000Y-14224000D01*
X15113000Y-14478000D02*
X10922000Y-14478000D01*
D11*
D12*
X10951928Y-14946214D02*
X10951928Y-14646214D01*
X11023357Y-14646214D01*
X11066214Y-14660500D01*
X11094786Y-14689071D01*
X11109071Y-14717643D01*
X11123357Y-14774786D01*
X11123357Y-14817643D01*
X11109071Y-14874786D01*
X11094786Y-14903357D01*
X11066214Y-14931929D01*
X11023357Y-14946214D01*
X10951928Y-14946214D01*
X11251928Y-14946214D02*
X11251928Y-14746214D01*
X11251928Y-14803357D02*
X11266214Y-14774786D01*
X11280500Y-14760500D01*
X11309071Y-14746214D01*
X11337643Y-14746214D01*
X11437643Y-14946214D02*
X11437643Y-14746214D01*
X11437643Y-14646214D02*
X11423357Y-14660500D01*
X11437643Y-14674786D01*
X11451928Y-14660500D01*
X11437643Y-14646214D01*
X11437643Y-14674786D01*
X11623357Y-14946214D02*
X11594786Y-14931929D01*
X11580500Y-14903357D01*
X11580500Y-14646214D01*
X11780500Y-14946214D02*
X11751928Y-14931929D01*
X11737643Y-14903357D01*
X11737643Y-14646214D01*
X12123357Y-14946214D02*
X12123357Y-14646214D01*
X12223357Y-14860500D01*
X12323357Y-14646214D01*
X12323357Y-14946214D01*
X12594786Y-14946214D02*
X12594786Y-14789071D01*
X12580500Y-14760500D01*
X12551928Y-14746214D01*
X12494786Y-14746214D01*
X12466214Y-14760500D01*
X12594786Y-14931929D02*
X12566214Y-14946214D01*
X12494786Y-14946214D01*
X12466214Y-14931929D01*
X12451928Y-14903357D01*
X12451928Y-14874786D01*
X12466214Y-14846214D01*
X12494786Y-14831929D01*
X12566214Y-14831929D01*
X12594786Y-14817643D01*
X12737643Y-14746214D02*
X12737643Y-15046214D01*
X12737643Y-14760500D02*
X12766214Y-14746214D01*
X12823357Y-14746214D01*
X12851928Y-14760500D01*
X12866214Y-14774786D01*
X12880500Y-14803357D01*
X12880500Y-14889071D01*
X12866214Y-14917643D01*
X12851928Y-14931929D01*
X12823357Y-14946214D01*
X12766214Y-14946214D01*
X12737643Y-14931929D01*
X13009071Y-14917643D02*
X13023357Y-14931929D01*
X13009071Y-14946214D01*
X12994786Y-14931929D01*
X13009071Y-14917643D01*
X13009071Y-14946214D01*
X13009071Y-14760500D02*
X13023357Y-14774786D01*
X13009071Y-14789071D01*
X12994786Y-14774786D01*
X13009071Y-14760500D01*
X13009071Y-14789071D01*
M02*
