%TF.GenerationSoftware,KiCad,Pcbnew,(5.1.6)-1*%
%TF.CreationDate,2020-11-29T15:27:34+00:00*%
%TF.ProjectId,A600 68k PLCC to DIP64,41363030-2036-4386-9b20-504c43432074,1*%
%TF.SameCoordinates,Original*%
%TF.FileFunction,Legend,Top*%
%TF.FilePolarity,Positive*%
%FSLAX46Y46*%
G04 Gerber Fmt 4.6, Leading zero omitted, Abs format (unit mm)*
G04 Created by KiCad (PCBNEW (5.1.6)-1) date 2020-11-29 15:27:34*
%MOMM*%
%LPD*%
G01*
G04 APERTURE LIST*
%ADD10C,0.200000*%
%ADD11C,0.300000*%
%ADD12C,0.120000*%
%ADD13C,0.150000*%
G04 APERTURE END LIST*
D10*
X180737619Y-77111333D02*
X180690000Y-77063714D01*
X180594761Y-76920857D01*
X180547142Y-76825619D01*
X180499523Y-76682761D01*
X180451904Y-76444666D01*
X180451904Y-76254190D01*
X180499523Y-76016095D01*
X180547142Y-75873238D01*
X180594761Y-75778000D01*
X180690000Y-75635142D01*
X180737619Y-75587523D01*
X181547142Y-76682761D02*
X181451904Y-76730380D01*
X181261428Y-76730380D01*
X181166190Y-76682761D01*
X181118571Y-76635142D01*
X181070952Y-76539904D01*
X181070952Y-76254190D01*
X181118571Y-76158952D01*
X181166190Y-76111333D01*
X181261428Y-76063714D01*
X181451904Y-76063714D01*
X181547142Y-76111333D01*
X181880476Y-77111333D02*
X181928095Y-77063714D01*
X182023333Y-76920857D01*
X182070952Y-76825619D01*
X182118571Y-76682761D01*
X182166190Y-76444666D01*
X182166190Y-76254190D01*
X182118571Y-76016095D01*
X182070952Y-75873238D01*
X182023333Y-75778000D01*
X181928095Y-75635142D01*
X181880476Y-75587523D01*
X183356666Y-75825619D02*
X183404285Y-75778000D01*
X183499523Y-75730380D01*
X183737619Y-75730380D01*
X183832857Y-75778000D01*
X183880476Y-75825619D01*
X183928095Y-75920857D01*
X183928095Y-76016095D01*
X183880476Y-76158952D01*
X183309047Y-76730380D01*
X183928095Y-76730380D01*
X184547142Y-75730380D02*
X184642380Y-75730380D01*
X184737619Y-75778000D01*
X184785238Y-75825619D01*
X184832857Y-75920857D01*
X184880476Y-76111333D01*
X184880476Y-76349428D01*
X184832857Y-76539904D01*
X184785238Y-76635142D01*
X184737619Y-76682761D01*
X184642380Y-76730380D01*
X184547142Y-76730380D01*
X184451904Y-76682761D01*
X184404285Y-76635142D01*
X184356666Y-76539904D01*
X184309047Y-76349428D01*
X184309047Y-76111333D01*
X184356666Y-75920857D01*
X184404285Y-75825619D01*
X184451904Y-75778000D01*
X184547142Y-75730380D01*
X185261428Y-75825619D02*
X185309047Y-75778000D01*
X185404285Y-75730380D01*
X185642380Y-75730380D01*
X185737619Y-75778000D01*
X185785238Y-75825619D01*
X185832857Y-75920857D01*
X185832857Y-76016095D01*
X185785238Y-76158952D01*
X185213809Y-76730380D01*
X185832857Y-76730380D01*
X186451904Y-75730380D02*
X186547142Y-75730380D01*
X186642380Y-75778000D01*
X186690000Y-75825619D01*
X186737619Y-75920857D01*
X186785238Y-76111333D01*
X186785238Y-76349428D01*
X186737619Y-76539904D01*
X186690000Y-76635142D01*
X186642380Y-76682761D01*
X186547142Y-76730380D01*
X186451904Y-76730380D01*
X186356666Y-76682761D01*
X186309047Y-76635142D01*
X186261428Y-76539904D01*
X186213809Y-76349428D01*
X186213809Y-76111333D01*
X186261428Y-75920857D01*
X186309047Y-75825619D01*
X186356666Y-75778000D01*
X186451904Y-75730380D01*
X188451904Y-76730380D02*
X187975714Y-76730380D01*
X187975714Y-75730380D01*
X189166190Y-76682761D02*
X189070952Y-76730380D01*
X188880476Y-76730380D01*
X188785238Y-76682761D01*
X188737619Y-76587523D01*
X188737619Y-76206571D01*
X188785238Y-76111333D01*
X188880476Y-76063714D01*
X189070952Y-76063714D01*
X189166190Y-76111333D01*
X189213809Y-76206571D01*
X189213809Y-76301809D01*
X188737619Y-76397047D01*
X189642380Y-76730380D02*
X189642380Y-76063714D01*
X189642380Y-76158952D02*
X189690000Y-76111333D01*
X189785238Y-76063714D01*
X189928095Y-76063714D01*
X190023333Y-76111333D01*
X190070952Y-76206571D01*
X190070952Y-76730380D01*
X190070952Y-76206571D02*
X190118571Y-76111333D01*
X190213809Y-76063714D01*
X190356666Y-76063714D01*
X190451904Y-76111333D01*
X190499523Y-76206571D01*
X190499523Y-76730380D01*
X191404285Y-76730380D02*
X191404285Y-76206571D01*
X191356666Y-76111333D01*
X191261428Y-76063714D01*
X191070952Y-76063714D01*
X190975714Y-76111333D01*
X191404285Y-76682761D02*
X191309047Y-76730380D01*
X191070952Y-76730380D01*
X190975714Y-76682761D01*
X190928095Y-76587523D01*
X190928095Y-76492285D01*
X190975714Y-76397047D01*
X191070952Y-76349428D01*
X191309047Y-76349428D01*
X191404285Y-76301809D01*
X191880476Y-76730380D02*
X191880476Y-76063714D01*
X191880476Y-76254190D02*
X191928095Y-76158952D01*
X191975714Y-76111333D01*
X192070952Y-76063714D01*
X192166190Y-76063714D01*
X192928095Y-76063714D02*
X192928095Y-76730380D01*
X192499523Y-76063714D02*
X192499523Y-76587523D01*
X192547142Y-76682761D01*
X192642380Y-76730380D01*
X192785238Y-76730380D01*
X192880476Y-76682761D01*
X192928095Y-76635142D01*
X177523333Y-77906571D02*
X177666190Y-77954190D01*
X177713809Y-78001809D01*
X177761428Y-78097047D01*
X177761428Y-78239904D01*
X177713809Y-78335142D01*
X177666190Y-78382761D01*
X177570952Y-78430380D01*
X177190000Y-78430380D01*
X177190000Y-77430380D01*
X177523333Y-77430380D01*
X177618571Y-77478000D01*
X177666190Y-77525619D01*
X177713809Y-77620857D01*
X177713809Y-77716095D01*
X177666190Y-77811333D01*
X177618571Y-77858952D01*
X177523333Y-77906571D01*
X177190000Y-77906571D01*
X178618571Y-78430380D02*
X178618571Y-77906571D01*
X178570952Y-77811333D01*
X178475714Y-77763714D01*
X178285238Y-77763714D01*
X178190000Y-77811333D01*
X178618571Y-78382761D02*
X178523333Y-78430380D01*
X178285238Y-78430380D01*
X178190000Y-78382761D01*
X178142380Y-78287523D01*
X178142380Y-78192285D01*
X178190000Y-78097047D01*
X178285238Y-78049428D01*
X178523333Y-78049428D01*
X178618571Y-78001809D01*
X179047142Y-78382761D02*
X179142380Y-78430380D01*
X179332857Y-78430380D01*
X179428095Y-78382761D01*
X179475714Y-78287523D01*
X179475714Y-78239904D01*
X179428095Y-78144666D01*
X179332857Y-78097047D01*
X179190000Y-78097047D01*
X179094761Y-78049428D01*
X179047142Y-77954190D01*
X179047142Y-77906571D01*
X179094761Y-77811333D01*
X179190000Y-77763714D01*
X179332857Y-77763714D01*
X179428095Y-77811333D01*
X180285238Y-78382761D02*
X180190000Y-78430380D01*
X179999523Y-78430380D01*
X179904285Y-78382761D01*
X179856666Y-78287523D01*
X179856666Y-77906571D01*
X179904285Y-77811333D01*
X179999523Y-77763714D01*
X180190000Y-77763714D01*
X180285238Y-77811333D01*
X180332857Y-77906571D01*
X180332857Y-78001809D01*
X179856666Y-78097047D01*
X181190000Y-78430380D02*
X181190000Y-77430380D01*
X181190000Y-78382761D02*
X181094761Y-78430380D01*
X180904285Y-78430380D01*
X180809047Y-78382761D01*
X180761428Y-78335142D01*
X180713809Y-78239904D01*
X180713809Y-77954190D01*
X180761428Y-77858952D01*
X180809047Y-77811333D01*
X180904285Y-77763714D01*
X181094761Y-77763714D01*
X181190000Y-77811333D01*
X182570952Y-78430380D02*
X182475714Y-78382761D01*
X182428095Y-78335142D01*
X182380476Y-78239904D01*
X182380476Y-77954190D01*
X182428095Y-77858952D01*
X182475714Y-77811333D01*
X182570952Y-77763714D01*
X182713809Y-77763714D01*
X182809047Y-77811333D01*
X182856666Y-77858952D01*
X182904285Y-77954190D01*
X182904285Y-78239904D01*
X182856666Y-78335142D01*
X182809047Y-78382761D01*
X182713809Y-78430380D01*
X182570952Y-78430380D01*
X183332857Y-77763714D02*
X183332857Y-78430380D01*
X183332857Y-77858952D02*
X183380476Y-77811333D01*
X183475714Y-77763714D01*
X183618571Y-77763714D01*
X183713809Y-77811333D01*
X183761428Y-77906571D01*
X183761428Y-78430380D01*
X184904285Y-77763714D02*
X185094761Y-78430380D01*
X185285238Y-77954190D01*
X185475714Y-78430380D01*
X185666190Y-77763714D01*
X186190000Y-78430380D02*
X186094761Y-78382761D01*
X186047142Y-78335142D01*
X185999523Y-78239904D01*
X185999523Y-77954190D01*
X186047142Y-77858952D01*
X186094761Y-77811333D01*
X186190000Y-77763714D01*
X186332857Y-77763714D01*
X186428095Y-77811333D01*
X186475714Y-77858952D01*
X186523333Y-77954190D01*
X186523333Y-78239904D01*
X186475714Y-78335142D01*
X186428095Y-78382761D01*
X186332857Y-78430380D01*
X186190000Y-78430380D01*
X186951904Y-78430380D02*
X186951904Y-77763714D01*
X186951904Y-77954190D02*
X186999523Y-77858952D01*
X187047142Y-77811333D01*
X187142380Y-77763714D01*
X187237619Y-77763714D01*
X187570952Y-78430380D02*
X187570952Y-77430380D01*
X187666190Y-78049428D02*
X187951904Y-78430380D01*
X187951904Y-77763714D02*
X187570952Y-78144666D01*
X189142380Y-78430380D02*
X189142380Y-77430380D01*
X189142380Y-77811333D02*
X189237619Y-77763714D01*
X189428095Y-77763714D01*
X189523333Y-77811333D01*
X189570952Y-77858952D01*
X189618571Y-77954190D01*
X189618571Y-78239904D01*
X189570952Y-78335142D01*
X189523333Y-78382761D01*
X189428095Y-78430380D01*
X189237619Y-78430380D01*
X189142380Y-78382761D01*
X189951904Y-77763714D02*
X190190000Y-78430380D01*
X190428095Y-77763714D02*
X190190000Y-78430380D01*
X190094761Y-78668476D01*
X190047142Y-78716095D01*
X189951904Y-78763714D01*
X191570952Y-78430380D02*
X191570952Y-77430380D01*
X192142380Y-78430380D02*
X191713809Y-77858952D01*
X192142380Y-77430380D02*
X191570952Y-78001809D01*
X192713809Y-78430380D02*
X192618571Y-78382761D01*
X192570952Y-78287523D01*
X192570952Y-77430380D01*
X193523333Y-77763714D02*
X193523333Y-78430380D01*
X193094761Y-77763714D02*
X193094761Y-78287523D01*
X193142380Y-78382761D01*
X193237619Y-78430380D01*
X193380476Y-78430380D01*
X193475714Y-78382761D01*
X193523333Y-78335142D01*
X194428095Y-78430380D02*
X194428095Y-77430380D01*
X194428095Y-78382761D02*
X194332857Y-78430380D01*
X194142380Y-78430380D01*
X194047142Y-78382761D01*
X193999523Y-78335142D01*
X193951904Y-78239904D01*
X193951904Y-77954190D01*
X193999523Y-77858952D01*
X194047142Y-77811333D01*
X194142380Y-77763714D01*
X194332857Y-77763714D01*
X194428095Y-77811333D01*
X195332857Y-77763714D02*
X195332857Y-78573238D01*
X195285238Y-78668476D01*
X195237619Y-78716095D01*
X195142380Y-78763714D01*
X194999523Y-78763714D01*
X194904285Y-78716095D01*
X195332857Y-78382761D02*
X195237619Y-78430380D01*
X195047142Y-78430380D01*
X194951904Y-78382761D01*
X194904285Y-78335142D01*
X194856666Y-78239904D01*
X194856666Y-77954190D01*
X194904285Y-77858952D01*
X194951904Y-77811333D01*
X195047142Y-77763714D01*
X195237619Y-77763714D01*
X195332857Y-77811333D01*
X196190000Y-78382761D02*
X196094761Y-78430380D01*
X195904285Y-78430380D01*
X195809047Y-78382761D01*
X195761428Y-78287523D01*
X195761428Y-77906571D01*
X195809047Y-77811333D01*
X195904285Y-77763714D01*
X196094761Y-77763714D01*
X196190000Y-77811333D01*
X196237619Y-77906571D01*
X196237619Y-78001809D01*
X195761428Y-78097047D01*
X168070952Y-79463714D02*
X168070952Y-80273238D01*
X168023333Y-80368476D01*
X167975714Y-80416095D01*
X167880476Y-80463714D01*
X167737619Y-80463714D01*
X167642380Y-80416095D01*
X168070952Y-80082761D02*
X167975714Y-80130380D01*
X167785238Y-80130380D01*
X167690000Y-80082761D01*
X167642380Y-80035142D01*
X167594761Y-79939904D01*
X167594761Y-79654190D01*
X167642380Y-79558952D01*
X167690000Y-79511333D01*
X167785238Y-79463714D01*
X167975714Y-79463714D01*
X168070952Y-79511333D01*
X168547142Y-80130380D02*
X168547142Y-79463714D01*
X168547142Y-79130380D02*
X168499523Y-79178000D01*
X168547142Y-79225619D01*
X168594761Y-79178000D01*
X168547142Y-79130380D01*
X168547142Y-79225619D01*
X168880476Y-79463714D02*
X169261428Y-79463714D01*
X169023333Y-79130380D02*
X169023333Y-79987523D01*
X169070952Y-80082761D01*
X169166190Y-80130380D01*
X169261428Y-80130380D01*
X169594761Y-80130380D02*
X169594761Y-79130380D01*
X170023333Y-80130380D02*
X170023333Y-79606571D01*
X169975714Y-79511333D01*
X169880476Y-79463714D01*
X169737619Y-79463714D01*
X169642380Y-79511333D01*
X169594761Y-79558952D01*
X170928095Y-79463714D02*
X170928095Y-80130380D01*
X170499523Y-79463714D02*
X170499523Y-79987523D01*
X170547142Y-80082761D01*
X170642380Y-80130380D01*
X170785238Y-80130380D01*
X170880476Y-80082761D01*
X170928095Y-80035142D01*
X171404285Y-80130380D02*
X171404285Y-79130380D01*
X171404285Y-79511333D02*
X171499523Y-79463714D01*
X171690000Y-79463714D01*
X171785238Y-79511333D01*
X171832857Y-79558952D01*
X171880476Y-79654190D01*
X171880476Y-79939904D01*
X171832857Y-80035142D01*
X171785238Y-80082761D01*
X171690000Y-80130380D01*
X171499523Y-80130380D01*
X171404285Y-80082761D01*
X172309047Y-80035142D02*
X172356666Y-80082761D01*
X172309047Y-80130380D01*
X172261428Y-80082761D01*
X172309047Y-80035142D01*
X172309047Y-80130380D01*
X173213809Y-80082761D02*
X173118571Y-80130380D01*
X172928095Y-80130380D01*
X172832857Y-80082761D01*
X172785238Y-80035142D01*
X172737619Y-79939904D01*
X172737619Y-79654190D01*
X172785238Y-79558952D01*
X172832857Y-79511333D01*
X172928095Y-79463714D01*
X173118571Y-79463714D01*
X173213809Y-79511333D01*
X173785238Y-80130380D02*
X173690000Y-80082761D01*
X173642380Y-80035142D01*
X173594761Y-79939904D01*
X173594761Y-79654190D01*
X173642380Y-79558952D01*
X173690000Y-79511333D01*
X173785238Y-79463714D01*
X173928095Y-79463714D01*
X174023333Y-79511333D01*
X174070952Y-79558952D01*
X174118571Y-79654190D01*
X174118571Y-79939904D01*
X174070952Y-80035142D01*
X174023333Y-80082761D01*
X173928095Y-80130380D01*
X173785238Y-80130380D01*
X174547142Y-80130380D02*
X174547142Y-79463714D01*
X174547142Y-79558952D02*
X174594761Y-79511333D01*
X174690000Y-79463714D01*
X174832857Y-79463714D01*
X174928095Y-79511333D01*
X174975714Y-79606571D01*
X174975714Y-80130380D01*
X174975714Y-79606571D02*
X175023333Y-79511333D01*
X175118571Y-79463714D01*
X175261428Y-79463714D01*
X175356666Y-79511333D01*
X175404285Y-79606571D01*
X175404285Y-80130380D01*
X176594761Y-79082761D02*
X175737619Y-80368476D01*
X177404285Y-80130380D02*
X176928095Y-80130380D01*
X176928095Y-79130380D01*
X178118571Y-80082761D02*
X178023333Y-80130380D01*
X177832857Y-80130380D01*
X177737619Y-80082761D01*
X177690000Y-79987523D01*
X177690000Y-79606571D01*
X177737619Y-79511333D01*
X177832857Y-79463714D01*
X178023333Y-79463714D01*
X178118571Y-79511333D01*
X178166190Y-79606571D01*
X178166190Y-79701809D01*
X177690000Y-79797047D01*
X178594761Y-80130380D02*
X178594761Y-79463714D01*
X178594761Y-79558952D02*
X178642380Y-79511333D01*
X178737619Y-79463714D01*
X178880476Y-79463714D01*
X178975714Y-79511333D01*
X179023333Y-79606571D01*
X179023333Y-80130380D01*
X179023333Y-79606571D02*
X179070952Y-79511333D01*
X179166190Y-79463714D01*
X179309047Y-79463714D01*
X179404285Y-79511333D01*
X179451904Y-79606571D01*
X179451904Y-80130380D01*
X180356666Y-80130380D02*
X180356666Y-79606571D01*
X180309047Y-79511333D01*
X180213809Y-79463714D01*
X180023333Y-79463714D01*
X179928095Y-79511333D01*
X180356666Y-80082761D02*
X180261428Y-80130380D01*
X180023333Y-80130380D01*
X179928095Y-80082761D01*
X179880476Y-79987523D01*
X179880476Y-79892285D01*
X179928095Y-79797047D01*
X180023333Y-79749428D01*
X180261428Y-79749428D01*
X180356666Y-79701809D01*
X180832857Y-80130380D02*
X180832857Y-79463714D01*
X180832857Y-79654190D02*
X180880476Y-79558952D01*
X180928095Y-79511333D01*
X181023333Y-79463714D01*
X181118571Y-79463714D01*
X181880476Y-79463714D02*
X181880476Y-80130380D01*
X181451904Y-79463714D02*
X181451904Y-79987523D01*
X181499523Y-80082761D01*
X181594761Y-80130380D01*
X181737619Y-80130380D01*
X181832857Y-80082761D01*
X181880476Y-80035142D01*
X182261428Y-79130380D02*
X182928095Y-80130380D01*
X182928095Y-79130380D02*
X182261428Y-80130380D01*
X184023333Y-79082761D02*
X183166190Y-80368476D01*
X184309047Y-79844666D02*
X184785238Y-79844666D01*
X184213809Y-80130380D02*
X184547142Y-79130380D01*
X184880476Y-80130380D01*
X185213809Y-80130380D02*
X185213809Y-79463714D01*
X185213809Y-79558952D02*
X185261428Y-79511333D01*
X185356666Y-79463714D01*
X185499523Y-79463714D01*
X185594761Y-79511333D01*
X185642380Y-79606571D01*
X185642380Y-80130380D01*
X185642380Y-79606571D02*
X185690000Y-79511333D01*
X185785238Y-79463714D01*
X185928095Y-79463714D01*
X186023333Y-79511333D01*
X186070952Y-79606571D01*
X186070952Y-80130380D01*
X186547142Y-80130380D02*
X186547142Y-79463714D01*
X186547142Y-79130380D02*
X186499523Y-79178000D01*
X186547142Y-79225619D01*
X186594761Y-79178000D01*
X186547142Y-79130380D01*
X186547142Y-79225619D01*
X187451904Y-79463714D02*
X187451904Y-80273238D01*
X187404285Y-80368476D01*
X187356666Y-80416095D01*
X187261428Y-80463714D01*
X187118571Y-80463714D01*
X187023333Y-80416095D01*
X187451904Y-80082761D02*
X187356666Y-80130380D01*
X187166190Y-80130380D01*
X187070952Y-80082761D01*
X187023333Y-80035142D01*
X186975714Y-79939904D01*
X186975714Y-79654190D01*
X187023333Y-79558952D01*
X187070952Y-79511333D01*
X187166190Y-79463714D01*
X187356666Y-79463714D01*
X187451904Y-79511333D01*
X188356666Y-80130380D02*
X188356666Y-79606571D01*
X188309047Y-79511333D01*
X188213809Y-79463714D01*
X188023333Y-79463714D01*
X187928095Y-79511333D01*
X188356666Y-80082761D02*
X188261428Y-80130380D01*
X188023333Y-80130380D01*
X187928095Y-80082761D01*
X187880476Y-79987523D01*
X187880476Y-79892285D01*
X187928095Y-79797047D01*
X188023333Y-79749428D01*
X188261428Y-79749428D01*
X188356666Y-79701809D01*
X188832857Y-79749428D02*
X189594761Y-79749428D01*
X190023333Y-79844666D02*
X190499523Y-79844666D01*
X189928095Y-80130380D02*
X190261428Y-79130380D01*
X190594761Y-80130380D01*
X191356666Y-79130380D02*
X191166190Y-79130380D01*
X191070952Y-79178000D01*
X191023333Y-79225619D01*
X190928095Y-79368476D01*
X190880476Y-79558952D01*
X190880476Y-79939904D01*
X190928095Y-80035142D01*
X190975714Y-80082761D01*
X191070952Y-80130380D01*
X191261428Y-80130380D01*
X191356666Y-80082761D01*
X191404285Y-80035142D01*
X191451904Y-79939904D01*
X191451904Y-79701809D01*
X191404285Y-79606571D01*
X191356666Y-79558952D01*
X191261428Y-79511333D01*
X191070952Y-79511333D01*
X190975714Y-79558952D01*
X190928095Y-79606571D01*
X190880476Y-79701809D01*
X192070952Y-79130380D02*
X192166190Y-79130380D01*
X192261428Y-79178000D01*
X192309047Y-79225619D01*
X192356666Y-79320857D01*
X192404285Y-79511333D01*
X192404285Y-79749428D01*
X192356666Y-79939904D01*
X192309047Y-80035142D01*
X192261428Y-80082761D01*
X192166190Y-80130380D01*
X192070952Y-80130380D01*
X191975714Y-80082761D01*
X191928095Y-80035142D01*
X191880476Y-79939904D01*
X191832857Y-79749428D01*
X191832857Y-79511333D01*
X191880476Y-79320857D01*
X191928095Y-79225619D01*
X191975714Y-79178000D01*
X192070952Y-79130380D01*
X193023333Y-79130380D02*
X193118571Y-79130380D01*
X193213809Y-79178000D01*
X193261428Y-79225619D01*
X193309047Y-79320857D01*
X193356666Y-79511333D01*
X193356666Y-79749428D01*
X193309047Y-79939904D01*
X193261428Y-80035142D01*
X193213809Y-80082761D01*
X193118571Y-80130380D01*
X193023333Y-80130380D01*
X192928095Y-80082761D01*
X192880476Y-80035142D01*
X192832857Y-79939904D01*
X192785238Y-79749428D01*
X192785238Y-79511333D01*
X192832857Y-79320857D01*
X192880476Y-79225619D01*
X192928095Y-79178000D01*
X193023333Y-79130380D01*
X193785238Y-79749428D02*
X194547142Y-79749428D01*
X195451904Y-79130380D02*
X195261428Y-79130380D01*
X195166190Y-79178000D01*
X195118571Y-79225619D01*
X195023333Y-79368476D01*
X194975714Y-79558952D01*
X194975714Y-79939904D01*
X195023333Y-80035142D01*
X195070952Y-80082761D01*
X195166190Y-80130380D01*
X195356666Y-80130380D01*
X195451904Y-80082761D01*
X195499523Y-80035142D01*
X195547142Y-79939904D01*
X195547142Y-79701809D01*
X195499523Y-79606571D01*
X195451904Y-79558952D01*
X195356666Y-79511333D01*
X195166190Y-79511333D01*
X195070952Y-79558952D01*
X195023333Y-79606571D01*
X194975714Y-79701809D01*
X196118571Y-79558952D02*
X196023333Y-79511333D01*
X195975714Y-79463714D01*
X195928095Y-79368476D01*
X195928095Y-79320857D01*
X195975714Y-79225619D01*
X196023333Y-79178000D01*
X196118571Y-79130380D01*
X196309047Y-79130380D01*
X196404285Y-79178000D01*
X196451904Y-79225619D01*
X196499523Y-79320857D01*
X196499523Y-79368476D01*
X196451904Y-79463714D01*
X196404285Y-79511333D01*
X196309047Y-79558952D01*
X196118571Y-79558952D01*
X196023333Y-79606571D01*
X195975714Y-79654190D01*
X195928095Y-79749428D01*
X195928095Y-79939904D01*
X195975714Y-80035142D01*
X196023333Y-80082761D01*
X196118571Y-80130380D01*
X196309047Y-80130380D01*
X196404285Y-80082761D01*
X196451904Y-80035142D01*
X196499523Y-79939904D01*
X196499523Y-79749428D01*
X196451904Y-79654190D01*
X196404285Y-79606571D01*
X196309047Y-79558952D01*
X196928095Y-80130380D02*
X196928095Y-79130380D01*
X197023333Y-79749428D02*
X197309047Y-80130380D01*
X197309047Y-79463714D02*
X196928095Y-79844666D01*
X197737619Y-79749428D02*
X198499523Y-79749428D01*
X198975714Y-80130380D02*
X198975714Y-79130380D01*
X199356666Y-79130380D01*
X199451904Y-79178000D01*
X199499523Y-79225619D01*
X199547142Y-79320857D01*
X199547142Y-79463714D01*
X199499523Y-79558952D01*
X199451904Y-79606571D01*
X199356666Y-79654190D01*
X198975714Y-79654190D01*
X200451904Y-80130380D02*
X199975714Y-80130380D01*
X199975714Y-79130380D01*
X201356666Y-80035142D02*
X201309047Y-80082761D01*
X201166190Y-80130380D01*
X201070952Y-80130380D01*
X200928095Y-80082761D01*
X200832857Y-79987523D01*
X200785238Y-79892285D01*
X200737619Y-79701809D01*
X200737619Y-79558952D01*
X200785238Y-79368476D01*
X200832857Y-79273238D01*
X200928095Y-79178000D01*
X201070952Y-79130380D01*
X201166190Y-79130380D01*
X201309047Y-79178000D01*
X201356666Y-79225619D01*
X202356666Y-80035142D02*
X202309047Y-80082761D01*
X202166190Y-80130380D01*
X202070952Y-80130380D01*
X201928095Y-80082761D01*
X201832857Y-79987523D01*
X201785238Y-79892285D01*
X201737619Y-79701809D01*
X201737619Y-79558952D01*
X201785238Y-79368476D01*
X201832857Y-79273238D01*
X201928095Y-79178000D01*
X202070952Y-79130380D01*
X202166190Y-79130380D01*
X202309047Y-79178000D01*
X202356666Y-79225619D01*
X202737619Y-79225619D02*
X202785238Y-79178000D01*
X202880476Y-79130380D01*
X203118571Y-79130380D01*
X203213809Y-79178000D01*
X203261428Y-79225619D01*
X203309047Y-79320857D01*
X203309047Y-79416095D01*
X203261428Y-79558952D01*
X202690000Y-80130380D01*
X203309047Y-80130380D01*
X203737619Y-80130380D02*
X203737619Y-79130380D01*
X203975714Y-79130380D01*
X204118571Y-79178000D01*
X204213809Y-79273238D01*
X204261428Y-79368476D01*
X204309047Y-79558952D01*
X204309047Y-79701809D01*
X204261428Y-79892285D01*
X204213809Y-79987523D01*
X204118571Y-80082761D01*
X203975714Y-80130380D01*
X203737619Y-80130380D01*
X204737619Y-80130380D02*
X204737619Y-79130380D01*
X205213809Y-80130380D02*
X205213809Y-79130380D01*
X205594761Y-79130380D01*
X205690000Y-79178000D01*
X205737619Y-79225619D01*
X205785238Y-79320857D01*
X205785238Y-79463714D01*
X205737619Y-79558952D01*
X205690000Y-79606571D01*
X205594761Y-79654190D01*
X205213809Y-79654190D01*
D11*
X171761428Y-74164000D02*
X172475714Y-74164000D01*
X171618571Y-74592571D02*
X172118571Y-73092571D01*
X172618571Y-74592571D01*
X173118571Y-74592571D02*
X173118571Y-73092571D01*
X173618571Y-74164000D01*
X174118571Y-73092571D01*
X174118571Y-74592571D01*
X174832857Y-74592571D02*
X174832857Y-73092571D01*
X176332857Y-73164000D02*
X176190000Y-73092571D01*
X175975714Y-73092571D01*
X175761428Y-73164000D01*
X175618571Y-73306857D01*
X175547142Y-73449714D01*
X175475714Y-73735428D01*
X175475714Y-73949714D01*
X175547142Y-74235428D01*
X175618571Y-74378285D01*
X175761428Y-74521142D01*
X175975714Y-74592571D01*
X176118571Y-74592571D01*
X176332857Y-74521142D01*
X176404285Y-74449714D01*
X176404285Y-73949714D01*
X176118571Y-73949714D01*
X176975714Y-74164000D02*
X177690000Y-74164000D01*
X176832857Y-74592571D02*
X177332857Y-73092571D01*
X177832857Y-74592571D01*
X179404285Y-74164000D02*
X180118571Y-74164000D01*
X179261428Y-74592571D02*
X179761428Y-73092571D01*
X180261428Y-74592571D01*
X181404285Y-73092571D02*
X181118571Y-73092571D01*
X180975714Y-73164000D01*
X180904285Y-73235428D01*
X180761428Y-73449714D01*
X180690000Y-73735428D01*
X180690000Y-74306857D01*
X180761428Y-74449714D01*
X180832857Y-74521142D01*
X180975714Y-74592571D01*
X181261428Y-74592571D01*
X181404285Y-74521142D01*
X181475714Y-74449714D01*
X181547142Y-74306857D01*
X181547142Y-73949714D01*
X181475714Y-73806857D01*
X181404285Y-73735428D01*
X181261428Y-73664000D01*
X180975714Y-73664000D01*
X180832857Y-73735428D01*
X180761428Y-73806857D01*
X180690000Y-73949714D01*
X182475714Y-73092571D02*
X182618571Y-73092571D01*
X182761428Y-73164000D01*
X182832857Y-73235428D01*
X182904285Y-73378285D01*
X182975714Y-73664000D01*
X182975714Y-74021142D01*
X182904285Y-74306857D01*
X182832857Y-74449714D01*
X182761428Y-74521142D01*
X182618571Y-74592571D01*
X182475714Y-74592571D01*
X182332857Y-74521142D01*
X182261428Y-74449714D01*
X182190000Y-74306857D01*
X182118571Y-74021142D01*
X182118571Y-73664000D01*
X182190000Y-73378285D01*
X182261428Y-73235428D01*
X182332857Y-73164000D01*
X182475714Y-73092571D01*
X183904285Y-73092571D02*
X184047142Y-73092571D01*
X184190000Y-73164000D01*
X184261428Y-73235428D01*
X184332857Y-73378285D01*
X184404285Y-73664000D01*
X184404285Y-74021142D01*
X184332857Y-74306857D01*
X184261428Y-74449714D01*
X184190000Y-74521142D01*
X184047142Y-74592571D01*
X183904285Y-74592571D01*
X183761428Y-74521142D01*
X183690000Y-74449714D01*
X183618571Y-74306857D01*
X183547142Y-74021142D01*
X183547142Y-73664000D01*
X183618571Y-73378285D01*
X183690000Y-73235428D01*
X183761428Y-73164000D01*
X183904285Y-73092571D01*
X186832857Y-73092571D02*
X186547142Y-73092571D01*
X186404285Y-73164000D01*
X186332857Y-73235428D01*
X186190000Y-73449714D01*
X186118571Y-73735428D01*
X186118571Y-74306857D01*
X186190000Y-74449714D01*
X186261428Y-74521142D01*
X186404285Y-74592571D01*
X186690000Y-74592571D01*
X186832857Y-74521142D01*
X186904285Y-74449714D01*
X186975714Y-74306857D01*
X186975714Y-73949714D01*
X186904285Y-73806857D01*
X186832857Y-73735428D01*
X186690000Y-73664000D01*
X186404285Y-73664000D01*
X186261428Y-73735428D01*
X186190000Y-73806857D01*
X186118571Y-73949714D01*
X187832857Y-73735428D02*
X187690000Y-73664000D01*
X187618571Y-73592571D01*
X187547142Y-73449714D01*
X187547142Y-73378285D01*
X187618571Y-73235428D01*
X187690000Y-73164000D01*
X187832857Y-73092571D01*
X188118571Y-73092571D01*
X188261428Y-73164000D01*
X188332857Y-73235428D01*
X188404285Y-73378285D01*
X188404285Y-73449714D01*
X188332857Y-73592571D01*
X188261428Y-73664000D01*
X188118571Y-73735428D01*
X187832857Y-73735428D01*
X187690000Y-73806857D01*
X187618571Y-73878285D01*
X187547142Y-74021142D01*
X187547142Y-74306857D01*
X187618571Y-74449714D01*
X187690000Y-74521142D01*
X187832857Y-74592571D01*
X188118571Y-74592571D01*
X188261428Y-74521142D01*
X188332857Y-74449714D01*
X188404285Y-74306857D01*
X188404285Y-74021142D01*
X188332857Y-73878285D01*
X188261428Y-73806857D01*
X188118571Y-73735428D01*
X189047142Y-74592571D02*
X189047142Y-73092571D01*
X189190000Y-74021142D02*
X189618571Y-74592571D01*
X189618571Y-73592571D02*
X189047142Y-74164000D01*
X191404285Y-74592571D02*
X191404285Y-73092571D01*
X191975714Y-73092571D01*
X192118571Y-73164000D01*
X192190000Y-73235428D01*
X192261428Y-73378285D01*
X192261428Y-73592571D01*
X192190000Y-73735428D01*
X192118571Y-73806857D01*
X191975714Y-73878285D01*
X191404285Y-73878285D01*
X193618571Y-74592571D02*
X192904285Y-74592571D01*
X192904285Y-73092571D01*
X194975714Y-74449714D02*
X194904285Y-74521142D01*
X194690000Y-74592571D01*
X194547142Y-74592571D01*
X194332857Y-74521142D01*
X194190000Y-74378285D01*
X194118571Y-74235428D01*
X194047142Y-73949714D01*
X194047142Y-73735428D01*
X194118571Y-73449714D01*
X194190000Y-73306857D01*
X194332857Y-73164000D01*
X194547142Y-73092571D01*
X194690000Y-73092571D01*
X194904285Y-73164000D01*
X194975714Y-73235428D01*
X196475714Y-74449714D02*
X196404285Y-74521142D01*
X196190000Y-74592571D01*
X196047142Y-74592571D01*
X195832857Y-74521142D01*
X195690000Y-74378285D01*
X195618571Y-74235428D01*
X195547142Y-73949714D01*
X195547142Y-73735428D01*
X195618571Y-73449714D01*
X195690000Y-73306857D01*
X195832857Y-73164000D01*
X196047142Y-73092571D01*
X196190000Y-73092571D01*
X196404285Y-73164000D01*
X196475714Y-73235428D01*
X197047142Y-73235428D02*
X197118571Y-73164000D01*
X197261428Y-73092571D01*
X197618571Y-73092571D01*
X197761428Y-73164000D01*
X197832857Y-73235428D01*
X197904285Y-73378285D01*
X197904285Y-73521142D01*
X197832857Y-73735428D01*
X196975714Y-74592571D01*
X197904285Y-74592571D01*
X198547142Y-74592571D02*
X198547142Y-73092571D01*
X198904285Y-73092571D01*
X199118571Y-73164000D01*
X199261428Y-73306857D01*
X199332857Y-73449714D01*
X199404285Y-73735428D01*
X199404285Y-73949714D01*
X199332857Y-74235428D01*
X199261428Y-74378285D01*
X199118571Y-74521142D01*
X198904285Y-74592571D01*
X198547142Y-74592571D01*
X200047142Y-74592571D02*
X200047142Y-73092571D01*
X200761428Y-74592571D02*
X200761428Y-73092571D01*
X201332857Y-73092571D01*
X201475714Y-73164000D01*
X201547142Y-73235428D01*
X201618571Y-73378285D01*
X201618571Y-73592571D01*
X201547142Y-73735428D01*
X201475714Y-73806857D01*
X201332857Y-73878285D01*
X200761428Y-73878285D01*
D12*
%TO.C,U2*%
X117990000Y-59420000D02*
X117990000Y-71240000D01*
X117990000Y-68410000D02*
X199510000Y-68410000D01*
X199510000Y-68410000D02*
X199510000Y-48430000D01*
X199510000Y-48430000D02*
X117990000Y-48430000D01*
X117990000Y-45600000D02*
X117990000Y-57420000D01*
X117990000Y-71240000D02*
X199510000Y-71240000D01*
X199510000Y-71240000D02*
X199510000Y-45600000D01*
X199510000Y-45600000D02*
X117990000Y-45600000D01*
X117990000Y-57420000D02*
G75*
G02*
X117990000Y-59420000I0J-1000000D01*
G01*
D13*
%TO.C,U1*%
X137160000Y-112649000D02*
X136906000Y-112903000D01*
X137160000Y-113411000D02*
X137160000Y-112649000D01*
X137414000Y-112903000D02*
X137160000Y-112649000D01*
X141097000Y-132334000D02*
X141351000Y-132080000D01*
X141351000Y-132080000D02*
X141097000Y-131826000D01*
X140589000Y-132080000D02*
X141351000Y-132080000D01*
X138303000Y-113538000D02*
X137922000Y-113538000D01*
X138938000Y-112522000D02*
X137922000Y-113538000D01*
X137922000Y-113538000D02*
X137922000Y-113157000D01*
X140843000Y-132842000D02*
X140462000Y-132842000D01*
X140462000Y-132842000D02*
X140462000Y-133223000D01*
X141478000Y-133858000D02*
X140462000Y-132842000D01*
X121158000Y-135890000D02*
X121158000Y-135509000D01*
X121158000Y-135509000D02*
X120777000Y-135509000D01*
X120142000Y-136525000D02*
X121158000Y-135509000D01*
X117983000Y-116586000D02*
X117729000Y-116840000D01*
X117729000Y-116840000D02*
X117983000Y-117094000D01*
X118491000Y-116840000D02*
X117729000Y-116840000D01*
X118110000Y-116078000D02*
X118491000Y-116078000D01*
X118491000Y-116078000D02*
X118491000Y-115697000D01*
X117602000Y-115189000D02*
X118491000Y-116078000D01*
X127254000Y-112903000D02*
X127000000Y-112649000D01*
X127000000Y-112649000D02*
X126746000Y-112903000D01*
X127000000Y-113411000D02*
X127000000Y-112649000D01*
X128143000Y-113665000D02*
X127762000Y-113665000D01*
X127762000Y-113665000D02*
X127762000Y-113284000D01*
X128651000Y-112776000D02*
X127762000Y-113665000D01*
X122174000Y-136017000D02*
X121920000Y-136271000D01*
X121920000Y-136271000D02*
X121666000Y-136017000D01*
X121920000Y-135509000D02*
X121920000Y-136144000D01*
X117755810Y-114300000D02*
G75*
G03*
X117755810Y-114300000I-915810J0D01*
G01*
X117755810Y-127000000D02*
G75*
G03*
X117755810Y-127000000I-915810J0D01*
G01*
X125375810Y-134620000D02*
G75*
G03*
X125375810Y-134620000I-915810J0D01*
G01*
X138075810Y-134620000D02*
G75*
G03*
X138075810Y-134620000I-915810J0D01*
G01*
X143155810Y-127000000D02*
G75*
G03*
X143155810Y-127000000I-915810J0D01*
G01*
X143155810Y-114300000D02*
G75*
G03*
X143155810Y-114300000I-915810J0D01*
G01*
D12*
%TO.C,R1*%
X111200000Y-127763748D02*
X111200000Y-128286252D01*
X109780000Y-127763748D02*
X109780000Y-128286252D01*
%TO.C,R2*%
X149876252Y-76910000D02*
X149353748Y-76910000D01*
X149876252Y-75490000D02*
X149353748Y-75490000D01*
%TO.C,R1*%
D13*
X112592380Y-128191666D02*
X112116190Y-128525000D01*
X112592380Y-128763095D02*
X111592380Y-128763095D01*
X111592380Y-128382142D01*
X111640000Y-128286904D01*
X111687619Y-128239285D01*
X111782857Y-128191666D01*
X111925714Y-128191666D01*
X112020952Y-128239285D01*
X112068571Y-128286904D01*
X112116190Y-128382142D01*
X112116190Y-128763095D01*
X112592380Y-127239285D02*
X112592380Y-127810714D01*
X112592380Y-127525000D02*
X111592380Y-127525000D01*
X111735238Y-127620238D01*
X111830476Y-127715476D01*
X111878095Y-127810714D01*
%TO.C,R2*%
X149448333Y-78302380D02*
X149115000Y-77826190D01*
X148876904Y-78302380D02*
X148876904Y-77302380D01*
X149257857Y-77302380D01*
X149353095Y-77350000D01*
X149400714Y-77397619D01*
X149448333Y-77492857D01*
X149448333Y-77635714D01*
X149400714Y-77730952D01*
X149353095Y-77778571D01*
X149257857Y-77826190D01*
X148876904Y-77826190D01*
X149829285Y-77397619D02*
X149876904Y-77350000D01*
X149972142Y-77302380D01*
X150210238Y-77302380D01*
X150305476Y-77350000D01*
X150353095Y-77397619D01*
X150400714Y-77492857D01*
X150400714Y-77588095D01*
X150353095Y-77730952D01*
X149781666Y-78302380D01*
X150400714Y-78302380D01*
%TD*%
M02*
