%TF.GenerationSoftware,KiCad,Pcbnew,(5.1.6)-1*%
%TF.CreationDate,2020-11-29T15:27:34+00:00*%
%TF.ProjectId,A600 68k PLCC to DIP64,41363030-2036-4386-9b20-504c43432074,1*%
%TF.SameCoordinates,Original*%
%TF.FileFunction,Profile,NP*%
%FSLAX46Y46*%
G04 Gerber Fmt 4.6, Leading zero omitted, Abs format (unit mm)*
G04 Created by KiCad (PCBNEW (5.1.6)-1) date 2020-11-29 15:27:34*
%MOMM*%
%LPD*%
G01*
G04 APERTURE LIST*
%TA.AperFunction,Profile*%
%ADD10C,0.050000*%
%TD*%
G04 APERTURE END LIST*
D10*
X166370000Y-81280000D02*
X154940000Y-92710000D01*
X208280000Y-78740000D02*
G75*
G02*
X205740000Y-81280000I-2540000J0D01*
G01*
X205740000Y-41910000D02*
G75*
G02*
X208280000Y-44450000I0J-2540000D01*
G01*
X106680000Y-44450000D02*
G75*
G02*
X109220000Y-41910000I2540000J0D01*
G01*
X154940000Y-142240000D02*
G75*
G02*
X152400000Y-144780000I-2540000J0D01*
G01*
X109220000Y-144780000D02*
G75*
G02*
X106680000Y-142240000I0J2540000D01*
G01*
X123825000Y-131445000D02*
G75*
G02*
X122555000Y-130175000I0J1270000D01*
G01*
X136525000Y-130175000D02*
G75*
G02*
X135255000Y-131445000I-1270000J0D01*
G01*
X135255000Y-117475000D02*
G75*
G02*
X136525000Y-118745000I0J-1270000D01*
G01*
X122555000Y-118745000D02*
G75*
G02*
X123825000Y-117475000I1270000J0D01*
G01*
X123825000Y-117475000D02*
X135255000Y-117475000D01*
X122555000Y-130175000D02*
X122555000Y-118745000D01*
X135255000Y-131445000D02*
X123825000Y-131445000D01*
X136525000Y-118745000D02*
X136525000Y-130175000D01*
X166370000Y-81280000D02*
X205740000Y-81280000D01*
X205740000Y-41910000D02*
X109220000Y-41910000D01*
X208280000Y-44450000D02*
X208280000Y-78740000D01*
X106680000Y-44450000D02*
X106680000Y-142240000D01*
X154940000Y-92710000D02*
X154940000Y-142240000D01*
X152400000Y-144780000D02*
X109220000Y-144780000D01*
M02*
